G04 #@! TF.FileFunction,Soldermask,Top*
%FSLAX46Y46*%
G04 Gerber Fmt 4.6, Leading zero omitted, Abs format (unit mm)*
G04 Created by KiCad (PCBNEW 0.201506102247+5730~23~ubuntu15.04.1-product) date mar. 23 juin 2015 23:18:55 CEST*
%MOMM*%
G01*
G04 APERTURE LIST*
%ADD10C,0.100000*%
%ADD11R,1.897380X1.897380*%
%ADD12R,1.899920X1.897380*%
%ADD13R,1.795780X1.897380*%
%ADD14R,2.095500X1.597660*%
%ADD15R,0.398780X1.346200*%
%ADD16R,0.700000X1.300000*%
%ADD17R,2.400300X3.500120*%
%ADD18R,2.400300X4.000500*%
%ADD19R,1.300000X0.700000*%
%ADD20R,2.199640X1.399540*%
%ADD21R,0.450000X0.590000*%
%ADD22R,1.220000X0.910000*%
%ADD23R,1.700000X2.000000*%
%ADD24R,2.032000X2.032000*%
%ADD25O,2.032000X2.032000*%
%ADD26C,5.000000*%
%ADD27O,5.001260X2.999740*%
%ADD28R,1.727200X2.032000*%
%ADD29O,1.727200X2.032000*%
%ADD30R,2.032000X1.727200*%
%ADD31O,2.032000X1.727200*%
%ADD32O,1.800860X3.500120*%
%ADD33O,3.500120X1.800860*%
%ADD34O,2.999740X5.001260*%
%ADD35R,2.235200X2.235200*%
%ADD36R,0.800100X0.800100*%
%ADD37R,0.300000X0.850000*%
%ADD38R,0.850000X0.300000*%
%ADD39R,4.000000X4.000000*%
%ADD40R,3.048000X1.000000*%
%ADD41C,1.800000*%
%ADD42R,0.759460X1.699260*%
%ADD43R,9.999980X6.398260*%
%ADD44R,16.098520X3.398520*%
%ADD45C,2.100000*%
%ADD46R,1.800000X1.200000*%
%ADD47R,1.700000X0.900000*%
G04 APERTURE END LIST*
D10*
X100000000Y-137000000D02*
X100000000Y-43000000D01*
X197000000Y-140000000D02*
X103000000Y-140000000D01*
X200000000Y-43000000D02*
X200000000Y-137000000D01*
X103000000Y-40000000D02*
X197000000Y-40000000D01*
X200000000Y-43000000D02*
G75*
G03X197000000Y-40000000I-3000000J0D01*
G01*
X103000000Y-40000000D02*
G75*
G03X100000000Y-43000000I0J-3000000D01*
G01*
X100000000Y-137000000D02*
G75*
G03X103000000Y-140000000I3000000J0D01*
G01*
X197000000Y-140000000D02*
G75*
G03X200000000Y-137000000I0J3000000D01*
G01*
D11*
X126301120Y-137302200D03*
D12*
X128698880Y-137302200D03*
D13*
X131299840Y-137302200D03*
D14*
X124401200Y-134752040D03*
D15*
X126202060Y-134625040D03*
X126852300Y-134625040D03*
X127500000Y-134625040D03*
X128147700Y-134625040D03*
X128797940Y-134625040D03*
D14*
X130598800Y-134752040D03*
D13*
X123700160Y-137302200D03*
D16*
X107450000Y-106500000D03*
X105550000Y-106500000D03*
D17*
X143000000Y-72251200D03*
X143000000Y-65748800D03*
D18*
X159000000Y-73000500D03*
X159000000Y-64999500D03*
D19*
X138000000Y-134950000D03*
X138000000Y-133050000D03*
X144000000Y-134950000D03*
X144000000Y-133050000D03*
D16*
X147050000Y-121500000D03*
X148950000Y-121500000D03*
X125050000Y-118250000D03*
X126950000Y-118250000D03*
X126950000Y-122750000D03*
X125050000Y-122750000D03*
D19*
X136000000Y-114200000D03*
X136000000Y-112300000D03*
X135750000Y-128550000D03*
X135750000Y-130450000D03*
D16*
X147050000Y-119250000D03*
X148950000Y-119250000D03*
D19*
X186250000Y-53800000D03*
X186250000Y-55700000D03*
X174000000Y-72050000D03*
X174000000Y-73950000D03*
X134000000Y-53800000D03*
X134000000Y-55700000D03*
X122000000Y-72050000D03*
X122000000Y-73950000D03*
D20*
X185000000Y-116199640D03*
X185000000Y-111800360D03*
D21*
X142750000Y-109555000D03*
X142750000Y-107445000D03*
D22*
X174000000Y-47365000D03*
X174000000Y-50635000D03*
X186000000Y-47365000D03*
X186000000Y-50635000D03*
X113000000Y-47365000D03*
X113000000Y-50635000D03*
X127000000Y-47365000D03*
X127000000Y-50635000D03*
D23*
X185000000Y-107000000D03*
X185000000Y-103000000D03*
D24*
X176250000Y-105000000D03*
D25*
X176250000Y-102460000D03*
D24*
X180750000Y-105000000D03*
D25*
X180750000Y-102460000D03*
D24*
X124250000Y-127500000D03*
D25*
X124250000Y-130040000D03*
D26*
X103000000Y-137000000D03*
X103000000Y-43000000D03*
X197000000Y-137000000D03*
X197000000Y-43000000D03*
D27*
X194000000Y-124981200D03*
X194000000Y-121018800D03*
X194000000Y-115981200D03*
X194000000Y-112018800D03*
D28*
X175750000Y-110500000D03*
D29*
X178290000Y-110500000D03*
X180830000Y-110500000D03*
D28*
X175750000Y-114500000D03*
D29*
X178290000Y-114500000D03*
X180830000Y-114500000D03*
D30*
X102750000Y-102000000D03*
D31*
X102750000Y-104540000D03*
X102750000Y-107080000D03*
X102750000Y-109620000D03*
X102750000Y-112160000D03*
D27*
X194000000Y-106981200D03*
X194000000Y-103018800D03*
D28*
X124000000Y-102000000D03*
D29*
X121460000Y-102000000D03*
X118920000Y-102000000D03*
X116380000Y-102000000D03*
X113840000Y-102000000D03*
X111300000Y-102000000D03*
D32*
X154730000Y-136000000D03*
X157270000Y-136000000D03*
X161730000Y-136000000D03*
X164270000Y-136000000D03*
D33*
X163500000Y-123330000D03*
X163500000Y-120790000D03*
X163500000Y-118250000D03*
X163500000Y-115710000D03*
X163500000Y-113170000D03*
D32*
X133920000Y-103000000D03*
X136460000Y-103000000D03*
X139000000Y-103000000D03*
X141540000Y-103000000D03*
X144080000Y-103000000D03*
D34*
X181981200Y-46000000D03*
X178018800Y-46000000D03*
X121981200Y-46000000D03*
X118018800Y-46000000D03*
D32*
X110940000Y-136000000D03*
X113480000Y-136000000D03*
X116020000Y-136000000D03*
X118560000Y-136000000D03*
D33*
X104000000Y-78190000D03*
X104000000Y-80730000D03*
X104000000Y-83270000D03*
X104000000Y-85810000D03*
D32*
X168810000Y-44000000D03*
X166270000Y-44000000D03*
X163730000Y-44000000D03*
X161190000Y-44000000D03*
D33*
X196000000Y-85810000D03*
X196000000Y-83270000D03*
X196000000Y-80730000D03*
X196000000Y-78190000D03*
D32*
X138810000Y-44000000D03*
X136270000Y-44000000D03*
X133730000Y-44000000D03*
X131190000Y-44000000D03*
D30*
X116750000Y-120500000D03*
D31*
X116750000Y-117960000D03*
X116750000Y-115420000D03*
X116750000Y-112880000D03*
X116750000Y-110340000D03*
X116750000Y-107800000D03*
D33*
X104000000Y-116650000D03*
X104000000Y-119190000D03*
X104000000Y-121730000D03*
X104000000Y-124270000D03*
X104000000Y-126810000D03*
X104000000Y-129350000D03*
D32*
X147730000Y-136000000D03*
X150270000Y-136000000D03*
D35*
X146000000Y-109000000D03*
X150000000Y-109000000D03*
X155750000Y-118250000D03*
D36*
X114200000Y-129499240D03*
X112300000Y-129499240D03*
X113250000Y-131498220D03*
D16*
X107450000Y-104250000D03*
X105550000Y-104250000D03*
X105550000Y-102000000D03*
X107450000Y-102000000D03*
D19*
X141000000Y-133050000D03*
X141000000Y-134950000D03*
X129250000Y-109450000D03*
X129250000Y-107550000D03*
X131500000Y-109450000D03*
X131500000Y-107550000D03*
X138250000Y-109450000D03*
X138250000Y-107550000D03*
X140500000Y-109450000D03*
X140500000Y-107550000D03*
X127000000Y-107550000D03*
X127000000Y-109450000D03*
X133750000Y-109450000D03*
X133750000Y-107550000D03*
X136000000Y-109450000D03*
X136000000Y-107550000D03*
D16*
X133300000Y-134750000D03*
X135200000Y-134750000D03*
X125050000Y-116000000D03*
X126950000Y-116000000D03*
D19*
X117000000Y-129550000D03*
X117000000Y-131450000D03*
X180000000Y-73950000D03*
X180000000Y-72050000D03*
X128000000Y-73950000D03*
X128000000Y-72050000D03*
D37*
X140000000Y-117300000D03*
X139500000Y-117300000D03*
X139000000Y-117300000D03*
X138500000Y-117300000D03*
X138000000Y-117300000D03*
X137500000Y-117300000D03*
X137000000Y-117300000D03*
X136500000Y-117300000D03*
X136000000Y-117300000D03*
X135500000Y-117300000D03*
X135000000Y-117300000D03*
X134500000Y-117300000D03*
X134000000Y-117300000D03*
X133500000Y-117300000D03*
X133000000Y-117300000D03*
X132500000Y-117300000D03*
D38*
X131800000Y-118000000D03*
X131800000Y-118500000D03*
X131800000Y-119000000D03*
X131800000Y-119500000D03*
X131800000Y-120000000D03*
X131800000Y-120500000D03*
X131800000Y-121000000D03*
X131800000Y-121500000D03*
X131800000Y-122000000D03*
X131800000Y-122500000D03*
X131800000Y-123000000D03*
X131800000Y-123500000D03*
X131800000Y-124000000D03*
X131800000Y-124500000D03*
X131800000Y-125000000D03*
X131800000Y-125500000D03*
D37*
X132500000Y-126200000D03*
X133000000Y-126200000D03*
X133500000Y-126200000D03*
X134000000Y-126200000D03*
X134500000Y-126200000D03*
X135000000Y-126200000D03*
X135500000Y-126200000D03*
X136000000Y-126200000D03*
X136500000Y-126200000D03*
X137000000Y-126200000D03*
X137500000Y-126200000D03*
X138000000Y-126200000D03*
X138500000Y-126200000D03*
X139000000Y-126200000D03*
X139500000Y-126200000D03*
X140000000Y-126200000D03*
D38*
X140700000Y-125500000D03*
X140700000Y-125000000D03*
X140700000Y-124500000D03*
X140700000Y-124000000D03*
X140700000Y-123500000D03*
X140700000Y-123000000D03*
X140700000Y-122500000D03*
X140700000Y-122000000D03*
X140700000Y-121500000D03*
X140700000Y-121000000D03*
X140700000Y-120500000D03*
X140700000Y-120000000D03*
X140700000Y-119500000D03*
X140700000Y-119000000D03*
X140700000Y-118500000D03*
X140700000Y-118000000D03*
D39*
X136250000Y-121750000D03*
D19*
X144000000Y-138950000D03*
X144000000Y-137050000D03*
X141000000Y-138950000D03*
X141000000Y-137050000D03*
X138000000Y-138950000D03*
X138000000Y-137050000D03*
D16*
X102050000Y-89000000D03*
X103950000Y-89000000D03*
X102050000Y-92000000D03*
X103950000Y-92000000D03*
X102050000Y-95000000D03*
X103950000Y-95000000D03*
X102050000Y-98000000D03*
X103950000Y-98000000D03*
D40*
X169550000Y-137000000D03*
X169550000Y-133000000D03*
X178450000Y-137000000D03*
X178450000Y-133000000D03*
X182550000Y-137000000D03*
X182550000Y-133000000D03*
X191450000Y-137000000D03*
X191450000Y-133000000D03*
D41*
X177750000Y-119500000D03*
X175250000Y-119500000D03*
X180250000Y-119500000D03*
X177750000Y-125500000D03*
X175250000Y-125500000D03*
X180250000Y-125500000D03*
D42*
X181715000Y-55154700D03*
X180445000Y-55152160D03*
X179175000Y-55152160D03*
X177905000Y-55152160D03*
X176635000Y-55152160D03*
X175365000Y-55152160D03*
X174095000Y-55152160D03*
X172825000Y-55152160D03*
D43*
X176000000Y-62000000D03*
D42*
X170285000Y-55154700D03*
X171555000Y-55152160D03*
X170285000Y-68847840D03*
X171555000Y-68847840D03*
X172825000Y-68847840D03*
X174095000Y-68847840D03*
X175365000Y-68847840D03*
X176635000Y-68847840D03*
X177905000Y-68847840D03*
X179175000Y-68847840D03*
X180445000Y-68847840D03*
X181715000Y-68845300D03*
D44*
X176000000Y-62000000D03*
D45*
X111535000Y-78475000D03*
X111535000Y-97525000D03*
X124225000Y-97525000D03*
X127415000Y-97525000D03*
X130585000Y-97525000D03*
X146465000Y-97525000D03*
X146465000Y-78475000D03*
X153535000Y-78475000D03*
X153535000Y-97525000D03*
X166225000Y-97525000D03*
X169415000Y-97525000D03*
X172585000Y-97525000D03*
X188465000Y-97525000D03*
X188465000Y-78475000D03*
D42*
X129715000Y-55154700D03*
X128445000Y-55152160D03*
X127175000Y-55152160D03*
X125905000Y-55152160D03*
X124635000Y-55152160D03*
X123365000Y-55152160D03*
X122095000Y-55152160D03*
X120825000Y-55152160D03*
D43*
X124000000Y-62000000D03*
D42*
X118285000Y-55154700D03*
X119555000Y-55152160D03*
X118285000Y-68847840D03*
X119555000Y-68847840D03*
X120825000Y-68847840D03*
X122095000Y-68847840D03*
X123365000Y-68847840D03*
X124635000Y-68847840D03*
X125905000Y-68847840D03*
X127175000Y-68847840D03*
X128445000Y-68847840D03*
X129715000Y-68845300D03*
D44*
X124000000Y-62000000D03*
D46*
X138750000Y-131450000D03*
X142750000Y-129050000D03*
X142750000Y-131450000D03*
X138750000Y-129050000D03*
D47*
X177000000Y-74950000D03*
X177000000Y-72050000D03*
X125000000Y-74950000D03*
X125000000Y-72050000D03*
M02*
