G04 #@! TF.FileFunction,Paste,Bot*
%FSLAX46Y46*%
G04 Gerber Fmt 4.6, Leading zero omitted, Abs format (unit mm)*
G04 Created by KiCad (PCBNEW 0.201506102247+5730~23~ubuntu15.04.1-product) date mar. 16 juin 2015 22:04:07 CEST*
%MOMM*%
G01*
G04 APERTURE LIST*
%ADD10C,0.100000*%
%ADD11R,1.300000X0.700000*%
%ADD12R,0.700000X1.300000*%
%ADD13R,0.450000X0.590000*%
%ADD14R,0.800100X0.800100*%
%ADD15R,1.550000X0.600000*%
G04 APERTURE END LIST*
D10*
X100000000Y-137000000D02*
X100000000Y-43000000D01*
X197000000Y-140000000D02*
X103000000Y-140000000D01*
X200000000Y-43000000D02*
X200000000Y-137000000D01*
X103000000Y-40000000D02*
X197000000Y-40000000D01*
X200000000Y-43000000D02*
G75*
G03X197000000Y-40000000I-3000000J0D01*
G01*
X103000000Y-40000000D02*
G75*
G03X100000000Y-43000000I0J-3000000D01*
G01*
X100000000Y-137000000D02*
G75*
G03X103000000Y-140000000I3000000J0D01*
G01*
X197000000Y-140000000D02*
G75*
G03X200000000Y-137000000I0J3000000D01*
G01*
D11*
X111500000Y-94450000D03*
X111500000Y-92550000D03*
X156750000Y-97550000D03*
X156750000Y-99450000D03*
X126000000Y-85800000D03*
X126000000Y-87700000D03*
X115500000Y-85800000D03*
X115500000Y-87700000D03*
X175000000Y-43950000D03*
X175000000Y-42050000D03*
D12*
X178950000Y-42000000D03*
X177050000Y-42000000D03*
D11*
X185000000Y-43950000D03*
X185000000Y-42050000D03*
X115000000Y-43950000D03*
X115000000Y-42050000D03*
D12*
X118950000Y-42000000D03*
X117050000Y-42000000D03*
D11*
X125000000Y-43950000D03*
X125000000Y-42050000D03*
D12*
X120050000Y-90500000D03*
X121950000Y-90500000D03*
D13*
X161250000Y-99555000D03*
X161250000Y-97445000D03*
D14*
X168800000Y-109499240D03*
X170700000Y-109499240D03*
X169750000Y-111498220D03*
X168800000Y-113499240D03*
X170700000Y-113499240D03*
X169750000Y-115498220D03*
X168800000Y-119499240D03*
X170700000Y-119499240D03*
X169750000Y-121498220D03*
D12*
X135700000Y-97500000D03*
X133800000Y-97500000D03*
X175300000Y-96250000D03*
X177200000Y-96250000D03*
D11*
X172750000Y-111450000D03*
X172750000Y-109550000D03*
X172750000Y-115450000D03*
X172750000Y-113550000D03*
D12*
X168800000Y-123500000D03*
X170700000Y-123500000D03*
X117950000Y-97500000D03*
X116050000Y-97500000D03*
D11*
X144000000Y-133050000D03*
X144000000Y-134950000D03*
X141000000Y-133050000D03*
X141000000Y-134950000D03*
X138000000Y-133050000D03*
X138000000Y-134950000D03*
D12*
X108200000Y-89000000D03*
X106300000Y-89000000D03*
X185200000Y-96250000D03*
X183300000Y-96250000D03*
X108200000Y-95000000D03*
X106300000Y-95000000D03*
D11*
X112750000Y-85800000D03*
X112750000Y-87700000D03*
X111250000Y-123950000D03*
X111250000Y-122050000D03*
X108750000Y-122050000D03*
X108750000Y-123950000D03*
D12*
X181050000Y-42000000D03*
X182950000Y-42000000D03*
X121050000Y-42000000D03*
X122950000Y-42000000D03*
D11*
X159000000Y-99450000D03*
X159000000Y-97550000D03*
D15*
X123450000Y-84095000D03*
X123450000Y-85365000D03*
X123450000Y-86635000D03*
X123450000Y-87905000D03*
X118050000Y-87905000D03*
X118050000Y-86635000D03*
X118050000Y-85365000D03*
X118050000Y-84095000D03*
M02*
