G04 #@! TF.FileFunction,Paste,Top*
%FSLAX46Y46*%
G04 Gerber Fmt 4.6, Leading zero omitted, Abs format (unit mm)*
G04 Created by KiCad (PCBNEW 0.201506102247+5730~23~ubuntu15.04.1-product) date mar. 23 juin 2015 23:09:00 CEST*
%MOMM*%
G01*
G04 APERTURE LIST*
%ADD10C,0.100000*%
%ADD11R,1.897380X1.897380*%
%ADD12R,1.899920X1.897380*%
%ADD13R,1.795780X1.897380*%
%ADD14R,2.095500X1.597660*%
%ADD15R,0.398780X1.346200*%
%ADD16R,0.700000X1.300000*%
%ADD17R,2.400300X3.500120*%
%ADD18R,2.400300X4.000500*%
%ADD19R,1.300000X0.700000*%
%ADD20R,2.199640X1.399540*%
%ADD21R,0.450000X0.590000*%
%ADD22R,1.220000X0.910000*%
%ADD23R,1.700000X2.000000*%
%ADD24R,0.800100X0.800100*%
%ADD25R,0.300000X0.850000*%
%ADD26R,0.850000X0.300000*%
%ADD27R,2.400000X2.400000*%
%ADD28R,3.048000X1.000000*%
%ADD29R,0.759460X1.699260*%
%ADD30R,9.999980X6.398260*%
%ADD31R,16.098520X3.398520*%
%ADD32R,1.800000X1.200000*%
%ADD33R,1.700000X0.900000*%
G04 APERTURE END LIST*
D10*
X100000000Y-137000000D02*
X100000000Y-43000000D01*
X197000000Y-140000000D02*
X103000000Y-140000000D01*
X200000000Y-43000000D02*
X200000000Y-137000000D01*
X103000000Y-40000000D02*
X197000000Y-40000000D01*
X200000000Y-43000000D02*
G75*
G03X197000000Y-40000000I-3000000J0D01*
G01*
X103000000Y-40000000D02*
G75*
G03X100000000Y-43000000I0J-3000000D01*
G01*
X100000000Y-137000000D02*
G75*
G03X103000000Y-140000000I3000000J0D01*
G01*
X197000000Y-140000000D02*
G75*
G03X200000000Y-137000000I0J3000000D01*
G01*
D11*
X126301120Y-137302200D03*
D12*
X128698880Y-137302200D03*
D13*
X131299840Y-137302200D03*
D14*
X124401200Y-134752040D03*
D15*
X126202060Y-134625040D03*
X126852300Y-134625040D03*
X127500000Y-134625040D03*
X128147700Y-134625040D03*
X128797940Y-134625040D03*
D14*
X130598800Y-134752040D03*
D13*
X123700160Y-137302200D03*
D16*
X107450000Y-106500000D03*
X105550000Y-106500000D03*
D17*
X143000000Y-72251200D03*
X143000000Y-65748800D03*
D18*
X159000000Y-73000500D03*
X159000000Y-64999500D03*
D19*
X138000000Y-134950000D03*
X138000000Y-133050000D03*
X144000000Y-134950000D03*
X144000000Y-133050000D03*
D16*
X147050000Y-121500000D03*
X148950000Y-121500000D03*
X125050000Y-118250000D03*
X126950000Y-118250000D03*
X126950000Y-122750000D03*
X125050000Y-122750000D03*
D19*
X136000000Y-114200000D03*
X136000000Y-112300000D03*
X135750000Y-128550000D03*
X135750000Y-130450000D03*
D16*
X147050000Y-119250000D03*
X148950000Y-119250000D03*
D19*
X186250000Y-53800000D03*
X186250000Y-55700000D03*
X174000000Y-72050000D03*
X174000000Y-73950000D03*
X134000000Y-53800000D03*
X134000000Y-55700000D03*
X122000000Y-72050000D03*
X122000000Y-73950000D03*
D20*
X185000000Y-116199640D03*
X185000000Y-111800360D03*
D21*
X142750000Y-109555000D03*
X142750000Y-107445000D03*
D22*
X174000000Y-47365000D03*
X174000000Y-50635000D03*
X186000000Y-47365000D03*
X186000000Y-50635000D03*
X113000000Y-47365000D03*
X113000000Y-50635000D03*
X127000000Y-47365000D03*
X127000000Y-50635000D03*
D23*
X185000000Y-107000000D03*
X185000000Y-103000000D03*
D24*
X114200000Y-129499240D03*
X112300000Y-129499240D03*
X113250000Y-131498220D03*
D16*
X107450000Y-104250000D03*
X105550000Y-104250000D03*
X105550000Y-102000000D03*
X107450000Y-102000000D03*
D19*
X141000000Y-133050000D03*
X141000000Y-134950000D03*
X129250000Y-109450000D03*
X129250000Y-107550000D03*
X131500000Y-109450000D03*
X131500000Y-107550000D03*
X138250000Y-109450000D03*
X138250000Y-107550000D03*
X140500000Y-109450000D03*
X140500000Y-107550000D03*
X127000000Y-107550000D03*
X127000000Y-109450000D03*
X133750000Y-109450000D03*
X133750000Y-107550000D03*
X136000000Y-109450000D03*
X136000000Y-107550000D03*
D16*
X133300000Y-134750000D03*
X135200000Y-134750000D03*
X125050000Y-116000000D03*
X126950000Y-116000000D03*
D19*
X117000000Y-129550000D03*
X117000000Y-131450000D03*
X180000000Y-73950000D03*
X180000000Y-72050000D03*
X128000000Y-73950000D03*
X128000000Y-72050000D03*
D25*
X140000000Y-117300000D03*
X139500000Y-117300000D03*
X139000000Y-117300000D03*
X138500000Y-117300000D03*
X138000000Y-117300000D03*
X137500000Y-117300000D03*
X137000000Y-117300000D03*
X136500000Y-117300000D03*
X136000000Y-117300000D03*
X135500000Y-117300000D03*
X135000000Y-117300000D03*
X134500000Y-117300000D03*
X134000000Y-117300000D03*
X133500000Y-117300000D03*
X133000000Y-117300000D03*
X132500000Y-117300000D03*
D26*
X131800000Y-118000000D03*
X131800000Y-118500000D03*
X131800000Y-119000000D03*
X131800000Y-119500000D03*
X131800000Y-120000000D03*
X131800000Y-120500000D03*
X131800000Y-121000000D03*
X131800000Y-121500000D03*
X131800000Y-122000000D03*
X131800000Y-122500000D03*
X131800000Y-123000000D03*
X131800000Y-123500000D03*
X131800000Y-124000000D03*
X131800000Y-124500000D03*
X131800000Y-125000000D03*
X131800000Y-125500000D03*
D25*
X132500000Y-126200000D03*
X133000000Y-126200000D03*
X133500000Y-126200000D03*
X134000000Y-126200000D03*
X134500000Y-126200000D03*
X135000000Y-126200000D03*
X135500000Y-126200000D03*
X136000000Y-126200000D03*
X136500000Y-126200000D03*
X137000000Y-126200000D03*
X137500000Y-126200000D03*
X138000000Y-126200000D03*
X138500000Y-126200000D03*
X139000000Y-126200000D03*
X139500000Y-126200000D03*
X140000000Y-126200000D03*
D26*
X140700000Y-125500000D03*
X140700000Y-125000000D03*
X140700000Y-124500000D03*
X140700000Y-124000000D03*
X140700000Y-123500000D03*
X140700000Y-123000000D03*
X140700000Y-122500000D03*
X140700000Y-122000000D03*
X140700000Y-121500000D03*
X140700000Y-121000000D03*
X140700000Y-120500000D03*
X140700000Y-120000000D03*
X140700000Y-119500000D03*
X140700000Y-119000000D03*
X140700000Y-118500000D03*
X140700000Y-118000000D03*
D27*
X136250000Y-121750000D03*
D19*
X144000000Y-138950000D03*
X144000000Y-137050000D03*
X141000000Y-138950000D03*
X141000000Y-137050000D03*
X138000000Y-138950000D03*
X138000000Y-137050000D03*
D16*
X102050000Y-89000000D03*
X103950000Y-89000000D03*
X102050000Y-92000000D03*
X103950000Y-92000000D03*
X102050000Y-95000000D03*
X103950000Y-95000000D03*
X102050000Y-98000000D03*
X103950000Y-98000000D03*
D28*
X169550000Y-137000000D03*
X169550000Y-133000000D03*
X178450000Y-137000000D03*
X178450000Y-133000000D03*
X182550000Y-137000000D03*
X182550000Y-133000000D03*
X191450000Y-137000000D03*
X191450000Y-133000000D03*
D29*
X181715000Y-55154700D03*
X180445000Y-55152160D03*
X179175000Y-55152160D03*
X177905000Y-55152160D03*
X176635000Y-55152160D03*
X175365000Y-55152160D03*
X174095000Y-55152160D03*
X172825000Y-55152160D03*
D30*
X176000000Y-62000000D03*
D29*
X170285000Y-55154700D03*
X171555000Y-55152160D03*
X170285000Y-68847840D03*
X171555000Y-68847840D03*
X172825000Y-68847840D03*
X174095000Y-68847840D03*
X175365000Y-68847840D03*
X176635000Y-68847840D03*
X177905000Y-68847840D03*
X179175000Y-68847840D03*
X180445000Y-68847840D03*
X181715000Y-68845300D03*
D31*
X176000000Y-62000000D03*
D29*
X129715000Y-55154700D03*
X128445000Y-55152160D03*
X127175000Y-55152160D03*
X125905000Y-55152160D03*
X124635000Y-55152160D03*
X123365000Y-55152160D03*
X122095000Y-55152160D03*
X120825000Y-55152160D03*
D30*
X124000000Y-62000000D03*
D29*
X118285000Y-55154700D03*
X119555000Y-55152160D03*
X118285000Y-68847840D03*
X119555000Y-68847840D03*
X120825000Y-68847840D03*
X122095000Y-68847840D03*
X123365000Y-68847840D03*
X124635000Y-68847840D03*
X125905000Y-68847840D03*
X127175000Y-68847840D03*
X128445000Y-68847840D03*
X129715000Y-68845300D03*
D31*
X124000000Y-62000000D03*
D32*
X138750000Y-131450000D03*
X142750000Y-129050000D03*
X142750000Y-131450000D03*
X138750000Y-129050000D03*
D33*
X177000000Y-74950000D03*
X177000000Y-72050000D03*
X125000000Y-74950000D03*
X125000000Y-72050000D03*
M02*
