G04 #@! TF.FileFunction,Soldermask,Bot*
%FSLAX46Y46*%
G04 Gerber Fmt 4.6, Leading zero omitted, Abs format (unit mm)*
G04 Created by KiCad (PCBNEW 0.201506102247+5730~23~ubuntu15.04.1-product) date mar. 16 juin 2015 22:04:07 CEST*
%MOMM*%
G01*
G04 APERTURE LIST*
%ADD10C,0.100000*%
%ADD11R,1.300000X0.700000*%
%ADD12R,0.700000X1.300000*%
%ADD13R,0.450000X0.590000*%
%ADD14R,2.032000X2.032000*%
%ADD15O,2.032000X2.032000*%
%ADD16C,5.000000*%
%ADD17O,5.001260X2.999740*%
%ADD18R,1.727200X2.032000*%
%ADD19O,1.727200X2.032000*%
%ADD20R,2.032000X1.727200*%
%ADD21O,2.032000X1.727200*%
%ADD22O,1.800860X3.500120*%
%ADD23O,3.500120X1.800860*%
%ADD24O,2.999740X5.001260*%
%ADD25R,2.235200X2.235200*%
%ADD26R,0.800100X0.800100*%
%ADD27R,1.550000X0.600000*%
%ADD28C,1.800000*%
%ADD29C,2.100000*%
G04 APERTURE END LIST*
D10*
X100000000Y-137000000D02*
X100000000Y-43000000D01*
X197000000Y-140000000D02*
X103000000Y-140000000D01*
X200000000Y-43000000D02*
X200000000Y-137000000D01*
X103000000Y-40000000D02*
X197000000Y-40000000D01*
X200000000Y-43000000D02*
G75*
G03X197000000Y-40000000I-3000000J0D01*
G01*
X103000000Y-40000000D02*
G75*
G03X100000000Y-43000000I0J-3000000D01*
G01*
X100000000Y-137000000D02*
G75*
G03X103000000Y-140000000I3000000J0D01*
G01*
X197000000Y-140000000D02*
G75*
G03X200000000Y-137000000I0J3000000D01*
G01*
D11*
X111500000Y-94450000D03*
X111500000Y-92550000D03*
X156750000Y-97550000D03*
X156750000Y-99450000D03*
X126000000Y-85800000D03*
X126000000Y-87700000D03*
X115500000Y-85800000D03*
X115500000Y-87700000D03*
X175000000Y-43950000D03*
X175000000Y-42050000D03*
D12*
X178950000Y-42000000D03*
X177050000Y-42000000D03*
D11*
X185000000Y-43950000D03*
X185000000Y-42050000D03*
X115000000Y-43950000D03*
X115000000Y-42050000D03*
D12*
X118950000Y-42000000D03*
X117050000Y-42000000D03*
D11*
X125000000Y-43950000D03*
X125000000Y-42050000D03*
D12*
X120050000Y-90500000D03*
X121950000Y-90500000D03*
D13*
X161250000Y-99555000D03*
X161250000Y-97445000D03*
D14*
X176250000Y-105000000D03*
D15*
X176250000Y-102460000D03*
D14*
X180750000Y-105000000D03*
D15*
X180750000Y-102460000D03*
D14*
X124250000Y-127500000D03*
D15*
X124250000Y-130040000D03*
D16*
X103000000Y-137000000D03*
X103000000Y-43000000D03*
X197000000Y-137000000D03*
X197000000Y-43000000D03*
D17*
X194000000Y-124981200D03*
X194000000Y-121018800D03*
X194000000Y-115981200D03*
X194000000Y-112018800D03*
D18*
X175750000Y-110500000D03*
D19*
X178290000Y-110500000D03*
X180830000Y-110500000D03*
D18*
X175750000Y-114500000D03*
D19*
X178290000Y-114500000D03*
X180830000Y-114500000D03*
D20*
X102750000Y-102000000D03*
D21*
X102750000Y-104540000D03*
X102750000Y-107080000D03*
X102750000Y-109620000D03*
X102750000Y-112160000D03*
D17*
X194000000Y-106981200D03*
X194000000Y-103018800D03*
D18*
X124000000Y-102000000D03*
D19*
X121460000Y-102000000D03*
X118920000Y-102000000D03*
X116380000Y-102000000D03*
X113840000Y-102000000D03*
X111300000Y-102000000D03*
D22*
X154730000Y-136000000D03*
X157270000Y-136000000D03*
X161730000Y-136000000D03*
X164270000Y-136000000D03*
D23*
X163500000Y-123330000D03*
X163500000Y-120790000D03*
X163500000Y-118250000D03*
X163500000Y-115710000D03*
X163500000Y-113170000D03*
D22*
X133920000Y-103000000D03*
X136460000Y-103000000D03*
X139000000Y-103000000D03*
X141540000Y-103000000D03*
X144080000Y-103000000D03*
D24*
X181981200Y-46000000D03*
X178018800Y-46000000D03*
X121981200Y-46000000D03*
X118018800Y-46000000D03*
D22*
X110940000Y-136000000D03*
X113480000Y-136000000D03*
X116020000Y-136000000D03*
X118560000Y-136000000D03*
D23*
X104000000Y-78190000D03*
X104000000Y-80730000D03*
X104000000Y-83270000D03*
X104000000Y-85810000D03*
D22*
X168810000Y-44000000D03*
X166270000Y-44000000D03*
X163730000Y-44000000D03*
X161190000Y-44000000D03*
D23*
X196000000Y-85810000D03*
X196000000Y-83270000D03*
X196000000Y-80730000D03*
X196000000Y-78190000D03*
D22*
X138810000Y-44000000D03*
X136270000Y-44000000D03*
X133730000Y-44000000D03*
X131190000Y-44000000D03*
D20*
X116750000Y-120500000D03*
D21*
X116750000Y-117960000D03*
X116750000Y-115420000D03*
X116750000Y-112880000D03*
X116750000Y-110340000D03*
X116750000Y-107800000D03*
D23*
X104000000Y-116650000D03*
X104000000Y-119190000D03*
X104000000Y-121730000D03*
X104000000Y-124270000D03*
X104000000Y-126810000D03*
X104000000Y-129350000D03*
D22*
X147730000Y-136000000D03*
X150270000Y-136000000D03*
D25*
X146000000Y-109000000D03*
X150000000Y-109000000D03*
X155750000Y-118250000D03*
D26*
X168800000Y-109499240D03*
X170700000Y-109499240D03*
X169750000Y-111498220D03*
X168800000Y-113499240D03*
X170700000Y-113499240D03*
X169750000Y-115498220D03*
X168800000Y-119499240D03*
X170700000Y-119499240D03*
X169750000Y-121498220D03*
D12*
X135700000Y-97500000D03*
X133800000Y-97500000D03*
X175300000Y-96250000D03*
X177200000Y-96250000D03*
D11*
X172750000Y-111450000D03*
X172750000Y-109550000D03*
X172750000Y-115450000D03*
X172750000Y-113550000D03*
D12*
X168800000Y-123500000D03*
X170700000Y-123500000D03*
X117950000Y-97500000D03*
X116050000Y-97500000D03*
D11*
X144000000Y-133050000D03*
X144000000Y-134950000D03*
X141000000Y-133050000D03*
X141000000Y-134950000D03*
X138000000Y-133050000D03*
X138000000Y-134950000D03*
D12*
X108200000Y-89000000D03*
X106300000Y-89000000D03*
X185200000Y-96250000D03*
X183300000Y-96250000D03*
X108200000Y-95000000D03*
X106300000Y-95000000D03*
D11*
X112750000Y-85800000D03*
X112750000Y-87700000D03*
X111250000Y-123950000D03*
X111250000Y-122050000D03*
X108750000Y-122050000D03*
X108750000Y-123950000D03*
D12*
X181050000Y-42000000D03*
X182950000Y-42000000D03*
X121050000Y-42000000D03*
X122950000Y-42000000D03*
D11*
X159000000Y-99450000D03*
X159000000Y-97550000D03*
D27*
X123450000Y-84095000D03*
X123450000Y-85365000D03*
X123450000Y-86635000D03*
X123450000Y-87905000D03*
X118050000Y-87905000D03*
X118050000Y-86635000D03*
X118050000Y-85365000D03*
X118050000Y-84095000D03*
D28*
X177750000Y-119500000D03*
X175250000Y-119500000D03*
X180250000Y-119500000D03*
X177750000Y-125500000D03*
X175250000Y-125500000D03*
X180250000Y-125500000D03*
D29*
X111535000Y-78475000D03*
X111535000Y-97525000D03*
X124225000Y-97525000D03*
X127415000Y-97525000D03*
X130585000Y-97525000D03*
X146465000Y-97525000D03*
X146465000Y-78475000D03*
X153535000Y-78475000D03*
X153535000Y-97525000D03*
X166225000Y-97525000D03*
X169415000Y-97525000D03*
X172585000Y-97525000D03*
X188465000Y-97525000D03*
X188465000Y-78475000D03*
M02*
