M48
;DRILL file {KiCad 0.201506102247+5730~23~ubuntu15.04.1-product} date mar. 16 juin 2015 21:43:07 CEST
;FORMAT={-:-/ absolute / inch / decimal}
FMAT,2
INCH,TZ
T1C0.016
T2C0.020
T3C0.024
T4C0.031
T5C0.040
T6C0.047
T7C0.055
T8C0.071
T9C0.122
%
G90
G05
M72
T1
X3.9764Y-1.8504
X3.9764Y-2.0472
X3.9764Y-2.2441
X3.9764Y-2.4409
X3.9764Y-2.6378
X3.9764Y-2.8346
X3.9764Y-3.0315
X4.0157Y-5.1969
X4.1339Y-1.9291
X4.1339Y-2.126
X4.1339Y-2.3228
X4.1339Y-2.5197
X4.1339Y-2.7165
X4.1339Y-2.9134
X4.1339Y-3.7402
X4.1437Y-3.5039
X4.1634Y-4.4685
X4.2126Y-4.9213
X4.2126Y-5.2756
X4.2323Y-4.7441
X4.252Y-5.4331
X4.2913Y-1.6535
X4.2913Y-1.8504
X4.2913Y-2.0472
X4.2913Y-2.2441
X4.2913Y-2.4409
X4.2913Y-2.6378
X4.2913Y-2.8346
X4.2913Y-4.311
X4.2913Y-4.5276
X4.2913Y-5.1969
X4.3307Y-3.3858
X4.3307Y-4.7441
X4.3307Y-5.187
X4.3406Y-4.3996
X4.3701Y-3.5433
X4.3996Y-4.5965
X4.4291Y-4.2815
X4.4488Y-1.6929
X4.4488Y-2.126
X4.4488Y-2.3228
X4.4488Y-2.5197
X4.4488Y-2.7165
X4.4488Y-2.9134
X4.4488Y-3.2677
X4.4587Y-3.6614
X4.5079Y-3.6614
X4.5276Y-1.8701
X4.5276Y-2.2441
X4.5571Y-3.6516
X4.5669Y-2.0866
X4.5669Y-2.5591
X4.5669Y-2.7559
X4.5669Y-2.9528
X4.5669Y-3.1496
X4.5669Y-3.5827
X4.6161Y-2.2638
X4.6161Y-2.3228
X4.6161Y-2.5787
X4.6161Y-4.9705
X4.6358Y-2.4409
X4.6457Y-2.9921
X4.6457Y-3.0709
X4.6457Y-3.5433
X4.6457Y-4.9409
X4.6654Y-2.2638
X4.6654Y-2.6181
X4.685Y-3.189
X4.685Y-3.8386
X4.6949Y-4.2913
X4.7146Y-4.7835
X4.7244Y-2.0965
X4.7244Y-4.3898
X4.7244Y-4.5472
X4.7539Y-2.372
X4.7539Y-2.5098
X4.7539Y-2.6181
X4.7539Y-2.7756
X4.7638Y-2.2638
X4.7638Y-3.3465
X4.7638Y-3.4646
X4.8031Y-2.7756
X4.8327Y-2.6181
X4.8425Y-2.2638
X4.8425Y-3.0709
X4.8425Y-4.8327
X4.8819Y-2.372
X4.8819Y-2.5098
X4.8819Y-2.6181
X4.9016Y-2.2638
X4.9213Y-3.1102
X4.9213Y-3.5433
X4.9311Y-2.6181
X4.9606Y-2.2638
X4.9606Y-2.372
X4.9606Y-2.5098
X4.9803Y-2.6181
X4.9803Y-2.9528
X5.Y-1.7323
X5.0197Y-2.2638
X5.0295Y-2.372
X5.0295Y-2.5098
X5.0295Y-2.6181
X5.0394Y-3.2283
X5.0394Y-3.4252
X5.0394Y-4.5669
X5.0394Y-5.0787
X5.0591Y-3.6909
X5.0689Y-4.9803
X5.0787Y-1.6535
X5.0787Y-2.2638
X5.0787Y-4.4882
X5.0886Y-2.6181
X5.1083Y-4.8524
X5.1181Y-1.8504
X5.1181Y-1.9291
X5.1181Y-2.815
X5.1181Y-3.0315
X5.128Y-2.4409
X5.1378Y-4.2323
X5.1476Y-2.2835
X5.1476Y-2.3228
X5.1476Y-2.5591
X5.1476Y-2.6181
X5.1575Y-3.1496
X5.1575Y-3.3465
X5.1575Y-3.5039
X5.1575Y-4.5965
X5.1772Y-4.5669
X5.1772Y-5.128
X5.1969Y-2.1654
X5.2362Y-2.0079
X5.2362Y-2.6772
X5.2362Y-4.9213
X5.2559Y-4.685
X5.2559Y-4.7933
X5.2756Y-2.4409
X5.2756Y-3.2283
X5.2756Y-3.4252
X5.2756Y-3.5827
X5.315Y-3.0315
X5.3543Y-2.1654
X5.3543Y-2.3228
X5.3543Y-2.5591
X5.3642Y-4.9016
X5.3642Y-5.1969
X5.3937Y-1.8504
X5.3937Y-2.7559
X5.3937Y-3.1102
X5.3937Y-3.3071
X5.3937Y-3.5039
X5.3937Y-4.6654
X5.4035Y-4.4094
X5.4035Y-4.5571
X5.4035Y-4.9016
X5.4331Y-4.5374
X5.4331Y-5.3543
X5.4429Y-4.6654
X5.4626Y-4.5571
X5.4724Y-2.5984
X5.4823Y-4.685
X5.4921Y-4.8425
X5.4921Y-4.8819
X5.4921Y-4.9213
X5.5118Y-1.9685
X5.5118Y-2.4016
X5.5118Y-3.0315
X5.5118Y-4.2028
X5.5217Y-4.439
X5.5512Y-3.189
X5.5512Y-3.3858
X5.5512Y-3.5827
X5.5512Y-5.3543
X5.5906Y-1.7717
X5.5906Y-2.126
X5.5906Y-2.2835
X5.5906Y-2.9528
X5.6004Y-3.7205
X5.6299Y-2.4409
X5.6299Y-3.0709
X5.6299Y-3.2677
X5.6693Y-2.7165
X5.6693Y-4.1732
X5.6693Y-5.3543
X5.7087Y-1.9291
X5.7087Y-2.9921
X5.7087Y-3.3465
X5.7087Y-3.5433
X5.7283Y-4.813
X5.7382Y-4.9705
X5.748Y-2.2047
X5.748Y-2.4016
X5.748Y-2.5984
X5.748Y-3.7402
X5.7579Y-5.0591
X5.7677Y-4.1142
X5.7874Y-1.6929
X5.8169Y-4.1929
X5.8268Y-1.811
X5.8268Y-4.6161
X5.8268Y-5.4724
X5.8563Y-3.75
X5.8661Y-5.0197
X5.8957Y-3.75
X5.8957Y-4.1142
X5.8957Y-4.5866
X5.9055Y-1.9685
X5.9154Y-4.6752
X5.9252Y-3.9173
X5.9252Y-5.
X5.9252Y-5.0492
X5.935Y-3.75
X5.9547Y-4.8228
X5.9646Y-2.9134
X5.9744Y-3.75
X5.9744Y-4.1732
X5.9744Y-4.7343
X5.9843Y-1.7323
X6.0039Y-5.187
X6.0236Y-2.2047
X6.0236Y-2.3622
X6.0236Y-2.4803
X6.0236Y-2.8346
X6.0236Y-3.75
X6.0236Y-4.6949
X6.0236Y-5.4724
X6.0531Y-3.6614
X6.063Y-2.6378
X6.1024Y-1.8898
X6.1024Y-3.622
X6.1024Y-5.1181
X6.1122Y-2.9626
X6.1417Y-2.2441
X6.1417Y-3.3858
X6.1811Y-2.126
X6.2205Y-1.7323
X6.2205Y-2.7559
X6.2205Y-3.4646
X6.2205Y-5.0394
X6.2205Y-5.4724
X6.2598Y-3.3071
X6.3189Y-4.0551
X6.3386Y-2.126
X6.3386Y-2.3622
X6.3386Y-3.5827
X6.3386Y-3.7795
X6.3386Y-5.1181
X6.378Y-1.9291
X6.378Y-3.3071
X6.3878Y-3.9173
X6.3878Y-4.0453
X6.4173Y-2.0079
X6.4173Y-2.8346
X6.4173Y-3.1102
X6.4173Y-5.4724
X6.4567Y-2.2441
X6.4567Y-2.4409
X6.4567Y-2.5591
X6.4567Y-2.7165
X6.4567Y-5.0394
X6.4961Y-3.2283
X6.4961Y-3.4646
X6.4961Y-3.7402
X6.4961Y-5.1181
X6.5354Y-1.9291
X6.5354Y-4.0157
X6.5354Y-4.1732
X6.5748Y-2.0079
X6.5748Y-2.1654
X6.5748Y-2.3622
X6.5748Y-2.5591
X6.5748Y-3.0315
X6.6142Y-2.7165
X6.6142Y-2.8346
X6.6142Y-3.189
X6.6142Y-3.5827
X6.6142Y-3.7795
X6.6142Y-4.252
X6.6142Y-4.9606
X6.6142Y-5.1575
X6.6142Y-5.4724
X6.6535Y-1.9291
X6.6535Y-3.3465
X6.6535Y-4.1339
X6.6634Y-2.2736
X6.6634Y-2.3228
X6.6634Y-2.4409
X6.6929Y-2.6181
X6.6929Y-4.3406
X6.6929Y-4.498
X6.7126Y-2.2638
X6.7323Y-1.811
X6.7323Y-2.0079
X6.7323Y-4.0157
X6.7323Y-5.
X6.7323Y-5.1575
X6.7421Y-2.6181
X6.752Y-5.2953
X6.7618Y-2.2638
X6.7618Y-2.4409
X6.7717Y-1.6929
X6.7717Y-3.0709
X6.7717Y-3.4646
X6.7913Y-2.3524
X6.7913Y-2.5197
X6.7913Y-2.6181
X6.8012Y-2.0965
X6.8012Y-2.7756
X6.811Y-2.2638
X6.811Y-3.3465
X6.811Y-4.2126
X6.811Y-5.1181
X6.811Y-5.4724
X6.8209Y-1.7323
X6.8504Y-1.9291
X6.8504Y-2.6181
X6.8504Y-2.7756
X6.8504Y-3.189
X6.8602Y-2.2638
X6.8701Y-2.3524
X6.8701Y-2.5197
X6.9094Y-2.2638
X6.9094Y-2.6181
X6.9291Y-2.3524
X6.9291Y-2.4409
X6.9291Y-2.5197
X6.9291Y-3.4646
X6.9291Y-4.2126
X6.9587Y-2.2638
X6.9685Y-2.6181
X6.9685Y-3.0709
X6.9783Y-5.2953
X6.998Y-2.3524
X6.998Y-2.5197
X7.0079Y-2.2638
X7.0079Y-3.3465
X7.0079Y-3.5827
X7.0079Y-5.1181
X7.0079Y-5.4724
X7.0276Y-2.6181
X7.0276Y-2.9626
X7.0571Y-2.2638
X7.0866Y-2.3524
X7.0866Y-2.5197
X7.0866Y-2.6181
X7.0866Y-3.189
X7.1063Y-2.2638
X7.126Y-3.0315
X7.126Y-3.4646
X7.1358Y-2.6181
X7.1358Y-2.8346
X7.1555Y-2.2638
X7.1654Y-4.685
X7.1654Y-5.315
X7.185Y-2.6181
X7.185Y-3.622
X7.185Y-3.7894
X7.1949Y-2.313
X7.1949Y-2.4409
X7.1949Y-2.5591
X7.2047Y-2.9134
X7.2047Y-3.3465
X7.2047Y-4.9606
X7.2047Y-5.1575
X7.2047Y-5.4724
X7.2441Y-4.8031
X7.2835Y-3.0315
X7.2835Y-3.189
X7.3228Y-2.7953
X7.3228Y-3.4646
X7.3228Y-3.622
X7.3425Y-1.7323
X7.3622Y-2.9134
X7.3622Y-3.3465
X7.3622Y-4.9213
X7.3622Y-5.1575
X7.3622Y-5.315
X7.4016Y-5.4724
X7.4409Y-2.6378
X7.4606Y-2.126
X7.4803Y-2.8346
X7.4803Y-2.9921
X7.4803Y-3.4252
X7.4803Y-3.5827
X7.4803Y-3.7402
X7.4803Y-5.0394
X7.5197Y-1.6535
X7.5197Y-1.9291
X7.5197Y-3.8976
X7.5984Y-5.315
X7.5984Y-5.4724
X7.6378Y-2.0472
X7.6378Y-2.1654
X7.6378Y-2.3622
X7.6378Y-2.5591
X7.6378Y-2.7559
X7.6378Y-2.9528
X7.6772Y-3.5039
X7.6772Y-3.7008
X7.6772Y-5.1181
X7.7165Y-1.8898
X7.7165Y-3.8976
X7.8346Y-1.8504
X7.8346Y-2.0472
X7.8346Y-2.2441
X7.8346Y-2.4409
X7.8346Y-2.6378
X7.8346Y-2.8346
X7.8346Y-3.0315
X7.8346Y-3.2283
X7.8346Y-3.4252
X7.8346Y-3.6614
X7.8346Y-3.8583
X7.8346Y-4.0551
X7.8346Y-4.252
X7.8346Y-4.4488
X7.8346Y-4.6457
X7.8346Y-4.8425
X7.8346Y-5.0394
X7.8346Y-5.1969
T2
X4.4882Y-4.2126
X5.0689Y-4.6555
X5.0689Y-4.8228
X5.2362Y-5.0886
X5.3445Y-5.0886
X5.3543Y-4.4685
X5.9941Y-4.6555
T3
X4.9016Y-2.0669
X5.2756Y-2.0571
X6.3583Y-3.2087
X6.5453Y-3.3858
X6.9587Y-2.0571
X7.4016Y-2.0571
T4
X6.8996Y-4.7047
X6.8996Y-4.9409
X6.998Y-4.7047
X6.998Y-4.9409
X7.0965Y-4.7047
X7.0965Y-4.9409
T5
X4.0453Y-4.0157
X4.0453Y-4.1157
X4.0453Y-4.2157
X4.0453Y-4.3157
X4.0453Y-4.4157
X4.3819Y-4.0157
X4.4819Y-4.0157
X4.5819Y-4.0157
X4.5965Y-4.2441
X4.5965Y-4.3441
X4.5965Y-4.4441
X4.5965Y-4.5441
X4.5965Y-4.6441
X4.5965Y-4.7441
X4.6819Y-4.0157
X4.7819Y-4.0157
X4.8819Y-4.0157
X4.8917Y-5.0197
X4.8917Y-5.1197
X5.748Y-4.2913
X5.9055Y-4.2913
X6.1319Y-4.6555
X6.9193Y-4.3504
X6.9193Y-4.5079
X6.939Y-4.0339
X6.939Y-4.1339
X7.0193Y-4.3504
X7.0193Y-4.5079
X7.1161Y-4.0339
X7.1161Y-4.1339
X7.1193Y-4.3504
X7.1193Y-4.5079
T6
X4.0945Y-3.0783
X4.0945Y-3.1783
X4.0945Y-3.2783
X4.0945Y-3.3783
X4.0945Y-4.5925
X4.0945Y-4.6925
X4.0945Y-4.7925
X4.0945Y-4.8925
X4.0945Y-4.9925
X4.0945Y-5.0925
X4.3677Y-5.3543
X4.4677Y-5.3543
X4.5677Y-5.3543
X4.6677Y-5.3543
X5.165Y-1.7323
X5.265Y-1.7323
X5.2724Y-4.0551
X5.365Y-1.7323
X5.3724Y-4.0551
X5.465Y-1.7323
X5.4724Y-4.0551
X5.5724Y-4.0551
X5.6724Y-4.0551
X5.8161Y-5.3543
X5.9161Y-5.3543
X6.0917Y-5.3543
X6.1917Y-5.3543
X6.3461Y-1.7323
X6.3673Y-5.3543
X6.437Y-4.4555
X6.437Y-4.5555
X6.437Y-4.6555
X6.437Y-4.7555
X6.437Y-4.8555
X6.4461Y-1.7323
X6.4673Y-5.3543
X6.5461Y-1.7323
X6.6461Y-1.7323
X7.7165Y-3.0783
X7.7165Y-3.1783
X7.7165Y-3.2783
X7.7165Y-3.3783
T7
X4.3911Y-3.0896
X4.3911Y-3.8396
X4.8907Y-3.8396
X5.0163Y-3.8396
X5.1411Y-3.8396
X5.7663Y-3.0896
X5.7663Y-3.8396
X6.0447Y-3.0896
X6.0447Y-3.8396
X6.5443Y-3.8396
X6.6699Y-3.8396
X6.7947Y-3.8396
X7.4199Y-3.0896
X7.4199Y-3.8396
T8
X4.6464Y-1.811
X4.8024Y-1.811
X7.0086Y-1.811
X7.1646Y-1.811
X7.6378Y-4.0559
X7.6378Y-4.2119
X7.6378Y-4.4102
X7.6378Y-4.5662
X7.6378Y-4.7645
X7.6378Y-4.9205
T9
X4.0551Y-1.6929
X4.0551Y-5.3937
X7.7559Y-1.6929
X7.7559Y-5.3937
T0
M30
