G04 #@! TF.FileFunction,Legend,Top*
%FSLAX46Y46*%
G04 Gerber Fmt 4.6, Leading zero omitted, Abs format (unit mm)*
G04 Created by KiCad (PCBNEW 0.201506102247+5730~23~ubuntu15.04.1-product) date mar. 23 juin 2015 23:18:55 CEST*
%MOMM*%
G01*
G04 APERTURE LIST*
%ADD10C,0.100000*%
%ADD11C,0.300000*%
%ADD12C,0.200000*%
%ADD13C,0.150000*%
%ADD14C,0.099060*%
%ADD15C,0.001000*%
%ADD16C,0.254000*%
%ADD17R,1.897380X1.897380*%
%ADD18R,1.899920X1.897380*%
%ADD19R,1.795780X1.897380*%
%ADD20R,2.095500X1.597660*%
%ADD21R,0.398780X1.346200*%
%ADD22R,0.700000X1.300000*%
%ADD23R,2.400300X3.500120*%
%ADD24R,2.400300X4.000500*%
%ADD25R,1.300000X0.700000*%
%ADD26R,2.199640X1.399540*%
%ADD27R,0.450000X0.590000*%
%ADD28R,1.220000X0.910000*%
%ADD29R,1.700000X2.000000*%
%ADD30R,2.032000X2.032000*%
%ADD31O,2.032000X2.032000*%
%ADD32C,5.000000*%
%ADD33O,5.001260X2.999740*%
%ADD34R,1.727200X2.032000*%
%ADD35O,1.727200X2.032000*%
%ADD36R,2.032000X1.727200*%
%ADD37O,2.032000X1.727200*%
%ADD38O,1.800860X3.500120*%
%ADD39O,3.500120X1.800860*%
%ADD40O,2.999740X5.001260*%
%ADD41R,2.235200X2.235200*%
%ADD42R,0.800100X0.800100*%
%ADD43R,0.300000X0.850000*%
%ADD44R,0.850000X0.300000*%
%ADD45R,4.000000X4.000000*%
%ADD46R,3.048000X1.000000*%
%ADD47C,1.800000*%
%ADD48R,0.759460X1.699260*%
%ADD49R,9.999980X6.398260*%
%ADD50R,16.098520X3.398520*%
%ADD51C,2.100000*%
%ADD52R,1.800000X1.200000*%
%ADD53R,1.700000X0.900000*%
G04 APERTURE END LIST*
D10*
D11*
X187142857Y-124107142D02*
X187214286Y-123892856D01*
X187285714Y-123821428D01*
X187428571Y-123749999D01*
X187642857Y-123749999D01*
X187785714Y-123821428D01*
X187857143Y-123892856D01*
X187928571Y-124035714D01*
X187928571Y-124607142D01*
X186428571Y-124607142D01*
X186428571Y-124107142D01*
X186500000Y-123964285D01*
X186571429Y-123892856D01*
X186714286Y-123821428D01*
X186857143Y-123821428D01*
X187000000Y-123892856D01*
X187071429Y-123964285D01*
X187142857Y-124107142D01*
X187142857Y-124607142D01*
X187500000Y-123178571D02*
X187500000Y-122464285D01*
X187928571Y-123321428D02*
X186428571Y-122821428D01*
X187928571Y-122321428D01*
X186428571Y-122035714D02*
X186428571Y-121178571D01*
X187928571Y-121607142D02*
X186428571Y-121607142D01*
X187392857Y-115607142D02*
X187392857Y-115107142D01*
X188178571Y-114892856D02*
X188178571Y-115607142D01*
X186678571Y-115607142D01*
X186678571Y-114892856D01*
X186678571Y-114392856D02*
X188178571Y-113392856D01*
X186678571Y-113392856D02*
X188178571Y-114392856D01*
X186678571Y-113035714D02*
X186678571Y-112178571D01*
X188178571Y-112607142D02*
X186678571Y-112607142D01*
X188178571Y-107928571D02*
X186678571Y-107928571D01*
X186678571Y-107357143D01*
X186750000Y-107214285D01*
X186821429Y-107142857D01*
X186964286Y-107071428D01*
X187178571Y-107071428D01*
X187321429Y-107142857D01*
X187392857Y-107214285D01*
X187464286Y-107357143D01*
X187464286Y-107928571D01*
X187750000Y-106500000D02*
X187750000Y-105785714D01*
X188178571Y-106642857D02*
X186678571Y-106142857D01*
X188178571Y-105642857D01*
X188178571Y-105142857D02*
X186678571Y-105142857D01*
X188178571Y-104285714D01*
X186678571Y-104285714D01*
X188178571Y-103571428D02*
X186678571Y-103571428D01*
X188035714Y-101999999D02*
X188107143Y-102071428D01*
X188178571Y-102285714D01*
X188178571Y-102428571D01*
X188107143Y-102642856D01*
X187964286Y-102785714D01*
X187821429Y-102857142D01*
X187535714Y-102928571D01*
X187321429Y-102928571D01*
X187035714Y-102857142D01*
X186892857Y-102785714D01*
X186750000Y-102642856D01*
X186678571Y-102428571D01*
X186678571Y-102285714D01*
X186750000Y-102071428D01*
X186821429Y-101999999D01*
X191392857Y-84571428D02*
X191392857Y-84071428D01*
X192178571Y-83857142D02*
X192178571Y-84571428D01*
X190678571Y-84571428D01*
X190678571Y-83857142D01*
X192178571Y-83214285D02*
X190678571Y-83214285D01*
X192178571Y-82357142D01*
X190678571Y-82357142D01*
X192035714Y-80785713D02*
X192107143Y-80857142D01*
X192178571Y-81071428D01*
X192178571Y-81214285D01*
X192107143Y-81428570D01*
X191964286Y-81571428D01*
X191821429Y-81642856D01*
X191535714Y-81714285D01*
X191321429Y-81714285D01*
X191035714Y-81642856D01*
X190892857Y-81571428D01*
X190750000Y-81428570D01*
X190678571Y-81214285D01*
X190678571Y-81071428D01*
X190750000Y-80857142D01*
X190821429Y-80785713D01*
X190678571Y-80285713D02*
X190678571Y-79357142D01*
X191250000Y-79857142D01*
X191250000Y-79642856D01*
X191321429Y-79499999D01*
X191392857Y-79428570D01*
X191535714Y-79357142D01*
X191892857Y-79357142D01*
X192035714Y-79428570D01*
X192107143Y-79499999D01*
X192178571Y-79642856D01*
X192178571Y-80071428D01*
X192107143Y-80214285D01*
X192035714Y-80285713D01*
X162428572Y-48642857D02*
X162928572Y-48642857D01*
X163142858Y-49428571D02*
X162428572Y-49428571D01*
X162428572Y-47928571D01*
X163142858Y-47928571D01*
X163785715Y-49428571D02*
X163785715Y-47928571D01*
X164642858Y-49428571D01*
X164642858Y-47928571D01*
X166214287Y-49285714D02*
X166142858Y-49357143D01*
X165928572Y-49428571D01*
X165785715Y-49428571D01*
X165571430Y-49357143D01*
X165428572Y-49214286D01*
X165357144Y-49071429D01*
X165285715Y-48785714D01*
X165285715Y-48571429D01*
X165357144Y-48285714D01*
X165428572Y-48142857D01*
X165571430Y-48000000D01*
X165785715Y-47928571D01*
X165928572Y-47928571D01*
X166142858Y-48000000D01*
X166214287Y-48071429D01*
X166785715Y-48071429D02*
X166857144Y-48000000D01*
X167000001Y-47928571D01*
X167357144Y-47928571D01*
X167500001Y-48000000D01*
X167571430Y-48071429D01*
X167642858Y-48214286D01*
X167642858Y-48357143D01*
X167571430Y-48571429D01*
X166714287Y-49428571D01*
X167642858Y-49428571D01*
X175285714Y-53678571D02*
X175285714Y-52178571D01*
X175785714Y-53250000D01*
X176285714Y-52178571D01*
X176285714Y-53678571D01*
X177285714Y-52178571D02*
X177571428Y-52178571D01*
X177714286Y-52250000D01*
X177857143Y-52392857D01*
X177928571Y-52678571D01*
X177928571Y-53178571D01*
X177857143Y-53464286D01*
X177714286Y-53607143D01*
X177571428Y-53678571D01*
X177285714Y-53678571D01*
X177142857Y-53607143D01*
X177000000Y-53464286D01*
X176928571Y-53178571D01*
X176928571Y-52678571D01*
X177000000Y-52392857D01*
X177142857Y-52250000D01*
X177285714Y-52178571D01*
X178357143Y-52178571D02*
X179214286Y-52178571D01*
X178785715Y-53678571D02*
X178785715Y-52178571D01*
X180000000Y-52178571D02*
X180285714Y-52178571D01*
X180428572Y-52250000D01*
X180571429Y-52392857D01*
X180642857Y-52678571D01*
X180642857Y-53178571D01*
X180571429Y-53464286D01*
X180428572Y-53607143D01*
X180285714Y-53678571D01*
X180000000Y-53678571D01*
X179857143Y-53607143D01*
X179714286Y-53464286D01*
X179642857Y-53178571D01*
X179642857Y-52678571D01*
X179714286Y-52392857D01*
X179857143Y-52250000D01*
X180000000Y-52178571D01*
X182142858Y-53678571D02*
X181642858Y-52964286D01*
X181285715Y-53678571D02*
X181285715Y-52178571D01*
X181857143Y-52178571D01*
X182000001Y-52250000D01*
X182071429Y-52321429D01*
X182142858Y-52464286D01*
X182142858Y-52678571D01*
X182071429Y-52821429D01*
X182000001Y-52892857D01*
X181857143Y-52964286D01*
X181285715Y-52964286D01*
X182428572Y-53821429D02*
X183571429Y-53821429D01*
X184785715Y-53678571D02*
X184285715Y-52964286D01*
X183928572Y-53678571D02*
X183928572Y-52178571D01*
X184500000Y-52178571D01*
X184642858Y-52250000D01*
X184714286Y-52321429D01*
X184785715Y-52464286D01*
X184785715Y-52678571D01*
X184714286Y-52821429D01*
X184642858Y-52892857D01*
X184500000Y-52964286D01*
X183928572Y-52964286D01*
X115428571Y-53678571D02*
X115428571Y-52178571D01*
X115928571Y-53250000D01*
X116428571Y-52178571D01*
X116428571Y-53678571D01*
X117428571Y-52178571D02*
X117714285Y-52178571D01*
X117857143Y-52250000D01*
X118000000Y-52392857D01*
X118071428Y-52678571D01*
X118071428Y-53178571D01*
X118000000Y-53464286D01*
X117857143Y-53607143D01*
X117714285Y-53678571D01*
X117428571Y-53678571D01*
X117285714Y-53607143D01*
X117142857Y-53464286D01*
X117071428Y-53178571D01*
X117071428Y-52678571D01*
X117142857Y-52392857D01*
X117285714Y-52250000D01*
X117428571Y-52178571D01*
X118500000Y-52178571D02*
X119357143Y-52178571D01*
X118928572Y-53678571D02*
X118928572Y-52178571D01*
X120142857Y-52178571D02*
X120428571Y-52178571D01*
X120571429Y-52250000D01*
X120714286Y-52392857D01*
X120785714Y-52678571D01*
X120785714Y-53178571D01*
X120714286Y-53464286D01*
X120571429Y-53607143D01*
X120428571Y-53678571D01*
X120142857Y-53678571D01*
X120000000Y-53607143D01*
X119857143Y-53464286D01*
X119785714Y-53178571D01*
X119785714Y-52678571D01*
X119857143Y-52392857D01*
X120000000Y-52250000D01*
X120142857Y-52178571D01*
X122285715Y-53678571D02*
X121785715Y-52964286D01*
X121428572Y-53678571D02*
X121428572Y-52178571D01*
X122000000Y-52178571D01*
X122142858Y-52250000D01*
X122214286Y-52321429D01*
X122285715Y-52464286D01*
X122285715Y-52678571D01*
X122214286Y-52821429D01*
X122142858Y-52892857D01*
X122000000Y-52964286D01*
X121428572Y-52964286D01*
X122571429Y-53821429D02*
X123714286Y-53821429D01*
X124785715Y-53678571D02*
X124071429Y-53678571D01*
X124071429Y-52178571D01*
X132428572Y-48642857D02*
X132928572Y-48642857D01*
X133142858Y-49428571D02*
X132428572Y-49428571D01*
X132428572Y-47928571D01*
X133142858Y-47928571D01*
X133785715Y-49428571D02*
X133785715Y-47928571D01*
X134642858Y-49428571D01*
X134642858Y-47928571D01*
X136214287Y-49285714D02*
X136142858Y-49357143D01*
X135928572Y-49428571D01*
X135785715Y-49428571D01*
X135571430Y-49357143D01*
X135428572Y-49214286D01*
X135357144Y-49071429D01*
X135285715Y-48785714D01*
X135285715Y-48571429D01*
X135357144Y-48285714D01*
X135428572Y-48142857D01*
X135571430Y-48000000D01*
X135785715Y-47928571D01*
X135928572Y-47928571D01*
X136142858Y-48000000D01*
X136214287Y-48071429D01*
X136714287Y-47928571D02*
X137642858Y-47928571D01*
X137142858Y-48500000D01*
X137357144Y-48500000D01*
X137500001Y-48571429D01*
X137571430Y-48642857D01*
X137642858Y-48785714D01*
X137642858Y-49142857D01*
X137571430Y-49285714D01*
X137500001Y-49357143D01*
X137357144Y-49428571D01*
X136928572Y-49428571D01*
X136785715Y-49357143D01*
X136714287Y-49285714D01*
X108392857Y-84571428D02*
X108392857Y-84071428D01*
X109178571Y-83857142D02*
X109178571Y-84571428D01*
X107678571Y-84571428D01*
X107678571Y-83857142D01*
X109178571Y-83214285D02*
X107678571Y-83214285D01*
X109178571Y-82357142D01*
X107678571Y-82357142D01*
X109035714Y-80785713D02*
X109107143Y-80857142D01*
X109178571Y-81071428D01*
X109178571Y-81214285D01*
X109107143Y-81428570D01*
X108964286Y-81571428D01*
X108821429Y-81642856D01*
X108535714Y-81714285D01*
X108321429Y-81714285D01*
X108035714Y-81642856D01*
X107892857Y-81571428D01*
X107750000Y-81428570D01*
X107678571Y-81214285D01*
X107678571Y-81071428D01*
X107750000Y-80857142D01*
X107821429Y-80785713D01*
X109178571Y-79357142D02*
X109178571Y-80214285D01*
X109178571Y-79785713D02*
X107678571Y-79785713D01*
X107892857Y-79928570D01*
X108035714Y-80071428D01*
X108107143Y-80214285D01*
D12*
X102600000Y-99900000D02*
X102600000Y-99800000D01*
X103000000Y-99900000D02*
X102600000Y-99900000D01*
X103200000Y-99700000D02*
X102400000Y-99700000D01*
X103600000Y-99500000D02*
X102100000Y-99500000D01*
X103700000Y-99400000D02*
X102000000Y-99400000D01*
X102750000Y-100250000D02*
X103750000Y-99250000D01*
X101750000Y-99250000D02*
X102000000Y-99500000D01*
X102000000Y-99500000D02*
X101750000Y-99250000D01*
X102750000Y-100250000D02*
X102000000Y-99500000D01*
X103250000Y-99500000D02*
X102250000Y-99500000D01*
X102750000Y-100000000D02*
X103250000Y-99500000D01*
X102250000Y-99500000D02*
X102750000Y-100000000D01*
X101500000Y-99250000D02*
X102750000Y-100500000D01*
X104000000Y-99250000D02*
X101500000Y-99250000D01*
X102750000Y-100500000D02*
X104000000Y-99250000D01*
D11*
X119142857Y-117535713D02*
X119142857Y-118035713D01*
X119928571Y-118035713D02*
X118428571Y-118035713D01*
X118428571Y-117321427D01*
X118428571Y-116964285D02*
X118428571Y-116107142D01*
X119928571Y-116535713D02*
X118428571Y-116535713D01*
X119928571Y-115607142D02*
X118428571Y-115607142D01*
X118428571Y-115249999D01*
X118500000Y-115035714D01*
X118642857Y-114892856D01*
X118785714Y-114821428D01*
X119071429Y-114749999D01*
X119285714Y-114749999D01*
X119571429Y-114821428D01*
X119714286Y-114892856D01*
X119857143Y-115035714D01*
X119928571Y-115249999D01*
X119928571Y-115607142D01*
X119928571Y-114107142D02*
X118428571Y-114107142D01*
X118428571Y-113535713D02*
X118428571Y-112607142D01*
X119000000Y-113107142D01*
X119000000Y-112892856D01*
X119071429Y-112749999D01*
X119142857Y-112678570D01*
X119285714Y-112607142D01*
X119642857Y-112607142D01*
X119785714Y-112678570D01*
X119857143Y-112749999D01*
X119928571Y-112892856D01*
X119928571Y-113321428D01*
X119857143Y-113464285D01*
X119785714Y-113535713D01*
X118428571Y-112178571D02*
X119928571Y-111678571D01*
X118428571Y-111178571D01*
X118428571Y-110821428D02*
X118428571Y-109892857D01*
X119000000Y-110392857D01*
X119000000Y-110178571D01*
X119071429Y-110035714D01*
X119142857Y-109964285D01*
X119285714Y-109892857D01*
X119642857Y-109892857D01*
X119785714Y-109964285D01*
X119857143Y-110035714D01*
X119928571Y-110178571D01*
X119928571Y-110607143D01*
X119857143Y-110750000D01*
X119785714Y-110821428D01*
X108214286Y-122357143D02*
X108428572Y-122428571D01*
X108785715Y-122428571D01*
X108928572Y-122357143D01*
X109000001Y-122285714D01*
X109071429Y-122142857D01*
X109071429Y-122000000D01*
X109000001Y-121857143D01*
X108928572Y-121785714D01*
X108785715Y-121714286D01*
X108500001Y-121642857D01*
X108357143Y-121571429D01*
X108285715Y-121500000D01*
X108214286Y-121357143D01*
X108214286Y-121214286D01*
X108285715Y-121071429D01*
X108357143Y-121000000D01*
X108500001Y-120928571D01*
X108857143Y-120928571D01*
X109071429Y-121000000D01*
X110571429Y-122285714D02*
X110500000Y-122357143D01*
X110285714Y-122428571D01*
X110142857Y-122428571D01*
X109928572Y-122357143D01*
X109785714Y-122214286D01*
X109714286Y-122071429D01*
X109642857Y-121785714D01*
X109642857Y-121571429D01*
X109714286Y-121285714D01*
X109785714Y-121142857D01*
X109928572Y-121000000D01*
X110142857Y-120928571D01*
X110285714Y-120928571D01*
X110500000Y-121000000D01*
X110571429Y-121071429D01*
X111928572Y-122428571D02*
X111214286Y-122428571D01*
X111214286Y-120928571D01*
X108178572Y-119857143D02*
X108392858Y-119928571D01*
X108750001Y-119928571D01*
X108892858Y-119857143D01*
X108964287Y-119785714D01*
X109035715Y-119642857D01*
X109035715Y-119500000D01*
X108964287Y-119357143D01*
X108892858Y-119285714D01*
X108750001Y-119214286D01*
X108464287Y-119142857D01*
X108321429Y-119071429D01*
X108250001Y-119000000D01*
X108178572Y-118857143D01*
X108178572Y-118714286D01*
X108250001Y-118571429D01*
X108321429Y-118500000D01*
X108464287Y-118428571D01*
X108821429Y-118428571D01*
X109035715Y-118500000D01*
X109678572Y-119928571D02*
X109678572Y-118428571D01*
X110035715Y-118428571D01*
X110250000Y-118500000D01*
X110392858Y-118642857D01*
X110464286Y-118785714D01*
X110535715Y-119071429D01*
X110535715Y-119285714D01*
X110464286Y-119571429D01*
X110392858Y-119714286D01*
X110250000Y-119857143D01*
X110035715Y-119928571D01*
X109678572Y-119928571D01*
X111107143Y-119500000D02*
X111821429Y-119500000D01*
X110964286Y-119928571D02*
X111464286Y-118428571D01*
X111964286Y-119928571D01*
X108857143Y-115750000D02*
X108714286Y-115678571D01*
X108500000Y-115678571D01*
X108285715Y-115750000D01*
X108142857Y-115892857D01*
X108071429Y-116035714D01*
X108000000Y-116321429D01*
X108000000Y-116535714D01*
X108071429Y-116821429D01*
X108142857Y-116964286D01*
X108285715Y-117107143D01*
X108500000Y-117178571D01*
X108642857Y-117178571D01*
X108857143Y-117107143D01*
X108928572Y-117035714D01*
X108928572Y-116535714D01*
X108642857Y-116535714D01*
X109571429Y-117178571D02*
X109571429Y-115678571D01*
X110428572Y-117178571D01*
X110428572Y-115678571D01*
X111142858Y-117178571D02*
X111142858Y-115678571D01*
X111500001Y-115678571D01*
X111714286Y-115750000D01*
X111857144Y-115892857D01*
X111928572Y-116035714D01*
X112000001Y-116321429D01*
X112000001Y-116535714D01*
X111928572Y-116821429D01*
X111857144Y-116964286D01*
X111714286Y-117107143D01*
X111500001Y-117178571D01*
X111142858Y-117178571D01*
X107678573Y-126678571D02*
X107678573Y-124535714D01*
X108607144Y-124678571D02*
X109535715Y-124678571D01*
X109035715Y-125250000D01*
X109250001Y-125250000D01*
X109392858Y-125321429D01*
X109464287Y-125392857D01*
X109535715Y-125535714D01*
X109535715Y-125892857D01*
X109464287Y-126035714D01*
X109392858Y-126107143D01*
X109250001Y-126178571D01*
X108821429Y-126178571D01*
X108678572Y-126107143D01*
X108607144Y-126035714D01*
X109964286Y-124678571D02*
X110464286Y-126178571D01*
X110964286Y-124678571D01*
X111321429Y-124678571D02*
X112250000Y-124678571D01*
X111750000Y-125250000D01*
X111964286Y-125250000D01*
X112107143Y-125321429D01*
X112178572Y-125392857D01*
X112250000Y-125535714D01*
X112250000Y-125892857D01*
X112178572Y-126035714D01*
X112107143Y-126107143D01*
X111964286Y-126178571D01*
X111535714Y-126178571D01*
X111392857Y-126107143D01*
X111321429Y-126035714D01*
X107642858Y-129178571D02*
X107642858Y-127035714D01*
X109428572Y-127178571D02*
X108714286Y-127178571D01*
X108642857Y-127892857D01*
X108714286Y-127821429D01*
X108857143Y-127750000D01*
X109214286Y-127750000D01*
X109357143Y-127821429D01*
X109428572Y-127892857D01*
X109500000Y-128035714D01*
X109500000Y-128392857D01*
X109428572Y-128535714D01*
X109357143Y-128607143D01*
X109214286Y-128678571D01*
X108857143Y-128678571D01*
X108714286Y-128607143D01*
X108642857Y-128535714D01*
X109928571Y-127178571D02*
X110428571Y-128678571D01*
X110928571Y-127178571D01*
X102785715Y-132928571D02*
X102785715Y-131428571D01*
X103428572Y-131571429D02*
X103500001Y-131500000D01*
X103642858Y-131428571D01*
X104000001Y-131428571D01*
X104142858Y-131500000D01*
X104214287Y-131571429D01*
X104285715Y-131714286D01*
X104285715Y-131857143D01*
X104214287Y-132071429D01*
X103357144Y-132928571D01*
X104285715Y-132928571D01*
X105785715Y-132785714D02*
X105714286Y-132857143D01*
X105500000Y-132928571D01*
X105357143Y-132928571D01*
X105142858Y-132857143D01*
X105000000Y-132714286D01*
X104928572Y-132571429D01*
X104857143Y-132285714D01*
X104857143Y-132071429D01*
X104928572Y-131785714D01*
X105000000Y-131642857D01*
X105142858Y-131500000D01*
X105357143Y-131428571D01*
X105500000Y-131428571D01*
X105714286Y-131500000D01*
X105785715Y-131571429D01*
X107178571Y-139107142D02*
X108392857Y-139107142D01*
X108535714Y-139035714D01*
X108607143Y-138964285D01*
X108678571Y-138821428D01*
X108678571Y-138535714D01*
X108607143Y-138392856D01*
X108535714Y-138321428D01*
X108392857Y-138249999D01*
X107178571Y-138249999D01*
X108250000Y-137607142D02*
X108250000Y-136892856D01*
X108678571Y-137749999D02*
X107178571Y-137249999D01*
X108678571Y-136749999D01*
X108678571Y-135392856D02*
X107964286Y-135892856D01*
X108678571Y-136249999D02*
X107178571Y-136249999D01*
X107178571Y-135678571D01*
X107250000Y-135535713D01*
X107321429Y-135464285D01*
X107464286Y-135392856D01*
X107678571Y-135392856D01*
X107821429Y-135464285D01*
X107892857Y-135535713D01*
X107964286Y-135678571D01*
X107964286Y-136249999D01*
X107178571Y-134964285D02*
X107178571Y-134107142D01*
X108678571Y-134535713D02*
X107178571Y-134535713D01*
X108678571Y-132821428D02*
X108678571Y-133678571D01*
X108678571Y-133249999D02*
X107178571Y-133249999D01*
X107392857Y-133392856D01*
X107535714Y-133535714D01*
X107607143Y-133678571D01*
X160714286Y-131142857D02*
X160928572Y-131214286D01*
X161000000Y-131285714D01*
X161071429Y-131428571D01*
X161071429Y-131642857D01*
X161000000Y-131785714D01*
X160928572Y-131857143D01*
X160785714Y-131928571D01*
X160214286Y-131928571D01*
X160214286Y-130428571D01*
X160714286Y-130428571D01*
X160857143Y-130500000D01*
X160928572Y-130571429D01*
X161000000Y-130714286D01*
X161000000Y-130857143D01*
X160928572Y-131000000D01*
X160857143Y-131071429D01*
X160714286Y-131142857D01*
X160214286Y-131142857D01*
X161714286Y-131928571D02*
X161714286Y-130928571D01*
X161714286Y-131071429D02*
X161785714Y-131000000D01*
X161928572Y-130928571D01*
X162142857Y-130928571D01*
X162285714Y-131000000D01*
X162357143Y-131142857D01*
X162357143Y-131928571D01*
X162357143Y-131142857D02*
X162428572Y-131000000D01*
X162571429Y-130928571D01*
X162785714Y-130928571D01*
X162928572Y-131000000D01*
X163000000Y-131142857D01*
X163000000Y-131928571D01*
X163714286Y-130928571D02*
X163714286Y-132428571D01*
X163714286Y-131000000D02*
X163857143Y-130928571D01*
X164142857Y-130928571D01*
X164285714Y-131000000D01*
X164357143Y-131071429D01*
X164428572Y-131214286D01*
X164428572Y-131642857D01*
X164357143Y-131785714D01*
X164285714Y-131857143D01*
X164142857Y-131928571D01*
X163857143Y-131928571D01*
X163714286Y-131857143D01*
X165000000Y-130571429D02*
X165071429Y-130500000D01*
X165214286Y-130428571D01*
X165571429Y-130428571D01*
X165714286Y-130500000D01*
X165785715Y-130571429D01*
X165857143Y-130714286D01*
X165857143Y-130857143D01*
X165785715Y-131071429D01*
X164928572Y-131928571D01*
X165857143Y-131928571D01*
X153714286Y-131142857D02*
X153928572Y-131214286D01*
X154000000Y-131285714D01*
X154071429Y-131428571D01*
X154071429Y-131642857D01*
X154000000Y-131785714D01*
X153928572Y-131857143D01*
X153785714Y-131928571D01*
X153214286Y-131928571D01*
X153214286Y-130428571D01*
X153714286Y-130428571D01*
X153857143Y-130500000D01*
X153928572Y-130571429D01*
X154000000Y-130714286D01*
X154000000Y-130857143D01*
X153928572Y-131000000D01*
X153857143Y-131071429D01*
X153714286Y-131142857D01*
X153214286Y-131142857D01*
X154714286Y-131928571D02*
X154714286Y-130928571D01*
X154714286Y-131071429D02*
X154785714Y-131000000D01*
X154928572Y-130928571D01*
X155142857Y-130928571D01*
X155285714Y-131000000D01*
X155357143Y-131142857D01*
X155357143Y-131928571D01*
X155357143Y-131142857D02*
X155428572Y-131000000D01*
X155571429Y-130928571D01*
X155785714Y-130928571D01*
X155928572Y-131000000D01*
X156000000Y-131142857D01*
X156000000Y-131928571D01*
X156714286Y-130928571D02*
X156714286Y-132428571D01*
X156714286Y-131000000D02*
X156857143Y-130928571D01*
X157142857Y-130928571D01*
X157285714Y-131000000D01*
X157357143Y-131071429D01*
X157428572Y-131214286D01*
X157428572Y-131642857D01*
X157357143Y-131785714D01*
X157285714Y-131857143D01*
X157142857Y-131928571D01*
X156857143Y-131928571D01*
X156714286Y-131857143D01*
X158857143Y-131928571D02*
X158000000Y-131928571D01*
X158428572Y-131928571D02*
X158428572Y-130428571D01*
X158285715Y-130642857D01*
X158142857Y-130785714D01*
X158000000Y-130857143D01*
X146571429Y-131857143D02*
X146785715Y-131928571D01*
X147142858Y-131928571D01*
X147285715Y-131857143D01*
X147357144Y-131785714D01*
X147428572Y-131642857D01*
X147428572Y-131500000D01*
X147357144Y-131357143D01*
X147285715Y-131285714D01*
X147142858Y-131214286D01*
X146857144Y-131142857D01*
X146714286Y-131071429D01*
X146642858Y-131000000D01*
X146571429Y-130857143D01*
X146571429Y-130714286D01*
X146642858Y-130571429D01*
X146714286Y-130500000D01*
X146857144Y-130428571D01*
X147214286Y-130428571D01*
X147428572Y-130500000D01*
X147857143Y-130928571D02*
X148428572Y-130928571D01*
X148071429Y-130428571D02*
X148071429Y-131714286D01*
X148142857Y-131857143D01*
X148285715Y-131928571D01*
X148428572Y-131928571D01*
X149571429Y-131928571D02*
X149571429Y-131142857D01*
X149500000Y-131000000D01*
X149357143Y-130928571D01*
X149071429Y-130928571D01*
X148928572Y-131000000D01*
X149571429Y-131857143D02*
X149428572Y-131928571D01*
X149071429Y-131928571D01*
X148928572Y-131857143D01*
X148857143Y-131714286D01*
X148857143Y-131571429D01*
X148928572Y-131428571D01*
X149071429Y-131357143D01*
X149428572Y-131357143D01*
X149571429Y-131285714D01*
X150285715Y-131928571D02*
X150285715Y-130928571D01*
X150285715Y-131214286D02*
X150357143Y-131071429D01*
X150428572Y-131000000D01*
X150571429Y-130928571D01*
X150714286Y-130928571D01*
X151000000Y-130928571D02*
X151571429Y-130928571D01*
X151214286Y-130428571D02*
X151214286Y-131714286D01*
X151285714Y-131857143D01*
X151428572Y-131928571D01*
X151571429Y-131928571D01*
X105392858Y-97178571D02*
X106321429Y-97178571D01*
X105821429Y-97750000D01*
X106035715Y-97750000D01*
X106178572Y-97821429D01*
X106250001Y-97892857D01*
X106321429Y-98035714D01*
X106321429Y-98392857D01*
X106250001Y-98535714D01*
X106178572Y-98607143D01*
X106035715Y-98678571D01*
X105607143Y-98678571D01*
X105464286Y-98607143D01*
X105392858Y-98535714D01*
X106750000Y-97178571D02*
X107250000Y-98678571D01*
X107750000Y-97178571D01*
X108107143Y-97178571D02*
X109035714Y-97178571D01*
X108535714Y-97750000D01*
X108750000Y-97750000D01*
X108892857Y-97821429D01*
X108964286Y-97892857D01*
X109035714Y-98035714D01*
X109035714Y-98392857D01*
X108964286Y-98535714D01*
X108892857Y-98607143D01*
X108750000Y-98678571D01*
X108321428Y-98678571D01*
X108178571Y-98607143D01*
X108107143Y-98535714D01*
X106214287Y-94178571D02*
X105500001Y-94178571D01*
X105428572Y-94892857D01*
X105500001Y-94821429D01*
X105642858Y-94750000D01*
X106000001Y-94750000D01*
X106142858Y-94821429D01*
X106214287Y-94892857D01*
X106285715Y-95035714D01*
X106285715Y-95392857D01*
X106214287Y-95535714D01*
X106142858Y-95607143D01*
X106000001Y-95678571D01*
X105642858Y-95678571D01*
X105500001Y-95607143D01*
X105428572Y-95535714D01*
X106714286Y-94178571D02*
X107214286Y-95678571D01*
X107714286Y-94178571D01*
X105392858Y-92607143D02*
X105607144Y-92678571D01*
X105964287Y-92678571D01*
X106107144Y-92607143D01*
X106178573Y-92535714D01*
X106250001Y-92392857D01*
X106250001Y-92250000D01*
X106178573Y-92107143D01*
X106107144Y-92035714D01*
X105964287Y-91964286D01*
X105678573Y-91892857D01*
X105535715Y-91821429D01*
X105464287Y-91750000D01*
X105392858Y-91607143D01*
X105392858Y-91464286D01*
X105464287Y-91321429D01*
X105535715Y-91250000D01*
X105678573Y-91178571D01*
X106035715Y-91178571D01*
X106250001Y-91250000D01*
X107464286Y-92607143D02*
X107321429Y-92678571D01*
X107035715Y-92678571D01*
X106892858Y-92607143D01*
X106821429Y-92464286D01*
X106821429Y-91892857D01*
X106892858Y-91750000D01*
X107035715Y-91678571D01*
X107321429Y-91678571D01*
X107464286Y-91750000D01*
X107535715Y-91892857D01*
X107535715Y-92035714D01*
X106821429Y-92178571D01*
X108178572Y-92678571D02*
X108178572Y-91678571D01*
X108178572Y-91964286D02*
X108250000Y-91821429D01*
X108321429Y-91750000D01*
X108464286Y-91678571D01*
X108607143Y-91678571D01*
X108964286Y-91678571D02*
X109321429Y-92678571D01*
X109678571Y-91678571D01*
X106000000Y-88892857D02*
X106214286Y-88964286D01*
X106285714Y-89035714D01*
X106357143Y-89178571D01*
X106357143Y-89392857D01*
X106285714Y-89535714D01*
X106214286Y-89607143D01*
X106071428Y-89678571D01*
X105500000Y-89678571D01*
X105500000Y-88178571D01*
X106000000Y-88178571D01*
X106142857Y-88250000D01*
X106214286Y-88321429D01*
X106285714Y-88464286D01*
X106285714Y-88607143D01*
X106214286Y-88750000D01*
X106142857Y-88821429D01*
X106000000Y-88892857D01*
X105500000Y-88892857D01*
X107642857Y-89678571D02*
X107642857Y-88892857D01*
X107571428Y-88750000D01*
X107428571Y-88678571D01*
X107142857Y-88678571D01*
X107000000Y-88750000D01*
X107642857Y-89607143D02*
X107500000Y-89678571D01*
X107142857Y-89678571D01*
X107000000Y-89607143D01*
X106928571Y-89464286D01*
X106928571Y-89321429D01*
X107000000Y-89178571D01*
X107142857Y-89107143D01*
X107500000Y-89107143D01*
X107642857Y-89035714D01*
X108142857Y-88678571D02*
X108714286Y-88678571D01*
X108357143Y-88178571D02*
X108357143Y-89464286D01*
X108428571Y-89607143D01*
X108571429Y-89678571D01*
X108714286Y-89678571D01*
X139714288Y-59335714D02*
X139642859Y-59407143D01*
X139428573Y-59478571D01*
X139285716Y-59478571D01*
X139071431Y-59407143D01*
X138928573Y-59264286D01*
X138857145Y-59121429D01*
X138785716Y-58835714D01*
X138785716Y-58621429D01*
X138857145Y-58335714D01*
X138928573Y-58192857D01*
X139071431Y-58050000D01*
X139285716Y-57978571D01*
X139428573Y-57978571D01*
X139642859Y-58050000D01*
X139714288Y-58121429D01*
X140571431Y-59478571D02*
X140428573Y-59407143D01*
X140357145Y-59335714D01*
X140285716Y-59192857D01*
X140285716Y-58764286D01*
X140357145Y-58621429D01*
X140428573Y-58550000D01*
X140571431Y-58478571D01*
X140785716Y-58478571D01*
X140928573Y-58550000D01*
X141000002Y-58621429D01*
X141071431Y-58764286D01*
X141071431Y-59192857D01*
X141000002Y-59335714D01*
X140928573Y-59407143D01*
X140785716Y-59478571D01*
X140571431Y-59478571D01*
X141714288Y-58478571D02*
X141714288Y-59478571D01*
X141714288Y-58621429D02*
X141785716Y-58550000D01*
X141928574Y-58478571D01*
X142142859Y-58478571D01*
X142285716Y-58550000D01*
X142357145Y-58692857D01*
X142357145Y-59478571D01*
X142857145Y-58478571D02*
X143428574Y-58478571D01*
X143071431Y-57978571D02*
X143071431Y-59264286D01*
X143142859Y-59407143D01*
X143285717Y-59478571D01*
X143428574Y-59478571D01*
X143928574Y-59478571D02*
X143928574Y-58478571D01*
X143928574Y-58764286D02*
X144000002Y-58621429D01*
X144071431Y-58550000D01*
X144214288Y-58478571D01*
X144357145Y-58478571D01*
X145071431Y-59478571D02*
X144928573Y-59407143D01*
X144857145Y-59335714D01*
X144785716Y-59192857D01*
X144785716Y-58764286D01*
X144857145Y-58621429D01*
X144928573Y-58550000D01*
X145071431Y-58478571D01*
X145285716Y-58478571D01*
X145428573Y-58550000D01*
X145500002Y-58621429D01*
X145571431Y-58764286D01*
X145571431Y-59192857D01*
X145500002Y-59335714D01*
X145428573Y-59407143D01*
X145285716Y-59478571D01*
X145071431Y-59478571D01*
X146428574Y-59478571D02*
X146285716Y-59407143D01*
X146214288Y-59264286D01*
X146214288Y-57978571D01*
X147214288Y-59478571D02*
X147071430Y-59407143D01*
X147000002Y-59264286D01*
X147000002Y-57978571D01*
X148357144Y-59407143D02*
X148214287Y-59478571D01*
X147928573Y-59478571D01*
X147785716Y-59407143D01*
X147714287Y-59264286D01*
X147714287Y-58692857D01*
X147785716Y-58550000D01*
X147928573Y-58478571D01*
X148214287Y-58478571D01*
X148357144Y-58550000D01*
X148428573Y-58692857D01*
X148428573Y-58835714D01*
X147714287Y-58978571D01*
X149071430Y-59478571D02*
X149071430Y-58478571D01*
X149071430Y-58764286D02*
X149142858Y-58621429D01*
X149214287Y-58550000D01*
X149357144Y-58478571D01*
X149500001Y-58478571D01*
X151000001Y-58478571D02*
X151357144Y-59478571D01*
X151714286Y-58478571D01*
X152857143Y-59407143D02*
X152714286Y-59478571D01*
X152428572Y-59478571D01*
X152285715Y-59407143D01*
X152214286Y-59264286D01*
X152214286Y-58692857D01*
X152285715Y-58550000D01*
X152428572Y-58478571D01*
X152714286Y-58478571D01*
X152857143Y-58550000D01*
X152928572Y-58692857D01*
X152928572Y-58835714D01*
X152214286Y-58978571D01*
X153571429Y-59478571D02*
X153571429Y-58478571D01*
X153571429Y-58764286D02*
X153642857Y-58621429D01*
X153714286Y-58550000D01*
X153857143Y-58478571D01*
X154000000Y-58478571D01*
X154500000Y-59335714D02*
X154571428Y-59407143D01*
X154500000Y-59478571D01*
X154428571Y-59407143D01*
X154500000Y-59335714D01*
X154500000Y-59478571D01*
X156642857Y-57978571D02*
X156785714Y-57978571D01*
X156928571Y-58050000D01*
X157000000Y-58121429D01*
X157071429Y-58264286D01*
X157142857Y-58550000D01*
X157142857Y-58907143D01*
X157071429Y-59192857D01*
X157000000Y-59335714D01*
X156928571Y-59407143D01*
X156785714Y-59478571D01*
X156642857Y-59478571D01*
X156500000Y-59407143D01*
X156428571Y-59335714D01*
X156357143Y-59192857D01*
X156285714Y-58907143D01*
X156285714Y-58550000D01*
X156357143Y-58264286D01*
X156428571Y-58121429D01*
X156500000Y-58050000D01*
X156642857Y-57978571D01*
X157642857Y-59478571D02*
X158428571Y-58478571D01*
X157642857Y-58478571D02*
X158428571Y-59478571D01*
X159285714Y-57978571D02*
X159428571Y-57978571D01*
X159571428Y-58050000D01*
X159642857Y-58121429D01*
X159714286Y-58264286D01*
X159785714Y-58550000D01*
X159785714Y-58907143D01*
X159714286Y-59192857D01*
X159642857Y-59335714D01*
X159571428Y-59407143D01*
X159428571Y-59478571D01*
X159285714Y-59478571D01*
X159142857Y-59407143D01*
X159071428Y-59335714D01*
X159000000Y-59192857D01*
X158928571Y-58907143D01*
X158928571Y-58550000D01*
X159000000Y-58264286D01*
X159071428Y-58121429D01*
X159142857Y-58050000D01*
X159285714Y-57978571D01*
X161214285Y-59478571D02*
X160357142Y-59478571D01*
X160785714Y-59478571D02*
X160785714Y-57978571D01*
X160642857Y-58192857D01*
X160499999Y-58335714D01*
X160357142Y-58407143D01*
X144785715Y-60378571D02*
X144785715Y-61450000D01*
X144714287Y-61664286D01*
X144571430Y-61807143D01*
X144357144Y-61878571D01*
X144214287Y-61878571D01*
X146142858Y-60878571D02*
X146142858Y-61878571D01*
X145500001Y-60878571D02*
X145500001Y-61664286D01*
X145571429Y-61807143D01*
X145714287Y-61878571D01*
X145928572Y-61878571D01*
X146071429Y-61807143D01*
X146142858Y-61735714D01*
X146857144Y-60878571D02*
X146857144Y-61878571D01*
X146857144Y-61021429D02*
X146928572Y-60950000D01*
X147071430Y-60878571D01*
X147285715Y-60878571D01*
X147428572Y-60950000D01*
X147500001Y-61092857D01*
X147500001Y-61878571D01*
X148785715Y-61807143D02*
X148642858Y-61878571D01*
X148357144Y-61878571D01*
X148214287Y-61807143D01*
X148142858Y-61664286D01*
X148142858Y-61092857D01*
X148214287Y-60950000D01*
X148357144Y-60878571D01*
X148642858Y-60878571D01*
X148785715Y-60950000D01*
X148857144Y-61092857D01*
X148857144Y-61235714D01*
X148142858Y-61378571D01*
X150571429Y-60521429D02*
X150642858Y-60450000D01*
X150785715Y-60378571D01*
X151142858Y-60378571D01*
X151285715Y-60450000D01*
X151357144Y-60521429D01*
X151428572Y-60664286D01*
X151428572Y-60807143D01*
X151357144Y-61021429D01*
X150500001Y-61878571D01*
X151428572Y-61878571D01*
X152357143Y-60378571D02*
X152500000Y-60378571D01*
X152642857Y-60450000D01*
X152714286Y-60521429D01*
X152785715Y-60664286D01*
X152857143Y-60950000D01*
X152857143Y-61307143D01*
X152785715Y-61592857D01*
X152714286Y-61735714D01*
X152642857Y-61807143D01*
X152500000Y-61878571D01*
X152357143Y-61878571D01*
X152214286Y-61807143D01*
X152142857Y-61735714D01*
X152071429Y-61592857D01*
X152000000Y-61307143D01*
X152000000Y-60950000D01*
X152071429Y-60664286D01*
X152142857Y-60521429D01*
X152214286Y-60450000D01*
X152357143Y-60378571D01*
X154285714Y-61878571D02*
X153428571Y-61878571D01*
X153857143Y-61878571D02*
X153857143Y-60378571D01*
X153714286Y-60592857D01*
X153571428Y-60735714D01*
X153428571Y-60807143D01*
X155642857Y-60378571D02*
X154928571Y-60378571D01*
X154857142Y-61092857D01*
X154928571Y-61021429D01*
X155071428Y-60950000D01*
X155428571Y-60950000D01*
X155571428Y-61021429D01*
X155642857Y-61092857D01*
X155714285Y-61235714D01*
X155714285Y-61592857D01*
X155642857Y-61735714D01*
X155571428Y-61807143D01*
X155428571Y-61878571D01*
X155071428Y-61878571D01*
X154928571Y-61807143D01*
X154857142Y-61735714D01*
D10*
X100000000Y-137000000D02*
X100000000Y-43000000D01*
X197000000Y-140000000D02*
X103000000Y-140000000D01*
X200000000Y-43000000D02*
X200000000Y-137000000D01*
X103000000Y-40000000D02*
X197000000Y-40000000D01*
X200000000Y-43000000D02*
G75*
G03X197000000Y-40000000I-3000000J0D01*
G01*
X103000000Y-40000000D02*
G75*
G03X100000000Y-43000000I0J-3000000D01*
G01*
X100000000Y-137000000D02*
G75*
G03X103000000Y-140000000I3000000J0D01*
G01*
X197000000Y-140000000D02*
G75*
G03X200000000Y-137000000I0J3000000D01*
G01*
D13*
X123500000Y-138750000D02*
X131500000Y-138750000D01*
D14*
X123499500Y-139750760D02*
X123499500Y-139948880D01*
X131500500Y-139750760D02*
X131500500Y-139948880D01*
X123499500Y-134350720D02*
X131500500Y-134350720D01*
X131500500Y-134350720D02*
X131500500Y-139750760D01*
X131500500Y-139948880D02*
X123499500Y-139948880D01*
X123499500Y-139750760D02*
X123499500Y-134350720D01*
D13*
X105900000Y-105625000D02*
X107100000Y-105625000D01*
X107100000Y-107375000D02*
X105900000Y-107375000D01*
X144016000Y-65190000D02*
X141984000Y-65190000D01*
X141603000Y-65317000D02*
X144397000Y-65317000D01*
X144651000Y-65444000D02*
X141349000Y-65444000D01*
X141095000Y-65571000D02*
X144905000Y-65571000D01*
X140968000Y-65698000D02*
X145032000Y-65698000D01*
X145286000Y-65825000D02*
X140714000Y-65825000D01*
X146937000Y-69000000D02*
G75*
G03X146937000Y-69000000I-3937000J0D01*
G01*
X147191000Y-64809000D02*
X138809000Y-64809000D01*
X138809000Y-64809000D02*
X138809000Y-72429000D01*
X138809000Y-72429000D02*
X139571000Y-73191000D01*
X139571000Y-73191000D02*
X146429000Y-73191000D01*
X146429000Y-73191000D02*
X147191000Y-72429000D01*
X147191000Y-72429000D02*
X147191000Y-64809000D01*
X143000000Y-72683000D02*
X143000000Y-71921000D01*
X143381000Y-72302000D02*
X142619000Y-72302000D01*
X157984000Y-64174000D02*
X160016000Y-64174000D01*
X160397000Y-64301000D02*
X157476000Y-64301000D01*
X157222000Y-64428000D02*
X160778000Y-64428000D01*
X161159000Y-64555000D02*
X156841000Y-64555000D01*
X156587000Y-64682000D02*
X161413000Y-64682000D01*
X161540000Y-64809000D02*
X156460000Y-64809000D01*
X163953000Y-69000000D02*
G75*
G03X163953000Y-69000000I-4953000J0D01*
G01*
X164207000Y-63793000D02*
X153793000Y-63793000D01*
X153793000Y-63793000D02*
X153793000Y-73445000D01*
X153793000Y-73445000D02*
X154555000Y-74207000D01*
X154555000Y-74207000D02*
X163445000Y-74207000D01*
X163445000Y-74207000D02*
X164207000Y-73445000D01*
X164207000Y-73445000D02*
X164207000Y-63793000D01*
X159000000Y-73572000D02*
X159000000Y-72810000D01*
X159381000Y-73191000D02*
X158619000Y-73191000D01*
X138875000Y-133400000D02*
X138875000Y-134600000D01*
X137125000Y-134600000D02*
X137125000Y-133400000D01*
X144875000Y-133400000D02*
X144875000Y-134600000D01*
X143125000Y-134600000D02*
X143125000Y-133400000D01*
X148600000Y-122375000D02*
X147400000Y-122375000D01*
X147400000Y-120625000D02*
X148600000Y-120625000D01*
X126600000Y-119125000D02*
X125400000Y-119125000D01*
X125400000Y-117375000D02*
X126600000Y-117375000D01*
X125400000Y-121875000D02*
X126600000Y-121875000D01*
X126600000Y-123625000D02*
X125400000Y-123625000D01*
X136875000Y-112650000D02*
X136875000Y-113850000D01*
X135125000Y-113850000D02*
X135125000Y-112650000D01*
X134875000Y-130100000D02*
X134875000Y-128900000D01*
X136625000Y-128900000D02*
X136625000Y-130100000D01*
X148600000Y-120125000D02*
X147400000Y-120125000D01*
X147400000Y-118375000D02*
X148600000Y-118375000D01*
X185375000Y-55350000D02*
X185375000Y-54150000D01*
X187125000Y-54150000D02*
X187125000Y-55350000D01*
X173125000Y-73600000D02*
X173125000Y-72400000D01*
X174875000Y-72400000D02*
X174875000Y-73600000D01*
X133125000Y-55350000D02*
X133125000Y-54150000D01*
X134875000Y-54150000D02*
X134875000Y-55350000D01*
X121125000Y-73600000D02*
X121125000Y-72400000D01*
X122875000Y-72400000D02*
X122875000Y-73600000D01*
D15*
X186399540Y-114500380D02*
X183600460Y-114500380D01*
X186399540Y-114800100D02*
X183600460Y-114800100D01*
X186399540Y-115699260D02*
X183600460Y-115699260D01*
X183600460Y-115399540D02*
X186399540Y-115399540D01*
X186399540Y-115099820D02*
X183600460Y-115099820D01*
X183600460Y-115998980D02*
X183600460Y-112001020D01*
X183600460Y-112001020D02*
X186399540Y-112001020D01*
X186399540Y-112001020D02*
X186399540Y-115998980D01*
X186399540Y-115998980D02*
X183600460Y-115998980D01*
D13*
X142750000Y-108250000D02*
X142750000Y-108000000D01*
X142750000Y-108750000D02*
X142750000Y-109000000D01*
X142750000Y-108750000D02*
X142400000Y-108250000D01*
X142400000Y-108250000D02*
X143100000Y-108250000D01*
X143100000Y-108250000D02*
X142750000Y-108750000D01*
X142400000Y-108750000D02*
X143100000Y-108750000D01*
X143550000Y-109800000D02*
X143550000Y-107400000D01*
X141950000Y-109800000D02*
X141950000Y-107400000D01*
X174000000Y-49317500D02*
X174000000Y-49698500D01*
X174000000Y-48301500D02*
X174000000Y-48682500D01*
X174000000Y-48682500D02*
X174381000Y-49317500D01*
X174381000Y-49317500D02*
X173619000Y-49317500D01*
X173619000Y-49317500D02*
X174000000Y-48682500D01*
X174508000Y-48682500D02*
X173492000Y-48682500D01*
X173100000Y-47000000D02*
X173100000Y-50540000D01*
X174900000Y-47000000D02*
X174900000Y-50540000D01*
X186000000Y-49317500D02*
X186000000Y-49698500D01*
X186000000Y-48301500D02*
X186000000Y-48682500D01*
X186000000Y-48682500D02*
X186381000Y-49317500D01*
X186381000Y-49317500D02*
X185619000Y-49317500D01*
X185619000Y-49317500D02*
X186000000Y-48682500D01*
X186508000Y-48682500D02*
X185492000Y-48682500D01*
X185100000Y-47000000D02*
X185100000Y-50540000D01*
X186900000Y-47000000D02*
X186900000Y-50540000D01*
X113000000Y-49317500D02*
X113000000Y-49698500D01*
X113000000Y-48301500D02*
X113000000Y-48682500D01*
X113000000Y-48682500D02*
X113381000Y-49317500D01*
X113381000Y-49317500D02*
X112619000Y-49317500D01*
X112619000Y-49317500D02*
X113000000Y-48682500D01*
X113508000Y-48682500D02*
X112492000Y-48682500D01*
X112100000Y-47000000D02*
X112100000Y-50540000D01*
X113900000Y-47000000D02*
X113900000Y-50540000D01*
X127000000Y-49317500D02*
X127000000Y-49698500D01*
X127000000Y-48301500D02*
X127000000Y-48682500D01*
X127000000Y-48682500D02*
X127381000Y-49317500D01*
X127381000Y-49317500D02*
X126619000Y-49317500D01*
X126619000Y-49317500D02*
X127000000Y-48682500D01*
X127508000Y-48682500D02*
X126492000Y-48682500D01*
X126100000Y-47000000D02*
X126100000Y-50540000D01*
X127900000Y-47000000D02*
X127900000Y-50540000D01*
X186075000Y-104000000D02*
X186075000Y-106000000D01*
X183925000Y-106000000D02*
X183925000Y-104000000D01*
X174980000Y-103730000D02*
X174980000Y-101190000D01*
X174700000Y-106550000D02*
X174700000Y-105000000D01*
X174980000Y-103730000D02*
X177520000Y-103730000D01*
X177800000Y-105000000D02*
X177800000Y-106550000D01*
X177800000Y-106550000D02*
X174700000Y-106550000D01*
X177520000Y-103730000D02*
X177520000Y-101190000D01*
X177520000Y-101190000D02*
X174980000Y-101190000D01*
X179480000Y-103730000D02*
X179480000Y-101190000D01*
X179200000Y-106550000D02*
X179200000Y-105000000D01*
X179480000Y-103730000D02*
X182020000Y-103730000D01*
X182300000Y-105000000D02*
X182300000Y-106550000D01*
X182300000Y-106550000D02*
X179200000Y-106550000D01*
X182020000Y-103730000D02*
X182020000Y-101190000D01*
X182020000Y-101190000D02*
X179480000Y-101190000D01*
X125520000Y-128770000D02*
X125520000Y-131310000D01*
X125800000Y-125950000D02*
X125800000Y-127500000D01*
X125520000Y-128770000D02*
X122980000Y-128770000D01*
X122700000Y-127500000D02*
X122700000Y-125950000D01*
X122700000Y-125950000D02*
X125800000Y-125950000D01*
X122980000Y-128770000D02*
X122980000Y-131310000D01*
X122980000Y-131310000D02*
X125520000Y-131310000D01*
X188899680Y-119421140D02*
X188351040Y-119421140D01*
X188351040Y-119421140D02*
X188351040Y-126578860D01*
X188351040Y-126578860D02*
X188899680Y-126578860D01*
X196120900Y-126578860D02*
X199100320Y-126578860D01*
X199100320Y-126578860D02*
X199100320Y-119421140D01*
X191820680Y-119421140D02*
X188899680Y-119421140D01*
X188899680Y-119421140D02*
X188899680Y-126578860D01*
X188899680Y-126578860D02*
X191879100Y-126578860D01*
X199100320Y-119421140D02*
X196120900Y-119421140D01*
X188899680Y-110421140D02*
X188351040Y-110421140D01*
X188351040Y-110421140D02*
X188351040Y-117578860D01*
X188351040Y-117578860D02*
X188899680Y-117578860D01*
X196120900Y-117578860D02*
X199100320Y-117578860D01*
X199100320Y-117578860D02*
X199100320Y-110421140D01*
X191820680Y-110421140D02*
X188899680Y-110421140D01*
X188899680Y-110421140D02*
X188899680Y-117578860D01*
X188899680Y-117578860D02*
X191879100Y-117578860D01*
X199100320Y-110421140D02*
X196120900Y-110421140D01*
X177020000Y-111770000D02*
X182100000Y-111770000D01*
X182100000Y-111770000D02*
X182100000Y-109230000D01*
X182100000Y-109230000D02*
X177020000Y-109230000D01*
X174200000Y-108950000D02*
X175750000Y-108950000D01*
X177020000Y-109230000D02*
X177020000Y-111770000D01*
X175750000Y-112050000D02*
X174200000Y-112050000D01*
X174200000Y-112050000D02*
X174200000Y-108950000D01*
X177020000Y-115770000D02*
X182100000Y-115770000D01*
X182100000Y-115770000D02*
X182100000Y-113230000D01*
X182100000Y-113230000D02*
X177020000Y-113230000D01*
X174200000Y-112950000D02*
X175750000Y-112950000D01*
X177020000Y-113230000D02*
X177020000Y-115770000D01*
X175750000Y-116050000D02*
X174200000Y-116050000D01*
X174200000Y-116050000D02*
X174200000Y-112950000D01*
X101200000Y-102000000D02*
X101200000Y-100450000D01*
X101200000Y-100450000D02*
X104300000Y-100450000D01*
X104300000Y-100450000D02*
X104300000Y-102000000D01*
X104020000Y-103270000D02*
X104020000Y-113430000D01*
X104020000Y-113430000D02*
X101480000Y-113430000D01*
X101480000Y-113430000D02*
X101480000Y-103270000D01*
X104020000Y-103270000D02*
X101480000Y-103270000D01*
X188899680Y-101421140D02*
X188351040Y-101421140D01*
X188351040Y-101421140D02*
X188351040Y-108578860D01*
X188351040Y-108578860D02*
X188899680Y-108578860D01*
X196120900Y-108578860D02*
X199100320Y-108578860D01*
X199100320Y-108578860D02*
X199100320Y-101421140D01*
X191820680Y-101421140D02*
X188899680Y-101421140D01*
X188899680Y-101421140D02*
X188899680Y-108578860D01*
X188899680Y-108578860D02*
X191879100Y-108578860D01*
X199100320Y-101421140D02*
X196120900Y-101421140D01*
X122730000Y-103270000D02*
X110030000Y-103270000D01*
X110030000Y-103270000D02*
X110030000Y-100730000D01*
X110030000Y-100730000D02*
X122730000Y-100730000D01*
X125550000Y-103550000D02*
X124000000Y-103550000D01*
X122730000Y-103270000D02*
X122730000Y-100730000D01*
X124000000Y-100450000D02*
X125550000Y-100450000D01*
X125550000Y-100450000D02*
X125550000Y-103550000D01*
X153460000Y-133460000D02*
X158540000Y-133460000D01*
X158540000Y-139175000D02*
X158540000Y-137905000D01*
X158540000Y-133460000D02*
X158540000Y-134095000D01*
X153460000Y-138540000D02*
X153460000Y-137905000D01*
X153460000Y-133460000D02*
X153460000Y-134095000D01*
X153460000Y-133460000D02*
X153460000Y-132825000D01*
X153460000Y-132825000D02*
X158540000Y-132825000D01*
X158540000Y-132825000D02*
X158540000Y-133460000D01*
X158540000Y-139175000D02*
X153460000Y-139175000D01*
X153460000Y-139175000D02*
X153460000Y-138540000D01*
X160460000Y-133460000D02*
X165540000Y-133460000D01*
X165540000Y-139175000D02*
X165540000Y-137905000D01*
X165540000Y-133460000D02*
X165540000Y-134095000D01*
X160460000Y-138540000D02*
X160460000Y-137905000D01*
X160460000Y-133460000D02*
X160460000Y-134095000D01*
X160460000Y-133460000D02*
X160460000Y-132825000D01*
X160460000Y-132825000D02*
X165540000Y-132825000D01*
X165540000Y-132825000D02*
X165540000Y-133460000D01*
X165540000Y-139175000D02*
X160460000Y-139175000D01*
X160460000Y-139175000D02*
X160460000Y-138540000D01*
X166675000Y-111900000D02*
X165405000Y-111900000D01*
X160960000Y-111900000D02*
X160960000Y-124600000D01*
X160325000Y-124600000D02*
X160325000Y-111900000D01*
X161595000Y-111900000D02*
X160325000Y-111900000D01*
X161595000Y-124600000D02*
X160325000Y-124600000D01*
X166675000Y-111900000D02*
X166675000Y-124600000D01*
X166675000Y-124600000D02*
X165405000Y-124600000D01*
X145350000Y-106175000D02*
X145350000Y-104905000D01*
X145350000Y-100460000D02*
X132650000Y-100460000D01*
X132650000Y-99825000D02*
X145350000Y-99825000D01*
X145350000Y-101095000D02*
X145350000Y-99825000D01*
X132650000Y-101095000D02*
X132650000Y-99825000D01*
X145350000Y-106175000D02*
X132650000Y-106175000D01*
X132650000Y-106175000D02*
X132650000Y-104905000D01*
X176421140Y-51100320D02*
X176421140Y-51648960D01*
X176421140Y-51648960D02*
X183578860Y-51648960D01*
X183578860Y-51648960D02*
X183578860Y-51100320D01*
X183578860Y-43879100D02*
X183578860Y-40899680D01*
X183578860Y-40899680D02*
X176421140Y-40899680D01*
X176421140Y-48179320D02*
X176421140Y-51100320D01*
X176421140Y-51100320D02*
X183578860Y-51100320D01*
X183578860Y-51100320D02*
X183578860Y-48120900D01*
X176421140Y-40899680D02*
X176421140Y-43879100D01*
X116421140Y-51100320D02*
X116421140Y-51648960D01*
X116421140Y-51648960D02*
X123578860Y-51648960D01*
X123578860Y-51648960D02*
X123578860Y-51100320D01*
X123578860Y-43879100D02*
X123578860Y-40899680D01*
X123578860Y-40899680D02*
X116421140Y-40899680D01*
X116421140Y-48179320D02*
X116421140Y-51100320D01*
X116421140Y-51100320D02*
X123578860Y-51100320D01*
X123578860Y-51100320D02*
X123578860Y-48120900D01*
X116421140Y-40899680D02*
X116421140Y-43879100D01*
X119830000Y-133460000D02*
X109670000Y-133460000D01*
X119830000Y-137905000D02*
X119830000Y-139175000D01*
X109670000Y-134095000D02*
X109670000Y-132825000D01*
X109670000Y-132825000D02*
X119830000Y-132825000D01*
X119830000Y-132825000D02*
X119830000Y-134095000D01*
X119830000Y-139175000D02*
X109670000Y-139175000D01*
X109670000Y-139175000D02*
X109670000Y-137905000D01*
X106540000Y-87080000D02*
X106540000Y-76920000D01*
X102095000Y-87080000D02*
X100825000Y-87080000D01*
X105905000Y-76920000D02*
X107175000Y-76920000D01*
X107175000Y-76920000D02*
X107175000Y-87080000D01*
X107175000Y-87080000D02*
X105905000Y-87080000D01*
X100825000Y-87080000D02*
X100825000Y-76920000D01*
X100825000Y-76920000D02*
X102095000Y-76920000D01*
X159920000Y-46540000D02*
X170080000Y-46540000D01*
X159920000Y-42095000D02*
X159920000Y-40825000D01*
X170080000Y-45905000D02*
X170080000Y-47175000D01*
X170080000Y-47175000D02*
X159920000Y-47175000D01*
X159920000Y-47175000D02*
X159920000Y-45905000D01*
X159920000Y-40825000D02*
X170080000Y-40825000D01*
X170080000Y-40825000D02*
X170080000Y-42095000D01*
X193460000Y-76920000D02*
X193460000Y-87080000D01*
X197905000Y-76920000D02*
X199175000Y-76920000D01*
X194095000Y-87080000D02*
X192825000Y-87080000D01*
X192825000Y-87080000D02*
X192825000Y-76920000D01*
X192825000Y-76920000D02*
X194095000Y-76920000D01*
X199175000Y-76920000D02*
X199175000Y-87080000D01*
X199175000Y-87080000D02*
X197905000Y-87080000D01*
X129920000Y-46540000D02*
X140080000Y-46540000D01*
X129920000Y-42095000D02*
X129920000Y-40825000D01*
X140080000Y-45905000D02*
X140080000Y-47175000D01*
X140080000Y-47175000D02*
X129920000Y-47175000D01*
X129920000Y-47175000D02*
X129920000Y-45905000D01*
X129920000Y-40825000D02*
X140080000Y-40825000D01*
X140080000Y-40825000D02*
X140080000Y-42095000D01*
X115480000Y-119230000D02*
X115480000Y-106530000D01*
X115480000Y-106530000D02*
X118020000Y-106530000D01*
X118020000Y-106530000D02*
X118020000Y-119230000D01*
X115200000Y-122050000D02*
X115200000Y-120500000D01*
X115480000Y-119230000D02*
X118020000Y-119230000D01*
X118300000Y-120500000D02*
X118300000Y-122050000D01*
X118300000Y-122050000D02*
X115200000Y-122050000D01*
X100825000Y-130620000D02*
X102095000Y-130620000D01*
X106540000Y-130620000D02*
X106540000Y-115380000D01*
X105905000Y-115380000D02*
X107175000Y-115380000D01*
X107175000Y-115380000D02*
X107175000Y-130620000D01*
X107175000Y-130620000D02*
X105905000Y-130620000D01*
X100825000Y-115380000D02*
X102095000Y-115380000D01*
X100825000Y-130620000D02*
X100825000Y-115380000D01*
X146460000Y-133460000D02*
X151540000Y-133460000D01*
X151540000Y-139175000D02*
X151540000Y-137905000D01*
X151540000Y-133460000D02*
X151540000Y-134095000D01*
X146460000Y-138540000D02*
X146460000Y-137905000D01*
X146460000Y-133460000D02*
X146460000Y-134095000D01*
X146460000Y-133460000D02*
X146460000Y-132825000D01*
X146460000Y-132825000D02*
X151540000Y-132825000D01*
X151540000Y-132825000D02*
X151540000Y-133460000D01*
X151540000Y-139175000D02*
X146460000Y-139175000D01*
X146460000Y-139175000D02*
X146460000Y-138540000D01*
X144450000Y-110550000D02*
X144450000Y-109000000D01*
X147550000Y-109000000D02*
X147550000Y-110550000D01*
X147550000Y-110550000D02*
X144450000Y-110550000D01*
X147270000Y-107730000D02*
X144730000Y-107730000D01*
X151550000Y-107450000D02*
X151550000Y-109000000D01*
X148450000Y-109000000D02*
X148450000Y-107450000D01*
X148450000Y-107450000D02*
X151550000Y-107450000D01*
X148730000Y-110270000D02*
X151270000Y-110270000D01*
X154200000Y-119800000D02*
X154200000Y-118250000D01*
X157300000Y-118250000D02*
X157300000Y-119800000D01*
X157300000Y-119800000D02*
X154200000Y-119800000D01*
X157020000Y-116980000D02*
X154480000Y-116980000D01*
X111950840Y-131150240D02*
X111999100Y-131150240D01*
X114749820Y-130449200D02*
X114749820Y-131150240D01*
X114749820Y-131150240D02*
X114500900Y-131150240D01*
X111950840Y-131150240D02*
X111750180Y-131150240D01*
X111750180Y-131150240D02*
X111750180Y-130449200D01*
X105900000Y-103375000D02*
X107100000Y-103375000D01*
X107100000Y-105125000D02*
X105900000Y-105125000D01*
X107100000Y-102875000D02*
X105900000Y-102875000D01*
X105900000Y-101125000D02*
X107100000Y-101125000D01*
X140125000Y-134600000D02*
X140125000Y-133400000D01*
X141875000Y-133400000D02*
X141875000Y-134600000D01*
X130125000Y-107900000D02*
X130125000Y-109100000D01*
X128375000Y-109100000D02*
X128375000Y-107900000D01*
X132375000Y-107900000D02*
X132375000Y-109100000D01*
X130625000Y-109100000D02*
X130625000Y-107900000D01*
X139125000Y-107900000D02*
X139125000Y-109100000D01*
X137375000Y-109100000D02*
X137375000Y-107900000D01*
X141375000Y-107900000D02*
X141375000Y-109100000D01*
X139625000Y-109100000D02*
X139625000Y-107900000D01*
X126125000Y-109100000D02*
X126125000Y-107900000D01*
X127875000Y-107900000D02*
X127875000Y-109100000D01*
X134625000Y-107900000D02*
X134625000Y-109100000D01*
X132875000Y-109100000D02*
X132875000Y-107900000D01*
X136875000Y-107900000D02*
X136875000Y-109100000D01*
X135125000Y-109100000D02*
X135125000Y-107900000D01*
X134850000Y-135625000D02*
X133650000Y-135625000D01*
X133650000Y-133875000D02*
X134850000Y-133875000D01*
X126600000Y-116875000D02*
X125400000Y-116875000D01*
X125400000Y-115125000D02*
X126600000Y-115125000D01*
X116125000Y-131100000D02*
X116125000Y-129900000D01*
X117875000Y-129900000D02*
X117875000Y-131100000D01*
X180875000Y-72400000D02*
X180875000Y-73600000D01*
X179125000Y-73600000D02*
X179125000Y-72400000D01*
X128875000Y-72400000D02*
X128875000Y-73600000D01*
X127125000Y-73600000D02*
X127125000Y-72400000D01*
X140950000Y-126450000D02*
X140375000Y-126450000D01*
X131550000Y-117050000D02*
X132125000Y-117050000D01*
X131550000Y-126450000D02*
X132125000Y-126450000D01*
X140950000Y-117050000D02*
X140950000Y-117625000D01*
X131550000Y-117050000D02*
X131550000Y-117625000D01*
X131550000Y-126450000D02*
X131550000Y-125875000D01*
X140950000Y-126450000D02*
X140950000Y-125875000D01*
X144875000Y-137400000D02*
X144875000Y-138600000D01*
X143125000Y-138600000D02*
X143125000Y-137400000D01*
X141875000Y-137400000D02*
X141875000Y-138600000D01*
X140125000Y-138600000D02*
X140125000Y-137400000D01*
X138875000Y-137400000D02*
X138875000Y-138600000D01*
X137125000Y-138600000D02*
X137125000Y-137400000D01*
X103600000Y-89875000D02*
X102400000Y-89875000D01*
X102400000Y-88125000D02*
X103600000Y-88125000D01*
X103600000Y-92875000D02*
X102400000Y-92875000D01*
X102400000Y-91125000D02*
X103600000Y-91125000D01*
X103600000Y-95875000D02*
X102400000Y-95875000D01*
X102400000Y-94125000D02*
X103600000Y-94125000D01*
X103600000Y-98875000D02*
X102400000Y-98875000D01*
X102400000Y-97125000D02*
X103600000Y-97125000D01*
X175513275Y-135000000D02*
G75*
G03X175513275Y-135000000I-1513275J0D01*
G01*
X170900000Y-138100000D02*
X177100000Y-138100000D01*
X177100000Y-138100000D02*
X177100000Y-131900000D01*
X177100000Y-131900000D02*
X170900000Y-131900000D01*
X170900000Y-131900000D02*
X170900000Y-138100000D01*
X170900000Y-138100000D02*
X171000000Y-138100000D01*
X188513275Y-135000000D02*
G75*
G03X188513275Y-135000000I-1513275J0D01*
G01*
X183900000Y-138100000D02*
X190100000Y-138100000D01*
X190100000Y-138100000D02*
X190100000Y-131900000D01*
X190100000Y-131900000D02*
X183900000Y-131900000D01*
X183900000Y-131900000D02*
X183900000Y-138100000D01*
X183900000Y-138100000D02*
X184000000Y-138100000D01*
X172750000Y-119000000D02*
X174250000Y-117500000D01*
X172750000Y-119000000D02*
X172750000Y-122500000D01*
X182750000Y-117500000D02*
X174250000Y-117500000D01*
X182750000Y-122500000D02*
X182750000Y-117500000D01*
X182750000Y-122500000D02*
X172750000Y-122500000D01*
X172750000Y-125000000D02*
X174250000Y-123500000D01*
X172750000Y-125000000D02*
X172750000Y-128500000D01*
X182750000Y-123500000D02*
X174250000Y-123500000D01*
X182750000Y-128500000D02*
X182750000Y-123500000D01*
X182750000Y-128500000D02*
X172750000Y-128500000D01*
D16*
X182800000Y-57600000D02*
G75*
G03X182800000Y-57600000I-100000J0D01*
G01*
X183000000Y-57600000D02*
G75*
G03X183000000Y-57600000I-300000J0D01*
G01*
X183200000Y-57600000D02*
G75*
G03X183200000Y-57600000I-500000J0D01*
G01*
X184001000Y-57499120D02*
X184001000Y-67600700D01*
X182901180Y-56399300D02*
X167999000Y-56399300D01*
X182901180Y-56399300D02*
X184001000Y-57499120D01*
X184001000Y-67600700D02*
X167999000Y-67600700D01*
X167999000Y-67600700D02*
X167999000Y-56399300D01*
D10*
X147985000Y-76950000D02*
X110015000Y-76950000D01*
X147985000Y-99050000D02*
X147985000Y-76950000D01*
X110015000Y-99050000D02*
X147985000Y-99050000D01*
X110015000Y-76950000D02*
X110015000Y-99050000D01*
X189985000Y-76950000D02*
X152015000Y-76950000D01*
X189985000Y-99050000D02*
X189985000Y-76950000D01*
X152015000Y-99050000D02*
X189985000Y-99050000D01*
X152015000Y-76950000D02*
X152015000Y-99050000D01*
G36*
X146239190Y-55383641D02*
X146231455Y-55457152D01*
X146205377Y-55514731D01*
X146166553Y-55560753D01*
X146092307Y-55635000D01*
X145840053Y-55635000D01*
X145840053Y-55304800D01*
X145822519Y-55209550D01*
X145767884Y-55034762D01*
X145675630Y-54880695D01*
X145552842Y-54757446D01*
X145466302Y-54701884D01*
X145365323Y-54667883D01*
X145236488Y-54650319D01*
X145100270Y-54649968D01*
X144977138Y-54667610D01*
X144931613Y-54681564D01*
X144776463Y-54766082D01*
X144652158Y-54885769D01*
X144564995Y-55032849D01*
X144522950Y-55186206D01*
X144506695Y-55304800D01*
X145173374Y-55304800D01*
X145840053Y-55304800D01*
X145840053Y-55635000D01*
X145300127Y-55635000D01*
X144507946Y-55635000D01*
X144525606Y-55730250D01*
X144566521Y-55859153D01*
X144636058Y-55988380D01*
X144722384Y-56098398D01*
X144778679Y-56148056D01*
X144925577Y-56226220D01*
X145102794Y-56274725D01*
X145298815Y-56292736D01*
X145502128Y-56279421D01*
X145701220Y-56233943D01*
X145746874Y-56218232D01*
X145869313Y-56175480D01*
X145955979Y-56152893D01*
X146017423Y-56149785D01*
X146064197Y-56165470D01*
X146102522Y-56195135D01*
X146158235Y-56269137D01*
X146165398Y-56341527D01*
X146123535Y-56412875D01*
X146032172Y-56483748D01*
X145890833Y-56554715D01*
X145759421Y-56605634D01*
X145670275Y-56627839D01*
X145546271Y-56646586D01*
X145403302Y-56660735D01*
X145257258Y-56669142D01*
X145124029Y-56670665D01*
X145019505Y-56664163D01*
X144996200Y-56660492D01*
X144757557Y-56593286D01*
X144555662Y-56491005D01*
X144390532Y-56353671D01*
X144262187Y-56181304D01*
X144170647Y-55973926D01*
X144115932Y-55731559D01*
X144110077Y-55684951D01*
X144099440Y-55421441D01*
X144126693Y-55174964D01*
X144189825Y-54950380D01*
X144286826Y-54752548D01*
X144415683Y-54586328D01*
X144574387Y-54456581D01*
X144632319Y-54422938D01*
X144842952Y-54339246D01*
X145070747Y-54298050D01*
X145304000Y-54300043D01*
X145531012Y-54345917D01*
X145590665Y-54366270D01*
X145759008Y-54455120D01*
X145910786Y-54585757D01*
X146039743Y-54750228D01*
X146139625Y-54940576D01*
X146203480Y-55145546D01*
X146229544Y-55283380D01*
X146239190Y-55383641D01*
X146239190Y-55383641D01*
X146239190Y-55383641D01*
G37*
X146239190Y-55383641D02*
X146231455Y-55457152D01*
X146205377Y-55514731D01*
X146166553Y-55560753D01*
X146092307Y-55635000D01*
X145840053Y-55635000D01*
X145840053Y-55304800D01*
X145822519Y-55209550D01*
X145767884Y-55034762D01*
X145675630Y-54880695D01*
X145552842Y-54757446D01*
X145466302Y-54701884D01*
X145365323Y-54667883D01*
X145236488Y-54650319D01*
X145100270Y-54649968D01*
X144977138Y-54667610D01*
X144931613Y-54681564D01*
X144776463Y-54766082D01*
X144652158Y-54885769D01*
X144564995Y-55032849D01*
X144522950Y-55186206D01*
X144506695Y-55304800D01*
X145173374Y-55304800D01*
X145840053Y-55304800D01*
X145840053Y-55635000D01*
X145300127Y-55635000D01*
X144507946Y-55635000D01*
X144525606Y-55730250D01*
X144566521Y-55859153D01*
X144636058Y-55988380D01*
X144722384Y-56098398D01*
X144778679Y-56148056D01*
X144925577Y-56226220D01*
X145102794Y-56274725D01*
X145298815Y-56292736D01*
X145502128Y-56279421D01*
X145701220Y-56233943D01*
X145746874Y-56218232D01*
X145869313Y-56175480D01*
X145955979Y-56152893D01*
X146017423Y-56149785D01*
X146064197Y-56165470D01*
X146102522Y-56195135D01*
X146158235Y-56269137D01*
X146165398Y-56341527D01*
X146123535Y-56412875D01*
X146032172Y-56483748D01*
X145890833Y-56554715D01*
X145759421Y-56605634D01*
X145670275Y-56627839D01*
X145546271Y-56646586D01*
X145403302Y-56660735D01*
X145257258Y-56669142D01*
X145124029Y-56670665D01*
X145019505Y-56664163D01*
X144996200Y-56660492D01*
X144757557Y-56593286D01*
X144555662Y-56491005D01*
X144390532Y-56353671D01*
X144262187Y-56181304D01*
X144170647Y-55973926D01*
X144115932Y-55731559D01*
X144110077Y-55684951D01*
X144099440Y-55421441D01*
X144126693Y-55174964D01*
X144189825Y-54950380D01*
X144286826Y-54752548D01*
X144415683Y-54586328D01*
X144574387Y-54456581D01*
X144632319Y-54422938D01*
X144842952Y-54339246D01*
X145070747Y-54298050D01*
X145304000Y-54300043D01*
X145531012Y-54345917D01*
X145590665Y-54366270D01*
X145759008Y-54455120D01*
X145910786Y-54585757D01*
X146039743Y-54750228D01*
X146139625Y-54940576D01*
X146203480Y-55145546D01*
X146229544Y-55283380D01*
X146239190Y-55383641D01*
X146239190Y-55383641D01*
G36*
X151016000Y-56526309D02*
X150953654Y-56588654D01*
X150872994Y-56639682D01*
X150786933Y-56648025D01*
X150707039Y-56618881D01*
X150644884Y-56557446D01*
X150612036Y-56468916D01*
X150609600Y-56434120D01*
X150609600Y-56341931D01*
X150609600Y-55986641D01*
X150609600Y-55795979D01*
X150609600Y-55605318D01*
X150184150Y-55613983D01*
X150021330Y-55618021D01*
X149899836Y-55623269D01*
X149810192Y-55630830D01*
X149742924Y-55641808D01*
X149688556Y-55657308D01*
X149639853Y-55677398D01*
X149530054Y-55748624D01*
X149465715Y-55841657D01*
X149445112Y-55959487D01*
X149448168Y-56009439D01*
X149485645Y-56129588D01*
X149563731Y-56225185D01*
X149674671Y-56287221D01*
X149691868Y-56292569D01*
X149818751Y-56311285D01*
X149968475Y-56307403D01*
X150119548Y-56283121D01*
X150250475Y-56240639D01*
X150264829Y-56233927D01*
X150363590Y-56177844D01*
X150463887Y-56109117D01*
X150502422Y-56078381D01*
X150609600Y-55986641D01*
X150609600Y-56341931D01*
X150514350Y-56415693D01*
X150308380Y-56547096D01*
X150090184Y-56634169D01*
X149866178Y-56675549D01*
X149642781Y-56669875D01*
X149482226Y-56634764D01*
X149372468Y-56582347D01*
X149261385Y-56498225D01*
X149162757Y-56395822D01*
X149090364Y-56288563D01*
X149065689Y-56228953D01*
X149032414Y-56038394D01*
X149046548Y-55860736D01*
X149105524Y-55699765D01*
X149206777Y-55559268D01*
X149347739Y-55443032D01*
X149525844Y-55354844D01*
X149690100Y-55307710D01*
X149763681Y-55297672D01*
X149875073Y-55289200D01*
X150011296Y-55282986D01*
X150159368Y-55279723D01*
X150220647Y-55279400D01*
X150616594Y-55279400D01*
X150599918Y-55137512D01*
X150570684Y-54989025D01*
X150518355Y-54878435D01*
X150435734Y-54795392D01*
X150316570Y-54729951D01*
X150202292Y-54699117D01*
X150053150Y-54686333D01*
X149881674Y-54691362D01*
X149700395Y-54713973D01*
X149558404Y-54744134D01*
X149420412Y-54774456D01*
X149321871Y-54782853D01*
X149255866Y-54768161D01*
X149215483Y-54729212D01*
X149197847Y-54683363D01*
X149190045Y-54600654D01*
X149214894Y-54531467D01*
X149276536Y-54472344D01*
X149379113Y-54419825D01*
X149526768Y-54370450D01*
X149594595Y-54352042D01*
X149848767Y-54303966D01*
X150089333Y-54293336D01*
X150311347Y-54318947D01*
X150509865Y-54379597D01*
X150679940Y-54474082D01*
X150816628Y-54601200D01*
X150860194Y-54659927D01*
X150902109Y-54726145D01*
X150935785Y-54789189D01*
X150962114Y-54855490D01*
X150981993Y-54931485D01*
X150996316Y-55023607D01*
X151005976Y-55138289D01*
X151011870Y-55281967D01*
X151014892Y-55461073D01*
X151015935Y-55682044D01*
X151016000Y-55780464D01*
X151016000Y-56526309D01*
X151016000Y-56526309D01*
X151016000Y-56526309D01*
G37*
X151016000Y-56526309D02*
X150953654Y-56588654D01*
X150872994Y-56639682D01*
X150786933Y-56648025D01*
X150707039Y-56618881D01*
X150644884Y-56557446D01*
X150612036Y-56468916D01*
X150609600Y-56434120D01*
X150609600Y-56341931D01*
X150609600Y-55986641D01*
X150609600Y-55795979D01*
X150609600Y-55605318D01*
X150184150Y-55613983D01*
X150021330Y-55618021D01*
X149899836Y-55623269D01*
X149810192Y-55630830D01*
X149742924Y-55641808D01*
X149688556Y-55657308D01*
X149639853Y-55677398D01*
X149530054Y-55748624D01*
X149465715Y-55841657D01*
X149445112Y-55959487D01*
X149448168Y-56009439D01*
X149485645Y-56129588D01*
X149563731Y-56225185D01*
X149674671Y-56287221D01*
X149691868Y-56292569D01*
X149818751Y-56311285D01*
X149968475Y-56307403D01*
X150119548Y-56283121D01*
X150250475Y-56240639D01*
X150264829Y-56233927D01*
X150363590Y-56177844D01*
X150463887Y-56109117D01*
X150502422Y-56078381D01*
X150609600Y-55986641D01*
X150609600Y-56341931D01*
X150514350Y-56415693D01*
X150308380Y-56547096D01*
X150090184Y-56634169D01*
X149866178Y-56675549D01*
X149642781Y-56669875D01*
X149482226Y-56634764D01*
X149372468Y-56582347D01*
X149261385Y-56498225D01*
X149162757Y-56395822D01*
X149090364Y-56288563D01*
X149065689Y-56228953D01*
X149032414Y-56038394D01*
X149046548Y-55860736D01*
X149105524Y-55699765D01*
X149206777Y-55559268D01*
X149347739Y-55443032D01*
X149525844Y-55354844D01*
X149690100Y-55307710D01*
X149763681Y-55297672D01*
X149875073Y-55289200D01*
X150011296Y-55282986D01*
X150159368Y-55279723D01*
X150220647Y-55279400D01*
X150616594Y-55279400D01*
X150599918Y-55137512D01*
X150570684Y-54989025D01*
X150518355Y-54878435D01*
X150435734Y-54795392D01*
X150316570Y-54729951D01*
X150202292Y-54699117D01*
X150053150Y-54686333D01*
X149881674Y-54691362D01*
X149700395Y-54713973D01*
X149558404Y-54744134D01*
X149420412Y-54774456D01*
X149321871Y-54782853D01*
X149255866Y-54768161D01*
X149215483Y-54729212D01*
X149197847Y-54683363D01*
X149190045Y-54600654D01*
X149214894Y-54531467D01*
X149276536Y-54472344D01*
X149379113Y-54419825D01*
X149526768Y-54370450D01*
X149594595Y-54352042D01*
X149848767Y-54303966D01*
X150089333Y-54293336D01*
X150311347Y-54318947D01*
X150509865Y-54379597D01*
X150679940Y-54474082D01*
X150816628Y-54601200D01*
X150860194Y-54659927D01*
X150902109Y-54726145D01*
X150935785Y-54789189D01*
X150962114Y-54855490D01*
X150981993Y-54931485D01*
X150996316Y-55023607D01*
X151005976Y-55138289D01*
X151011870Y-55281967D01*
X151014892Y-55461073D01*
X151015935Y-55682044D01*
X151016000Y-55780464D01*
X151016000Y-56526309D01*
X151016000Y-56526309D01*
G36*
X153964293Y-55464501D02*
X153950571Y-55692248D01*
X153905192Y-55910387D01*
X153829793Y-56103036D01*
X153765288Y-56202738D01*
X153672314Y-56313542D01*
X153565692Y-56419964D01*
X153556000Y-56427919D01*
X153556000Y-55480906D01*
X153541467Y-55279746D01*
X153495729Y-55111394D01*
X153415577Y-54966267D01*
X153361059Y-54898826D01*
X153225344Y-54783811D01*
X153066445Y-54709602D01*
X152891552Y-54676285D01*
X152707857Y-54683948D01*
X152522552Y-54732679D01*
X152342828Y-54822564D01*
X152254250Y-54885373D01*
X152108200Y-55000742D01*
X152108200Y-55480992D01*
X152108200Y-55961241D01*
X152216150Y-56054338D01*
X152376173Y-56172565D01*
X152536650Y-56246757D01*
X152711592Y-56281697D01*
X152888453Y-56283782D01*
X153017335Y-56270309D01*
X153120634Y-56241646D01*
X153200889Y-56203782D01*
X153343766Y-56099467D01*
X153449734Y-55961721D01*
X153519211Y-55789688D01*
X153552619Y-55582514D01*
X153556000Y-55480906D01*
X153556000Y-56427919D01*
X153460242Y-56506524D01*
X153415452Y-56535853D01*
X153240202Y-56613331D01*
X153040596Y-56659866D01*
X152834413Y-56672891D01*
X152639434Y-56649836D01*
X152634424Y-56648673D01*
X152519974Y-56612407D01*
X152404423Y-56554486D01*
X152273258Y-56467351D01*
X152241550Y-56444020D01*
X152108200Y-56344554D01*
X152108200Y-56442549D01*
X152087080Y-56539196D01*
X152031545Y-56609240D01*
X151953329Y-56647059D01*
X151864169Y-56647029D01*
X151775799Y-56603528D01*
X151774463Y-56602454D01*
X151714500Y-56553908D01*
X151707279Y-55046704D01*
X151706208Y-54773144D01*
X151705654Y-54513648D01*
X151705596Y-54272858D01*
X151706013Y-54055418D01*
X151706886Y-53865970D01*
X151708192Y-53709158D01*
X151709912Y-53589623D01*
X151712024Y-53512010D01*
X151714275Y-53481703D01*
X151757938Y-53394458D01*
X151829964Y-53341576D01*
X151917981Y-53327066D01*
X152009621Y-53354938D01*
X152040818Y-53375884D01*
X152107287Y-53428169D01*
X152114093Y-54022897D01*
X152120900Y-54617625D01*
X152247900Y-54516681D01*
X152394186Y-54416223D01*
X152542534Y-54350440D01*
X152708030Y-54314368D01*
X152896917Y-54303082D01*
X153013784Y-54303573D01*
X153097951Y-54309447D01*
X153167495Y-54324579D01*
X153240491Y-54352842D01*
X153331016Y-54396135D01*
X153535867Y-54524908D01*
X153707036Y-54691335D01*
X153816804Y-54847971D01*
X153897281Y-55029927D01*
X153946486Y-55239582D01*
X153964293Y-55464501D01*
X153964293Y-55464501D01*
X153964293Y-55464501D01*
G37*
X153964293Y-55464501D02*
X153950571Y-55692248D01*
X153905192Y-55910387D01*
X153829793Y-56103036D01*
X153765288Y-56202738D01*
X153672314Y-56313542D01*
X153565692Y-56419964D01*
X153556000Y-56427919D01*
X153556000Y-55480906D01*
X153541467Y-55279746D01*
X153495729Y-55111394D01*
X153415577Y-54966267D01*
X153361059Y-54898826D01*
X153225344Y-54783811D01*
X153066445Y-54709602D01*
X152891552Y-54676285D01*
X152707857Y-54683948D01*
X152522552Y-54732679D01*
X152342828Y-54822564D01*
X152254250Y-54885373D01*
X152108200Y-55000742D01*
X152108200Y-55480992D01*
X152108200Y-55961241D01*
X152216150Y-56054338D01*
X152376173Y-56172565D01*
X152536650Y-56246757D01*
X152711592Y-56281697D01*
X152888453Y-56283782D01*
X153017335Y-56270309D01*
X153120634Y-56241646D01*
X153200889Y-56203782D01*
X153343766Y-56099467D01*
X153449734Y-55961721D01*
X153519211Y-55789688D01*
X153552619Y-55582514D01*
X153556000Y-55480906D01*
X153556000Y-56427919D01*
X153460242Y-56506524D01*
X153415452Y-56535853D01*
X153240202Y-56613331D01*
X153040596Y-56659866D01*
X152834413Y-56672891D01*
X152639434Y-56649836D01*
X152634424Y-56648673D01*
X152519974Y-56612407D01*
X152404423Y-56554486D01*
X152273258Y-56467351D01*
X152241550Y-56444020D01*
X152108200Y-56344554D01*
X152108200Y-56442549D01*
X152087080Y-56539196D01*
X152031545Y-56609240D01*
X151953329Y-56647059D01*
X151864169Y-56647029D01*
X151775799Y-56603528D01*
X151774463Y-56602454D01*
X151714500Y-56553908D01*
X151707279Y-55046704D01*
X151706208Y-54773144D01*
X151705654Y-54513648D01*
X151705596Y-54272858D01*
X151706013Y-54055418D01*
X151706886Y-53865970D01*
X151708192Y-53709158D01*
X151709912Y-53589623D01*
X151712024Y-53512010D01*
X151714275Y-53481703D01*
X151757938Y-53394458D01*
X151829964Y-53341576D01*
X151917981Y-53327066D01*
X152009621Y-53354938D01*
X152040818Y-53375884D01*
X152107287Y-53428169D01*
X152114093Y-54022897D01*
X152120900Y-54617625D01*
X152247900Y-54516681D01*
X152394186Y-54416223D01*
X152542534Y-54350440D01*
X152708030Y-54314368D01*
X152896917Y-54303082D01*
X153013784Y-54303573D01*
X153097951Y-54309447D01*
X153167495Y-54324579D01*
X153240491Y-54352842D01*
X153331016Y-54396135D01*
X153535867Y-54524908D01*
X153707036Y-54691335D01*
X153816804Y-54847971D01*
X153897281Y-55029927D01*
X153946486Y-55239582D01*
X153964293Y-55464501D01*
X153964293Y-55464501D01*
G36*
X156702385Y-55432862D02*
X156692528Y-55678741D01*
X156641845Y-55907660D01*
X156552737Y-56115176D01*
X156427603Y-56296842D01*
X156400800Y-56322397D01*
X156400800Y-55482599D01*
X156388700Y-55455042D01*
X156355246Y-55391422D01*
X156304706Y-55299540D01*
X156241349Y-55187196D01*
X156193934Y-55104502D01*
X155987068Y-54746000D01*
X155552584Y-54746452D01*
X155118100Y-54746905D01*
X154906987Y-55114752D01*
X154695875Y-55482599D01*
X154906987Y-55850447D01*
X155118100Y-56218294D01*
X155552584Y-56218747D01*
X155987068Y-56219200D01*
X156193934Y-55860697D01*
X156263482Y-55739022D01*
X156323068Y-55632590D01*
X156368424Y-55549200D01*
X156395280Y-55496656D01*
X156400800Y-55482599D01*
X156400800Y-56322397D01*
X156268843Y-56448212D01*
X156078858Y-56564840D01*
X155879211Y-56637464D01*
X155731494Y-56662864D01*
X155558557Y-56672430D01*
X155383586Y-56665744D01*
X155258950Y-56648653D01*
X155052350Y-56583033D01*
X154865051Y-56473659D01*
X154702557Y-56325668D01*
X154570373Y-56144197D01*
X154474005Y-55934382D01*
X154465255Y-55908002D01*
X154429220Y-55745109D01*
X154412626Y-55556438D01*
X154415380Y-55361104D01*
X154437391Y-55178223D01*
X154469333Y-55052170D01*
X154569143Y-54827927D01*
X154702393Y-54641801D01*
X154868160Y-54494498D01*
X155065519Y-54386722D01*
X155293543Y-54319181D01*
X155459029Y-54297092D01*
X155709486Y-54300170D01*
X155940037Y-54347591D01*
X156146992Y-54436679D01*
X156326658Y-54564757D01*
X156475342Y-54729147D01*
X156589354Y-54927173D01*
X156665000Y-55156156D01*
X156669017Y-55174470D01*
X156702385Y-55432862D01*
X156702385Y-55432862D01*
X156702385Y-55432862D01*
G37*
X156702385Y-55432862D02*
X156692528Y-55678741D01*
X156641845Y-55907660D01*
X156552737Y-56115176D01*
X156427603Y-56296842D01*
X156400800Y-56322397D01*
X156400800Y-55482599D01*
X156388700Y-55455042D01*
X156355246Y-55391422D01*
X156304706Y-55299540D01*
X156241349Y-55187196D01*
X156193934Y-55104502D01*
X155987068Y-54746000D01*
X155552584Y-54746452D01*
X155118100Y-54746905D01*
X154906987Y-55114752D01*
X154695875Y-55482599D01*
X154906987Y-55850447D01*
X155118100Y-56218294D01*
X155552584Y-56218747D01*
X155987068Y-56219200D01*
X156193934Y-55860697D01*
X156263482Y-55739022D01*
X156323068Y-55632590D01*
X156368424Y-55549200D01*
X156395280Y-55496656D01*
X156400800Y-55482599D01*
X156400800Y-56322397D01*
X156268843Y-56448212D01*
X156078858Y-56564840D01*
X155879211Y-56637464D01*
X155731494Y-56662864D01*
X155558557Y-56672430D01*
X155383586Y-56665744D01*
X155258950Y-56648653D01*
X155052350Y-56583033D01*
X154865051Y-56473659D01*
X154702557Y-56325668D01*
X154570373Y-56144197D01*
X154474005Y-55934382D01*
X154465255Y-55908002D01*
X154429220Y-55745109D01*
X154412626Y-55556438D01*
X154415380Y-55361104D01*
X154437391Y-55178223D01*
X154469333Y-55052170D01*
X154569143Y-54827927D01*
X154702393Y-54641801D01*
X154868160Y-54494498D01*
X155065519Y-54386722D01*
X155293543Y-54319181D01*
X155459029Y-54297092D01*
X155709486Y-54300170D01*
X155940037Y-54347591D01*
X156146992Y-54436679D01*
X156326658Y-54564757D01*
X156475342Y-54729147D01*
X156589354Y-54927173D01*
X156665000Y-55156156D01*
X156669017Y-55174470D01*
X156702385Y-55432862D01*
X156702385Y-55432862D01*
G36*
X158533586Y-56422049D02*
X158523784Y-56498182D01*
X158489950Y-56555514D01*
X158402529Y-56607093D01*
X158279787Y-56645248D01*
X158135898Y-56667996D01*
X157985036Y-56673354D01*
X157841375Y-56659338D01*
X157803784Y-56651533D01*
X157673473Y-56598452D01*
X157558725Y-56510753D01*
X157476116Y-56401418D01*
X157470677Y-56390656D01*
X157455566Y-56357248D01*
X157443575Y-56322373D01*
X157434346Y-56280001D01*
X157427518Y-56224098D01*
X157422731Y-56148632D01*
X157419626Y-56047571D01*
X157417843Y-55914882D01*
X157417021Y-55744535D01*
X157416803Y-55530495D01*
X157416800Y-55487280D01*
X157416800Y-54695200D01*
X157253777Y-54695200D01*
X157142528Y-54692239D01*
X157064211Y-54680995D01*
X157019544Y-54657927D01*
X157009246Y-54619492D01*
X157034034Y-54562150D01*
X157094626Y-54482358D01*
X157191740Y-54376575D01*
X157326095Y-54241259D01*
X157350733Y-54216989D01*
X157459972Y-54111592D01*
X157558971Y-54019826D01*
X157641356Y-53947298D01*
X157700755Y-53899619D01*
X157730795Y-53882400D01*
X157730839Y-53882400D01*
X157775945Y-53902576D01*
X157805617Y-53964880D01*
X157820740Y-54071975D01*
X157823200Y-54160130D01*
X157823200Y-54339600D01*
X158111363Y-54339600D01*
X158257508Y-54342293D01*
X158360297Y-54352564D01*
X158426990Y-54373704D01*
X158464850Y-54409000D01*
X158481139Y-54461742D01*
X158483600Y-54508195D01*
X158478749Y-54576130D01*
X158459198Y-54624146D01*
X158417442Y-54655991D01*
X158345980Y-54675408D01*
X158237310Y-54686145D01*
X158117396Y-54691035D01*
X157823200Y-54699571D01*
X157823200Y-55441896D01*
X157823354Y-55656068D01*
X157824064Y-55825274D01*
X157825701Y-55955347D01*
X157828637Y-56052120D01*
X157833242Y-56121426D01*
X157839888Y-56169098D01*
X157848946Y-56200970D01*
X157860786Y-56222874D01*
X157873899Y-56238640D01*
X157956050Y-56291459D01*
X158071566Y-56314879D01*
X158211374Y-56307424D01*
X158251381Y-56300079D01*
X158372298Y-56286660D01*
X158458880Y-56305894D01*
X158514961Y-56356352D01*
X158533586Y-56422049D01*
X158533586Y-56422049D01*
X158533586Y-56422049D01*
G37*
X158533586Y-56422049D02*
X158523784Y-56498182D01*
X158489950Y-56555514D01*
X158402529Y-56607093D01*
X158279787Y-56645248D01*
X158135898Y-56667996D01*
X157985036Y-56673354D01*
X157841375Y-56659338D01*
X157803784Y-56651533D01*
X157673473Y-56598452D01*
X157558725Y-56510753D01*
X157476116Y-56401418D01*
X157470677Y-56390656D01*
X157455566Y-56357248D01*
X157443575Y-56322373D01*
X157434346Y-56280001D01*
X157427518Y-56224098D01*
X157422731Y-56148632D01*
X157419626Y-56047571D01*
X157417843Y-55914882D01*
X157417021Y-55744535D01*
X157416803Y-55530495D01*
X157416800Y-55487280D01*
X157416800Y-54695200D01*
X157253777Y-54695200D01*
X157142528Y-54692239D01*
X157064211Y-54680995D01*
X157019544Y-54657927D01*
X157009246Y-54619492D01*
X157034034Y-54562150D01*
X157094626Y-54482358D01*
X157191740Y-54376575D01*
X157326095Y-54241259D01*
X157350733Y-54216989D01*
X157459972Y-54111592D01*
X157558971Y-54019826D01*
X157641356Y-53947298D01*
X157700755Y-53899619D01*
X157730795Y-53882400D01*
X157730839Y-53882400D01*
X157775945Y-53902576D01*
X157805617Y-53964880D01*
X157820740Y-54071975D01*
X157823200Y-54160130D01*
X157823200Y-54339600D01*
X158111363Y-54339600D01*
X158257508Y-54342293D01*
X158360297Y-54352564D01*
X158426990Y-54373704D01*
X158464850Y-54409000D01*
X158481139Y-54461742D01*
X158483600Y-54508195D01*
X158478749Y-54576130D01*
X158459198Y-54624146D01*
X158417442Y-54655991D01*
X158345980Y-54675408D01*
X158237310Y-54686145D01*
X158117396Y-54691035D01*
X157823200Y-54699571D01*
X157823200Y-55441896D01*
X157823354Y-55656068D01*
X157824064Y-55825274D01*
X157825701Y-55955347D01*
X157828637Y-56052120D01*
X157833242Y-56121426D01*
X157839888Y-56169098D01*
X157848946Y-56200970D01*
X157860786Y-56222874D01*
X157873899Y-56238640D01*
X157956050Y-56291459D01*
X158071566Y-56314879D01*
X158211374Y-56307424D01*
X158251381Y-56300079D01*
X158372298Y-56286660D01*
X158458880Y-56305894D01*
X158514961Y-56356352D01*
X158533586Y-56422049D01*
X158533586Y-56422049D01*
G36*
X143544243Y-55564950D02*
X143544078Y-55768205D01*
X143543279Y-55856914D01*
X143540896Y-56057360D01*
X143538488Y-56213317D01*
X143535456Y-56331094D01*
X143531200Y-56416999D01*
X143525123Y-56477340D01*
X143516625Y-56518425D01*
X143505108Y-56546563D01*
X143489972Y-56568061D01*
X143474122Y-56585499D01*
X143395844Y-56636969D01*
X143305172Y-56649731D01*
X143220541Y-56621724D01*
X143210894Y-56614943D01*
X143184555Y-56588862D01*
X143163497Y-56551274D01*
X143147159Y-56496794D01*
X143134981Y-56420035D01*
X143126402Y-56315613D01*
X143120861Y-56178140D01*
X143117798Y-56002232D01*
X143116653Y-55782502D01*
X143116600Y-55709012D01*
X143116459Y-55501562D01*
X143115727Y-55338399D01*
X143113936Y-55213013D01*
X143110620Y-55118890D01*
X143105311Y-55049519D01*
X143097545Y-54998388D01*
X143086852Y-54958984D01*
X143072768Y-54924797D01*
X143058338Y-54896045D01*
X142975618Y-54783551D01*
X142864323Y-54711178D01*
X142722226Y-54677851D01*
X142604978Y-54677064D01*
X142446266Y-54701230D01*
X142302482Y-54755594D01*
X142161012Y-54846163D01*
X142047704Y-54942515D01*
X141897399Y-55081671D01*
X141897399Y-55803990D01*
X141897400Y-56526309D01*
X141835054Y-56588654D01*
X141753216Y-56640592D01*
X141694200Y-56651000D01*
X141605052Y-56627255D01*
X141553345Y-56588654D01*
X141491000Y-56526309D01*
X141491000Y-54987299D01*
X141491000Y-53448290D01*
X141553345Y-53385945D01*
X141637275Y-53333216D01*
X141728692Y-53327400D01*
X141815597Y-53368498D01*
X141835054Y-53385945D01*
X141897399Y-53448290D01*
X141897400Y-54074099D01*
X141897400Y-54699907D01*
X142030750Y-54579377D01*
X142128830Y-54501925D01*
X142245075Y-54425843D01*
X142329200Y-54380173D01*
X142416695Y-54341163D01*
X142490178Y-54317756D01*
X142568708Y-54306208D01*
X142671344Y-54302774D01*
X142722900Y-54302831D01*
X142849235Y-54306461D01*
X142941795Y-54317515D01*
X143017397Y-54338841D01*
X143069440Y-54361505D01*
X143234320Y-54468980D01*
X143366079Y-54613408D01*
X143462270Y-54791245D01*
X143520443Y-54998949D01*
X143523708Y-55018842D01*
X143531646Y-55099276D01*
X143537840Y-55222458D01*
X143542102Y-55380359D01*
X143544243Y-55564950D01*
X143544243Y-55564950D01*
X143544243Y-55564950D01*
G37*
X143544243Y-55564950D02*
X143544078Y-55768205D01*
X143543279Y-55856914D01*
X143540896Y-56057360D01*
X143538488Y-56213317D01*
X143535456Y-56331094D01*
X143531200Y-56416999D01*
X143525123Y-56477340D01*
X143516625Y-56518425D01*
X143505108Y-56546563D01*
X143489972Y-56568061D01*
X143474122Y-56585499D01*
X143395844Y-56636969D01*
X143305172Y-56649731D01*
X143220541Y-56621724D01*
X143210894Y-56614943D01*
X143184555Y-56588862D01*
X143163497Y-56551274D01*
X143147159Y-56496794D01*
X143134981Y-56420035D01*
X143126402Y-56315613D01*
X143120861Y-56178140D01*
X143117798Y-56002232D01*
X143116653Y-55782502D01*
X143116600Y-55709012D01*
X143116459Y-55501562D01*
X143115727Y-55338399D01*
X143113936Y-55213013D01*
X143110620Y-55118890D01*
X143105311Y-55049519D01*
X143097545Y-54998388D01*
X143086852Y-54958984D01*
X143072768Y-54924797D01*
X143058338Y-54896045D01*
X142975618Y-54783551D01*
X142864323Y-54711178D01*
X142722226Y-54677851D01*
X142604978Y-54677064D01*
X142446266Y-54701230D01*
X142302482Y-54755594D01*
X142161012Y-54846163D01*
X142047704Y-54942515D01*
X141897399Y-55081671D01*
X141897399Y-55803990D01*
X141897400Y-56526309D01*
X141835054Y-56588654D01*
X141753216Y-56640592D01*
X141694200Y-56651000D01*
X141605052Y-56627255D01*
X141553345Y-56588654D01*
X141491000Y-56526309D01*
X141491000Y-54987299D01*
X141491000Y-53448290D01*
X141553345Y-53385945D01*
X141637275Y-53333216D01*
X141728692Y-53327400D01*
X141815597Y-53368498D01*
X141835054Y-53385945D01*
X141897399Y-53448290D01*
X141897400Y-54074099D01*
X141897400Y-54699907D01*
X142030750Y-54579377D01*
X142128830Y-54501925D01*
X142245075Y-54425843D01*
X142329200Y-54380173D01*
X142416695Y-54341163D01*
X142490178Y-54317756D01*
X142568708Y-54306208D01*
X142671344Y-54302774D01*
X142722900Y-54302831D01*
X142849235Y-54306461D01*
X142941795Y-54317515D01*
X143017397Y-54338841D01*
X143069440Y-54361505D01*
X143234320Y-54468980D01*
X143366079Y-54613408D01*
X143462270Y-54791245D01*
X143520443Y-54998949D01*
X143523708Y-55018842D01*
X143531646Y-55099276D01*
X143537840Y-55222458D01*
X143542102Y-55380359D01*
X143544243Y-55564950D01*
X143544243Y-55564950D01*
G36*
X148624811Y-54495100D02*
X148619991Y-54544560D01*
X148598499Y-54584343D01*
X148549606Y-54654352D01*
X148479347Y-54746569D01*
X148393755Y-54852974D01*
X148334580Y-54923800D01*
X148235043Y-55041227D01*
X148138948Y-55154642D01*
X148054674Y-55254154D01*
X147990600Y-55329869D01*
X147968368Y-55356170D01*
X147871346Y-55471041D01*
X148238200Y-55914970D01*
X148344834Y-56045627D01*
X148440509Y-56165939D01*
X148520362Y-56269540D01*
X148579533Y-56350065D01*
X148613161Y-56401149D01*
X148618794Y-56413314D01*
X148615534Y-56484491D01*
X148582174Y-56560102D01*
X148530363Y-56619505D01*
X148490821Y-56640037D01*
X148437587Y-56649808D01*
X148389701Y-56646951D01*
X148340925Y-56626867D01*
X148285020Y-56584961D01*
X148215749Y-56516634D01*
X148126873Y-56417290D01*
X148023147Y-56295400D01*
X147924828Y-56178359D01*
X147834065Y-56069875D01*
X147757549Y-55977978D01*
X147701969Y-55910697D01*
X147677672Y-55880747D01*
X147620832Y-55808994D01*
X147321613Y-56185547D01*
X147224286Y-56307029D01*
X147134635Y-56417069D01*
X147058619Y-56508500D01*
X147002195Y-56574154D01*
X146971683Y-56606550D01*
X146891792Y-56646684D01*
X146802911Y-56646865D01*
X146723730Y-56608640D01*
X146699843Y-56584074D01*
X146668858Y-56540663D01*
X146650479Y-56499487D01*
X146647400Y-56455346D01*
X146662312Y-56403038D01*
X146697909Y-56337363D01*
X146756883Y-56253120D01*
X146841927Y-56145106D01*
X146955734Y-56008121D01*
X147064382Y-55879956D01*
X147190565Y-55728856D01*
X147282927Y-55611857D01*
X147340988Y-55529615D01*
X147364265Y-55482787D01*
X147363352Y-55473556D01*
X147341332Y-55445953D01*
X147292264Y-55385140D01*
X147221164Y-55297310D01*
X147133047Y-55188654D01*
X147032927Y-55065367D01*
X146994177Y-55017691D01*
X146876767Y-54872185D01*
X146788435Y-54759647D01*
X146725320Y-54674373D01*
X146683558Y-54610657D01*
X146659288Y-54562795D01*
X146648648Y-54525082D01*
X146647200Y-54505184D01*
X146669109Y-54422762D01*
X146725550Y-54358867D01*
X146802589Y-54320635D01*
X146886294Y-54315203D01*
X146958049Y-54345950D01*
X146986398Y-54375078D01*
X147040698Y-54437169D01*
X147115239Y-54525457D01*
X147204312Y-54633177D01*
X147302208Y-54753563D01*
X147306351Y-54758700D01*
X147402727Y-54876909D01*
X147488996Y-54980188D01*
X147559902Y-55062448D01*
X147610188Y-55117601D01*
X147634599Y-55139559D01*
X147635307Y-55139700D01*
X147657184Y-55120824D01*
X147705609Y-55068144D01*
X147775465Y-54987584D01*
X147861639Y-54885066D01*
X147959016Y-54766513D01*
X147981111Y-54739267D01*
X148116967Y-54574764D01*
X148225345Y-54450995D01*
X148305899Y-54368332D01*
X148358281Y-54327148D01*
X148368718Y-54322868D01*
X148459992Y-54321076D01*
X148540551Y-54355759D01*
X148599217Y-54417054D01*
X148624811Y-54495100D01*
X148624811Y-54495100D01*
X148624811Y-54495100D01*
G37*
X148624811Y-54495100D02*
X148619991Y-54544560D01*
X148598499Y-54584343D01*
X148549606Y-54654352D01*
X148479347Y-54746569D01*
X148393755Y-54852974D01*
X148334580Y-54923800D01*
X148235043Y-55041227D01*
X148138948Y-55154642D01*
X148054674Y-55254154D01*
X147990600Y-55329869D01*
X147968368Y-55356170D01*
X147871346Y-55471041D01*
X148238200Y-55914970D01*
X148344834Y-56045627D01*
X148440509Y-56165939D01*
X148520362Y-56269540D01*
X148579533Y-56350065D01*
X148613161Y-56401149D01*
X148618794Y-56413314D01*
X148615534Y-56484491D01*
X148582174Y-56560102D01*
X148530363Y-56619505D01*
X148490821Y-56640037D01*
X148437587Y-56649808D01*
X148389701Y-56646951D01*
X148340925Y-56626867D01*
X148285020Y-56584961D01*
X148215749Y-56516634D01*
X148126873Y-56417290D01*
X148023147Y-56295400D01*
X147924828Y-56178359D01*
X147834065Y-56069875D01*
X147757549Y-55977978D01*
X147701969Y-55910697D01*
X147677672Y-55880747D01*
X147620832Y-55808994D01*
X147321613Y-56185547D01*
X147224286Y-56307029D01*
X147134635Y-56417069D01*
X147058619Y-56508500D01*
X147002195Y-56574154D01*
X146971683Y-56606550D01*
X146891792Y-56646684D01*
X146802911Y-56646865D01*
X146723730Y-56608640D01*
X146699843Y-56584074D01*
X146668858Y-56540663D01*
X146650479Y-56499487D01*
X146647400Y-56455346D01*
X146662312Y-56403038D01*
X146697909Y-56337363D01*
X146756883Y-56253120D01*
X146841927Y-56145106D01*
X146955734Y-56008121D01*
X147064382Y-55879956D01*
X147190565Y-55728856D01*
X147282927Y-55611857D01*
X147340988Y-55529615D01*
X147364265Y-55482787D01*
X147363352Y-55473556D01*
X147341332Y-55445953D01*
X147292264Y-55385140D01*
X147221164Y-55297310D01*
X147133047Y-55188654D01*
X147032927Y-55065367D01*
X146994177Y-55017691D01*
X146876767Y-54872185D01*
X146788435Y-54759647D01*
X146725320Y-54674373D01*
X146683558Y-54610657D01*
X146659288Y-54562795D01*
X146648648Y-54525082D01*
X146647200Y-54505184D01*
X146669109Y-54422762D01*
X146725550Y-54358867D01*
X146802589Y-54320635D01*
X146886294Y-54315203D01*
X146958049Y-54345950D01*
X146986398Y-54375078D01*
X147040698Y-54437169D01*
X147115239Y-54525457D01*
X147204312Y-54633177D01*
X147302208Y-54753563D01*
X147306351Y-54758700D01*
X147402727Y-54876909D01*
X147488996Y-54980188D01*
X147559902Y-55062448D01*
X147610188Y-55117601D01*
X147634599Y-55139559D01*
X147635307Y-55139700D01*
X147657184Y-55120824D01*
X147705609Y-55068144D01*
X147775465Y-54987584D01*
X147861639Y-54885066D01*
X147959016Y-54766513D01*
X147981111Y-54739267D01*
X148116967Y-54574764D01*
X148225345Y-54450995D01*
X148305899Y-54368332D01*
X148358281Y-54327148D01*
X148368718Y-54322868D01*
X148459992Y-54321076D01*
X148540551Y-54355759D01*
X148599217Y-54417054D01*
X148624811Y-54495100D01*
X148624811Y-54495100D01*
D13*
X151668780Y-50689860D02*
X152029460Y-52160520D01*
X152029460Y-52160520D02*
X152308860Y-51098800D01*
X152308860Y-51098800D02*
X152618740Y-52170680D01*
X152618740Y-52170680D02*
X152959100Y-50720340D01*
X150248920Y-51380740D02*
X151038860Y-51370580D01*
X151038860Y-51370580D02*
X151049020Y-51380740D01*
X151049020Y-51380740D02*
X151049020Y-51370580D01*
X151089660Y-50659380D02*
X151089660Y-52201160D01*
X150200660Y-50649220D02*
X150200660Y-52218940D01*
X150200660Y-52218940D02*
X150210820Y-52208780D01*
X149649480Y-50750820D02*
X149298960Y-50669540D01*
X149298960Y-50669540D02*
X148978920Y-50659380D01*
X148978920Y-50659380D02*
X148740160Y-50860040D01*
X148740160Y-50860040D02*
X148709680Y-51129280D01*
X148709680Y-51129280D02*
X148950980Y-51370580D01*
X148950980Y-51370580D02*
X149339600Y-51500120D01*
X149339600Y-51500120D02*
X149519940Y-51660140D01*
X149519940Y-51660140D02*
X149560580Y-51959860D01*
X149560580Y-51959860D02*
X149329440Y-52180840D01*
X149329440Y-52180840D02*
X149009400Y-52208780D01*
X149009400Y-52208780D02*
X148658880Y-52099560D01*
X147620020Y-50649220D02*
X147371100Y-50669540D01*
X147371100Y-50669540D02*
X147129800Y-50910840D01*
X147129800Y-50910840D02*
X147040900Y-51401060D01*
X147040900Y-51401060D02*
X147068840Y-51749040D01*
X147068840Y-51749040D02*
X147269500Y-52069080D01*
X147269500Y-52069080D02*
X147520960Y-52191000D01*
X147520960Y-52191000D02*
X147830840Y-52119880D01*
X147830840Y-52119880D02*
X148049280Y-51939540D01*
X148049280Y-51939540D02*
X148120400Y-51479800D01*
X148120400Y-51479800D02*
X148069600Y-51070860D01*
X148069600Y-51070860D02*
X147960380Y-50788920D01*
X147960380Y-50788920D02*
X147599700Y-50659380D01*
X148219460Y-48929640D02*
X147960380Y-49490980D01*
X147960380Y-49490980D02*
X148498860Y-50009140D01*
X148498860Y-50009140D02*
X149019560Y-49739900D01*
X149019560Y-49739900D02*
X149298960Y-49899920D01*
X150739140Y-49879600D02*
X151069340Y-49689100D01*
X151069340Y-49689100D02*
X151508760Y-50019300D01*
X151508760Y-50019300D02*
X151981200Y-49529080D01*
X151981200Y-49529080D02*
X151699260Y-49049020D01*
X151699260Y-49049020D02*
X151889760Y-48579120D01*
X151889760Y-48579120D02*
X152499360Y-48391160D01*
X152499360Y-48391160D02*
X152499360Y-47710440D01*
X152499360Y-47710440D02*
X151940560Y-47570740D01*
X151940560Y-47570740D02*
X151739900Y-46999240D01*
X151739900Y-46999240D02*
X152009140Y-46529340D01*
X152009140Y-46529340D02*
X151539240Y-46018800D01*
X151539240Y-46018800D02*
X151021080Y-46280420D01*
X151021080Y-46280420D02*
X150551180Y-46079760D01*
X150551180Y-46079760D02*
X150381000Y-45538740D01*
X150381000Y-45538740D02*
X149690120Y-45520960D01*
X149690120Y-45520960D02*
X149479300Y-46069600D01*
X149479300Y-46069600D02*
X149060200Y-46239780D01*
X149060200Y-46239780D02*
X148509020Y-45970540D01*
X148509020Y-45970540D02*
X147990860Y-46498860D01*
X147990860Y-46498860D02*
X148239780Y-47039880D01*
X148239780Y-47039880D02*
X148069600Y-47519940D01*
X148069600Y-47519940D02*
X147520960Y-47619000D01*
X147520960Y-47619000D02*
X147510800Y-48320040D01*
X147510800Y-48320040D02*
X148069600Y-48520700D01*
X148069600Y-48520700D02*
X148209300Y-48919480D01*
X150350520Y-48899160D02*
X150650240Y-48749300D01*
X150650240Y-48749300D02*
X150850900Y-48551180D01*
X150850900Y-48551180D02*
X151000760Y-48149860D01*
X151000760Y-48149860D02*
X151000760Y-47751080D01*
X151000760Y-47751080D02*
X150850900Y-47400560D01*
X150850900Y-47400560D02*
X150398780Y-47050040D01*
X150398780Y-47050040D02*
X149949200Y-46999240D01*
X149949200Y-46999240D02*
X149550420Y-47100840D01*
X149550420Y-47100840D02*
X149149100Y-47448820D01*
X149149100Y-47448820D02*
X148999240Y-47900940D01*
X148999240Y-47900940D02*
X149050040Y-48398780D01*
X149050040Y-48398780D02*
X149298960Y-48701040D01*
X149298960Y-48701040D02*
X149649480Y-48899160D01*
X149649480Y-48899160D02*
X149298960Y-49899920D01*
X150350520Y-48899160D02*
X150749300Y-49899920D01*
D16*
X130800000Y-57600000D02*
G75*
G03X130800000Y-57600000I-100000J0D01*
G01*
X131000000Y-57600000D02*
G75*
G03X131000000Y-57600000I-300000J0D01*
G01*
X131200000Y-57600000D02*
G75*
G03X131200000Y-57600000I-500000J0D01*
G01*
X132001000Y-57499120D02*
X132001000Y-67600700D01*
X130901180Y-56399300D02*
X115999000Y-56399300D01*
X130901180Y-56399300D02*
X132001000Y-57499120D01*
X132001000Y-67600700D02*
X115999000Y-67600700D01*
X115999000Y-67600700D02*
X115999000Y-56399300D01*
D13*
X138250000Y-128650000D02*
X143250000Y-128650000D01*
X143250000Y-128650000D02*
X143250000Y-131850000D01*
X143250000Y-131850000D02*
X138250000Y-131850000D01*
X138250000Y-131850000D02*
X138250000Y-128650000D01*
X178075000Y-72500000D02*
X178075000Y-74500000D01*
X175925000Y-74500000D02*
X175925000Y-72500000D01*
X126075000Y-72500000D02*
X126075000Y-74500000D01*
X123925000Y-74500000D02*
X123925000Y-72500000D01*
D12*
X132785714Y-137952381D02*
X132785714Y-136952381D01*
X133166667Y-136952381D01*
X133261905Y-137000000D01*
X133309524Y-137047619D01*
X133357143Y-137142857D01*
X133357143Y-137285714D01*
X133309524Y-137380952D01*
X133261905Y-137428571D01*
X133166667Y-137476190D01*
X132785714Y-137476190D01*
X134309524Y-137952381D02*
X133738095Y-137952381D01*
X134023809Y-137952381D02*
X134023809Y-136952381D01*
X133928571Y-137095238D01*
X133833333Y-137190476D01*
X133738095Y-137238095D01*
X135261905Y-137952381D02*
X134690476Y-137952381D01*
X134976190Y-137952381D02*
X134976190Y-136952381D01*
X134880952Y-137095238D01*
X134785714Y-137190476D01*
X134690476Y-137238095D01*
X108833334Y-106857143D02*
X108785715Y-106904762D01*
X108642858Y-106952381D01*
X108547620Y-106952381D01*
X108404762Y-106904762D01*
X108309524Y-106809524D01*
X108261905Y-106714286D01*
X108214286Y-106523810D01*
X108214286Y-106380952D01*
X108261905Y-106190476D01*
X108309524Y-106095238D01*
X108404762Y-106000000D01*
X108547620Y-105952381D01*
X108642858Y-105952381D01*
X108785715Y-106000000D01*
X108833334Y-106047619D01*
X109166667Y-105952381D02*
X109785715Y-105952381D01*
X109452381Y-106333333D01*
X109595239Y-106333333D01*
X109690477Y-106380952D01*
X109738096Y-106428571D01*
X109785715Y-106523810D01*
X109785715Y-106761905D01*
X109738096Y-106857143D01*
X109690477Y-106904762D01*
X109595239Y-106952381D01*
X109309524Y-106952381D01*
X109214286Y-106904762D01*
X109166667Y-106857143D01*
X148607143Y-69166666D02*
X148654762Y-69214285D01*
X148702381Y-69357142D01*
X148702381Y-69452380D01*
X148654762Y-69595238D01*
X148559524Y-69690476D01*
X148464286Y-69738095D01*
X148273810Y-69785714D01*
X148130952Y-69785714D01*
X147940476Y-69738095D01*
X147845238Y-69690476D01*
X147750000Y-69595238D01*
X147702381Y-69452380D01*
X147702381Y-69357142D01*
X147750000Y-69214285D01*
X147797619Y-69166666D01*
X148035714Y-68309523D02*
X148702381Y-68309523D01*
X147654762Y-68547619D02*
X148369048Y-68785714D01*
X148369048Y-68166666D01*
X165857143Y-69166666D02*
X165904762Y-69214285D01*
X165952381Y-69357142D01*
X165952381Y-69452380D01*
X165904762Y-69595238D01*
X165809524Y-69690476D01*
X165714286Y-69738095D01*
X165523810Y-69785714D01*
X165380952Y-69785714D01*
X165190476Y-69738095D01*
X165095238Y-69690476D01*
X165000000Y-69595238D01*
X164952381Y-69452380D01*
X164952381Y-69357142D01*
X165000000Y-69214285D01*
X165047619Y-69166666D01*
X164952381Y-68261904D02*
X164952381Y-68738095D01*
X165428571Y-68785714D01*
X165380952Y-68738095D01*
X165333333Y-68642857D01*
X165333333Y-68404761D01*
X165380952Y-68309523D01*
X165428571Y-68261904D01*
X165523810Y-68214285D01*
X165761905Y-68214285D01*
X165857143Y-68261904D01*
X165904762Y-68309523D01*
X165952381Y-68404761D01*
X165952381Y-68642857D01*
X165904762Y-68738095D01*
X165857143Y-68785714D01*
X138357143Y-133916666D02*
X138404762Y-133964285D01*
X138452381Y-134107142D01*
X138452381Y-134202380D01*
X138404762Y-134345238D01*
X138309524Y-134440476D01*
X138214286Y-134488095D01*
X138023810Y-134535714D01*
X137880952Y-134535714D01*
X137690476Y-134488095D01*
X137595238Y-134440476D01*
X137500000Y-134345238D01*
X137452381Y-134202380D01*
X137452381Y-134107142D01*
X137500000Y-133964285D01*
X137547619Y-133916666D01*
X137452381Y-133583333D02*
X137452381Y-132916666D01*
X138452381Y-133345238D01*
X144607143Y-134166666D02*
X144654762Y-134214285D01*
X144702381Y-134357142D01*
X144702381Y-134452380D01*
X144654762Y-134595238D01*
X144559524Y-134690476D01*
X144464286Y-134738095D01*
X144273810Y-134785714D01*
X144130952Y-134785714D01*
X143940476Y-134738095D01*
X143845238Y-134690476D01*
X143750000Y-134595238D01*
X143702381Y-134452380D01*
X143702381Y-134357142D01*
X143750000Y-134214285D01*
X143797619Y-134166666D01*
X144130952Y-133595238D02*
X144083333Y-133690476D01*
X144035714Y-133738095D01*
X143940476Y-133785714D01*
X143892857Y-133785714D01*
X143797619Y-133738095D01*
X143750000Y-133690476D01*
X143702381Y-133595238D01*
X143702381Y-133404761D01*
X143750000Y-133309523D01*
X143797619Y-133261904D01*
X143892857Y-133214285D01*
X143940476Y-133214285D01*
X144035714Y-133261904D01*
X144083333Y-133309523D01*
X144130952Y-133404761D01*
X144130952Y-133595238D01*
X144178571Y-133690476D01*
X144226190Y-133738095D01*
X144321429Y-133785714D01*
X144511905Y-133785714D01*
X144607143Y-133738095D01*
X144654762Y-133690476D01*
X144702381Y-133595238D01*
X144702381Y-133404761D01*
X144654762Y-133309523D01*
X144607143Y-133261904D01*
X144511905Y-133214285D01*
X144321429Y-133214285D01*
X144226190Y-133261904D01*
X144178571Y-133309523D01*
X144130952Y-133404761D01*
X150607143Y-121857143D02*
X150559524Y-121904762D01*
X150416667Y-121952381D01*
X150321429Y-121952381D01*
X150178571Y-121904762D01*
X150083333Y-121809524D01*
X150035714Y-121714286D01*
X149988095Y-121523810D01*
X149988095Y-121380952D01*
X150035714Y-121190476D01*
X150083333Y-121095238D01*
X150178571Y-121000000D01*
X150321429Y-120952381D01*
X150416667Y-120952381D01*
X150559524Y-121000000D01*
X150607143Y-121047619D01*
X151559524Y-121952381D02*
X150988095Y-121952381D01*
X151273809Y-121952381D02*
X151273809Y-120952381D01*
X151178571Y-121095238D01*
X151083333Y-121190476D01*
X150988095Y-121238095D01*
X152178571Y-120952381D02*
X152273810Y-120952381D01*
X152369048Y-121000000D01*
X152416667Y-121047619D01*
X152464286Y-121142857D01*
X152511905Y-121333333D01*
X152511905Y-121571429D01*
X152464286Y-121761905D01*
X152416667Y-121857143D01*
X152369048Y-121904762D01*
X152273810Y-121952381D01*
X152178571Y-121952381D01*
X152083333Y-121904762D01*
X152035714Y-121857143D01*
X151988095Y-121761905D01*
X151940476Y-121571429D01*
X151940476Y-121333333D01*
X151988095Y-121142857D01*
X152035714Y-121047619D01*
X152083333Y-121000000D01*
X152178571Y-120952381D01*
X122107143Y-118607143D02*
X122059524Y-118654762D01*
X121916667Y-118702381D01*
X121821429Y-118702381D01*
X121678571Y-118654762D01*
X121583333Y-118559524D01*
X121535714Y-118464286D01*
X121488095Y-118273810D01*
X121488095Y-118130952D01*
X121535714Y-117940476D01*
X121583333Y-117845238D01*
X121678571Y-117750000D01*
X121821429Y-117702381D01*
X121916667Y-117702381D01*
X122059524Y-117750000D01*
X122107143Y-117797619D01*
X123059524Y-118702381D02*
X122488095Y-118702381D01*
X122773809Y-118702381D02*
X122773809Y-117702381D01*
X122678571Y-117845238D01*
X122583333Y-117940476D01*
X122488095Y-117988095D01*
X124011905Y-118702381D02*
X123440476Y-118702381D01*
X123726190Y-118702381D02*
X123726190Y-117702381D01*
X123630952Y-117845238D01*
X123535714Y-117940476D01*
X123440476Y-117988095D01*
X122107143Y-123107143D02*
X122059524Y-123154762D01*
X121916667Y-123202381D01*
X121821429Y-123202381D01*
X121678571Y-123154762D01*
X121583333Y-123059524D01*
X121535714Y-122964286D01*
X121488095Y-122773810D01*
X121488095Y-122630952D01*
X121535714Y-122440476D01*
X121583333Y-122345238D01*
X121678571Y-122250000D01*
X121821429Y-122202381D01*
X121916667Y-122202381D01*
X122059524Y-122250000D01*
X122107143Y-122297619D01*
X123059524Y-123202381D02*
X122488095Y-123202381D01*
X122773809Y-123202381D02*
X122773809Y-122202381D01*
X122678571Y-122345238D01*
X122583333Y-122440476D01*
X122488095Y-122488095D01*
X123440476Y-122297619D02*
X123488095Y-122250000D01*
X123583333Y-122202381D01*
X123821429Y-122202381D01*
X123916667Y-122250000D01*
X123964286Y-122297619D01*
X124011905Y-122392857D01*
X124011905Y-122488095D01*
X123964286Y-122630952D01*
X123392857Y-123202381D01*
X124011905Y-123202381D01*
X134607143Y-115142857D02*
X134654762Y-115190476D01*
X134702381Y-115333333D01*
X134702381Y-115428571D01*
X134654762Y-115571429D01*
X134559524Y-115666667D01*
X134464286Y-115714286D01*
X134273810Y-115761905D01*
X134130952Y-115761905D01*
X133940476Y-115714286D01*
X133845238Y-115666667D01*
X133750000Y-115571429D01*
X133702381Y-115428571D01*
X133702381Y-115333333D01*
X133750000Y-115190476D01*
X133797619Y-115142857D01*
X134702381Y-114190476D02*
X134702381Y-114761905D01*
X134702381Y-114476191D02*
X133702381Y-114476191D01*
X133845238Y-114571429D01*
X133940476Y-114666667D01*
X133988095Y-114761905D01*
X133702381Y-113857143D02*
X133702381Y-113238095D01*
X134083333Y-113571429D01*
X134083333Y-113428571D01*
X134130952Y-113333333D01*
X134178571Y-113285714D01*
X134273810Y-113238095D01*
X134511905Y-113238095D01*
X134607143Y-113285714D01*
X134654762Y-113333333D01*
X134702381Y-113428571D01*
X134702381Y-113714286D01*
X134654762Y-113809524D01*
X134607143Y-113857143D01*
X134357143Y-130392857D02*
X134404762Y-130440476D01*
X134452381Y-130583333D01*
X134452381Y-130678571D01*
X134404762Y-130821429D01*
X134309524Y-130916667D01*
X134214286Y-130964286D01*
X134023810Y-131011905D01*
X133880952Y-131011905D01*
X133690476Y-130964286D01*
X133595238Y-130916667D01*
X133500000Y-130821429D01*
X133452381Y-130678571D01*
X133452381Y-130583333D01*
X133500000Y-130440476D01*
X133547619Y-130392857D01*
X134452381Y-129440476D02*
X134452381Y-130011905D01*
X134452381Y-129726191D02*
X133452381Y-129726191D01*
X133595238Y-129821429D01*
X133690476Y-129916667D01*
X133738095Y-130011905D01*
X133785714Y-128583333D02*
X134452381Y-128583333D01*
X133404762Y-128821429D02*
X134119048Y-129059524D01*
X134119048Y-128440476D01*
X150357143Y-119607143D02*
X150309524Y-119654762D01*
X150166667Y-119702381D01*
X150071429Y-119702381D01*
X149928571Y-119654762D01*
X149833333Y-119559524D01*
X149785714Y-119464286D01*
X149738095Y-119273810D01*
X149738095Y-119130952D01*
X149785714Y-118940476D01*
X149833333Y-118845238D01*
X149928571Y-118750000D01*
X150071429Y-118702381D01*
X150166667Y-118702381D01*
X150309524Y-118750000D01*
X150357143Y-118797619D01*
X151309524Y-119702381D02*
X150738095Y-119702381D01*
X151023809Y-119702381D02*
X151023809Y-118702381D01*
X150928571Y-118845238D01*
X150833333Y-118940476D01*
X150738095Y-118988095D01*
X152214286Y-118702381D02*
X151738095Y-118702381D01*
X151690476Y-119178571D01*
X151738095Y-119130952D01*
X151833333Y-119083333D01*
X152071429Y-119083333D01*
X152166667Y-119130952D01*
X152214286Y-119178571D01*
X152261905Y-119273810D01*
X152261905Y-119511905D01*
X152214286Y-119607143D01*
X152166667Y-119654762D01*
X152071429Y-119702381D01*
X151833333Y-119702381D01*
X151738095Y-119654762D01*
X151690476Y-119607143D01*
X188707143Y-55392857D02*
X188754762Y-55440476D01*
X188802381Y-55583333D01*
X188802381Y-55678571D01*
X188754762Y-55821429D01*
X188659524Y-55916667D01*
X188564286Y-55964286D01*
X188373810Y-56011905D01*
X188230952Y-56011905D01*
X188040476Y-55964286D01*
X187945238Y-55916667D01*
X187850000Y-55821429D01*
X187802381Y-55678571D01*
X187802381Y-55583333D01*
X187850000Y-55440476D01*
X187897619Y-55392857D01*
X188802381Y-54440476D02*
X188802381Y-55011905D01*
X188802381Y-54726191D02*
X187802381Y-54726191D01*
X187945238Y-54821429D01*
X188040476Y-54916667D01*
X188088095Y-55011905D01*
X187802381Y-53583333D02*
X187802381Y-53773810D01*
X187850000Y-53869048D01*
X187897619Y-53916667D01*
X188040476Y-54011905D01*
X188230952Y-54059524D01*
X188611905Y-54059524D01*
X188707143Y-54011905D01*
X188754762Y-53964286D01*
X188802381Y-53869048D01*
X188802381Y-53678571D01*
X188754762Y-53583333D01*
X188707143Y-53535714D01*
X188611905Y-53488095D01*
X188373810Y-53488095D01*
X188278571Y-53535714D01*
X188230952Y-53583333D01*
X188183333Y-53678571D01*
X188183333Y-53869048D01*
X188230952Y-53964286D01*
X188278571Y-54011905D01*
X188373810Y-54059524D01*
X172607143Y-73892857D02*
X172654762Y-73940476D01*
X172702381Y-74083333D01*
X172702381Y-74178571D01*
X172654762Y-74321429D01*
X172559524Y-74416667D01*
X172464286Y-74464286D01*
X172273810Y-74511905D01*
X172130952Y-74511905D01*
X171940476Y-74464286D01*
X171845238Y-74416667D01*
X171750000Y-74321429D01*
X171702381Y-74178571D01*
X171702381Y-74083333D01*
X171750000Y-73940476D01*
X171797619Y-73892857D01*
X171797619Y-73511905D02*
X171750000Y-73464286D01*
X171702381Y-73369048D01*
X171702381Y-73130952D01*
X171750000Y-73035714D01*
X171797619Y-72988095D01*
X171892857Y-72940476D01*
X171988095Y-72940476D01*
X172130952Y-72988095D01*
X172702381Y-73559524D01*
X172702381Y-72940476D01*
X171702381Y-72321429D02*
X171702381Y-72226190D01*
X171750000Y-72130952D01*
X171797619Y-72083333D01*
X171892857Y-72035714D01*
X172083333Y-71988095D01*
X172321429Y-71988095D01*
X172511905Y-72035714D01*
X172607143Y-72083333D01*
X172654762Y-72130952D01*
X172702381Y-72226190D01*
X172702381Y-72321429D01*
X172654762Y-72416667D01*
X172607143Y-72464286D01*
X172511905Y-72511905D01*
X172321429Y-72559524D01*
X172083333Y-72559524D01*
X171892857Y-72511905D01*
X171797619Y-72464286D01*
X171750000Y-72416667D01*
X171702381Y-72321429D01*
X136607143Y-55392857D02*
X136654762Y-55440476D01*
X136702381Y-55583333D01*
X136702381Y-55678571D01*
X136654762Y-55821429D01*
X136559524Y-55916667D01*
X136464286Y-55964286D01*
X136273810Y-56011905D01*
X136130952Y-56011905D01*
X135940476Y-55964286D01*
X135845238Y-55916667D01*
X135750000Y-55821429D01*
X135702381Y-55678571D01*
X135702381Y-55583333D01*
X135750000Y-55440476D01*
X135797619Y-55392857D01*
X135797619Y-55011905D02*
X135750000Y-54964286D01*
X135702381Y-54869048D01*
X135702381Y-54630952D01*
X135750000Y-54535714D01*
X135797619Y-54488095D01*
X135892857Y-54440476D01*
X135988095Y-54440476D01*
X136130952Y-54488095D01*
X136702381Y-55059524D01*
X136702381Y-54440476D01*
X136702381Y-53488095D02*
X136702381Y-54059524D01*
X136702381Y-53773810D02*
X135702381Y-53773810D01*
X135845238Y-53869048D01*
X135940476Y-53964286D01*
X135988095Y-54059524D01*
X120357143Y-73642857D02*
X120404762Y-73690476D01*
X120452381Y-73833333D01*
X120452381Y-73928571D01*
X120404762Y-74071429D01*
X120309524Y-74166667D01*
X120214286Y-74214286D01*
X120023810Y-74261905D01*
X119880952Y-74261905D01*
X119690476Y-74214286D01*
X119595238Y-74166667D01*
X119500000Y-74071429D01*
X119452381Y-73928571D01*
X119452381Y-73833333D01*
X119500000Y-73690476D01*
X119547619Y-73642857D01*
X119547619Y-73261905D02*
X119500000Y-73214286D01*
X119452381Y-73119048D01*
X119452381Y-72880952D01*
X119500000Y-72785714D01*
X119547619Y-72738095D01*
X119642857Y-72690476D01*
X119738095Y-72690476D01*
X119880952Y-72738095D01*
X120452381Y-73309524D01*
X120452381Y-72690476D01*
X119452381Y-71785714D02*
X119452381Y-72261905D01*
X119928571Y-72309524D01*
X119880952Y-72261905D01*
X119833333Y-72166667D01*
X119833333Y-71928571D01*
X119880952Y-71833333D01*
X119928571Y-71785714D01*
X120023810Y-71738095D01*
X120261905Y-71738095D01*
X120357143Y-71785714D01*
X120404762Y-71833333D01*
X120452381Y-71928571D01*
X120452381Y-72166667D01*
X120404762Y-72261905D01*
X120357143Y-72309524D01*
X185452381Y-118988095D02*
X184452381Y-118988095D01*
X184452381Y-118750000D01*
X184500000Y-118607142D01*
X184595238Y-118511904D01*
X184690476Y-118464285D01*
X184880952Y-118416666D01*
X185023810Y-118416666D01*
X185214286Y-118464285D01*
X185309524Y-118511904D01*
X185404762Y-118607142D01*
X185452381Y-118750000D01*
X185452381Y-118988095D01*
X185452381Y-117464285D02*
X185452381Y-118035714D01*
X185452381Y-117750000D02*
X184452381Y-117750000D01*
X184595238Y-117845238D01*
X184690476Y-117940476D01*
X184738095Y-118035714D01*
X143202381Y-111988095D02*
X142202381Y-111988095D01*
X142202381Y-111750000D01*
X142250000Y-111607142D01*
X142345238Y-111511904D01*
X142440476Y-111464285D01*
X142630952Y-111416666D01*
X142773810Y-111416666D01*
X142964286Y-111464285D01*
X143059524Y-111511904D01*
X143154762Y-111607142D01*
X143202381Y-111750000D01*
X143202381Y-111988095D01*
X142297619Y-111035714D02*
X142250000Y-110988095D01*
X142202381Y-110892857D01*
X142202381Y-110654761D01*
X142250000Y-110559523D01*
X142297619Y-110511904D01*
X142392857Y-110464285D01*
X142488095Y-110464285D01*
X142630952Y-110511904D01*
X143202381Y-111083333D01*
X143202381Y-110464285D01*
X172452381Y-49964286D02*
X171452381Y-49964286D01*
X171452381Y-49726191D01*
X171500000Y-49583333D01*
X171595238Y-49488095D01*
X171690476Y-49440476D01*
X171880952Y-49392857D01*
X172023810Y-49392857D01*
X172214286Y-49440476D01*
X172309524Y-49488095D01*
X172404762Y-49583333D01*
X172452381Y-49726191D01*
X172452381Y-49964286D01*
X172452381Y-48440476D02*
X172452381Y-49011905D01*
X172452381Y-48726191D02*
X171452381Y-48726191D01*
X171595238Y-48821429D01*
X171690476Y-48916667D01*
X171738095Y-49011905D01*
X172452381Y-47488095D02*
X172452381Y-48059524D01*
X172452381Y-47773810D02*
X171452381Y-47773810D01*
X171595238Y-47869048D01*
X171690476Y-47964286D01*
X171738095Y-48059524D01*
X188452381Y-50214286D02*
X187452381Y-50214286D01*
X187452381Y-49976191D01*
X187500000Y-49833333D01*
X187595238Y-49738095D01*
X187690476Y-49690476D01*
X187880952Y-49642857D01*
X188023810Y-49642857D01*
X188214286Y-49690476D01*
X188309524Y-49738095D01*
X188404762Y-49833333D01*
X188452381Y-49976191D01*
X188452381Y-50214286D01*
X188452381Y-48690476D02*
X188452381Y-49261905D01*
X188452381Y-48976191D02*
X187452381Y-48976191D01*
X187595238Y-49071429D01*
X187690476Y-49166667D01*
X187738095Y-49261905D01*
X187547619Y-48309524D02*
X187500000Y-48261905D01*
X187452381Y-48166667D01*
X187452381Y-47928571D01*
X187500000Y-47833333D01*
X187547619Y-47785714D01*
X187642857Y-47738095D01*
X187738095Y-47738095D01*
X187880952Y-47785714D01*
X188452381Y-48357143D01*
X188452381Y-47738095D01*
X111452381Y-50214286D02*
X110452381Y-50214286D01*
X110452381Y-49976191D01*
X110500000Y-49833333D01*
X110595238Y-49738095D01*
X110690476Y-49690476D01*
X110880952Y-49642857D01*
X111023810Y-49642857D01*
X111214286Y-49690476D01*
X111309524Y-49738095D01*
X111404762Y-49833333D01*
X111452381Y-49976191D01*
X111452381Y-50214286D01*
X111452381Y-48690476D02*
X111452381Y-49261905D01*
X111452381Y-48976191D02*
X110452381Y-48976191D01*
X110595238Y-49071429D01*
X110690476Y-49166667D01*
X110738095Y-49261905D01*
X110452381Y-48357143D02*
X110452381Y-47738095D01*
X110833333Y-48071429D01*
X110833333Y-47928571D01*
X110880952Y-47833333D01*
X110928571Y-47785714D01*
X111023810Y-47738095D01*
X111261905Y-47738095D01*
X111357143Y-47785714D01*
X111404762Y-47833333D01*
X111452381Y-47928571D01*
X111452381Y-48214286D01*
X111404762Y-48309524D01*
X111357143Y-48357143D01*
X129452381Y-50214286D02*
X128452381Y-50214286D01*
X128452381Y-49976191D01*
X128500000Y-49833333D01*
X128595238Y-49738095D01*
X128690476Y-49690476D01*
X128880952Y-49642857D01*
X129023810Y-49642857D01*
X129214286Y-49690476D01*
X129309524Y-49738095D01*
X129404762Y-49833333D01*
X129452381Y-49976191D01*
X129452381Y-50214286D01*
X129452381Y-48690476D02*
X129452381Y-49261905D01*
X129452381Y-48976191D02*
X128452381Y-48976191D01*
X128595238Y-49071429D01*
X128690476Y-49166667D01*
X128738095Y-49261905D01*
X128785714Y-47833333D02*
X129452381Y-47833333D01*
X128404762Y-48071429D02*
X129119048Y-48309524D01*
X129119048Y-47690476D01*
X184928571Y-100833333D02*
X184928571Y-101166667D01*
X185452381Y-101166667D02*
X184452381Y-101166667D01*
X184452381Y-100690476D01*
X185452381Y-99785714D02*
X185452381Y-100357143D01*
X185452381Y-100071429D02*
X184452381Y-100071429D01*
X184595238Y-100166667D01*
X184690476Y-100261905D01*
X184738095Y-100357143D01*
X175416667Y-99452381D02*
X175416667Y-100166667D01*
X175369047Y-100309524D01*
X175273809Y-100404762D01*
X175130952Y-100452381D01*
X175035714Y-100452381D01*
X175892857Y-100452381D02*
X175892857Y-99452381D01*
X176273810Y-99452381D01*
X176369048Y-99500000D01*
X176416667Y-99547619D01*
X176464286Y-99642857D01*
X176464286Y-99785714D01*
X176416667Y-99880952D01*
X176369048Y-99928571D01*
X176273810Y-99976190D01*
X175892857Y-99976190D01*
X177416667Y-100452381D02*
X176845238Y-100452381D01*
X177130952Y-100452381D02*
X177130952Y-99452381D01*
X177035714Y-99595238D01*
X176940476Y-99690476D01*
X176845238Y-99738095D01*
X179916667Y-99452381D02*
X179916667Y-100166667D01*
X179869047Y-100309524D01*
X179773809Y-100404762D01*
X179630952Y-100452381D01*
X179535714Y-100452381D01*
X180392857Y-100452381D02*
X180392857Y-99452381D01*
X180773810Y-99452381D01*
X180869048Y-99500000D01*
X180916667Y-99547619D01*
X180964286Y-99642857D01*
X180964286Y-99785714D01*
X180916667Y-99880952D01*
X180869048Y-99928571D01*
X180773810Y-99976190D01*
X180392857Y-99976190D01*
X181345238Y-99547619D02*
X181392857Y-99500000D01*
X181488095Y-99452381D01*
X181726191Y-99452381D01*
X181821429Y-99500000D01*
X181869048Y-99547619D01*
X181916667Y-99642857D01*
X181916667Y-99738095D01*
X181869048Y-99880952D01*
X181297619Y-100452381D01*
X181916667Y-100452381D01*
X121202381Y-129583333D02*
X121916667Y-129583333D01*
X122059524Y-129630953D01*
X122154762Y-129726191D01*
X122202381Y-129869048D01*
X122202381Y-129964286D01*
X122202381Y-129107143D02*
X121202381Y-129107143D01*
X121202381Y-128726190D01*
X121250000Y-128630952D01*
X121297619Y-128583333D01*
X121392857Y-128535714D01*
X121535714Y-128535714D01*
X121630952Y-128583333D01*
X121678571Y-128630952D01*
X121726190Y-128726190D01*
X121726190Y-129107143D01*
X121202381Y-128202381D02*
X121202381Y-127583333D01*
X121583333Y-127916667D01*
X121583333Y-127773809D01*
X121630952Y-127678571D01*
X121678571Y-127630952D01*
X121773810Y-127583333D01*
X122011905Y-127583333D01*
X122107143Y-127630952D01*
X122154762Y-127678571D01*
X122202381Y-127773809D01*
X122202381Y-128059524D01*
X122154762Y-128154762D01*
X122107143Y-128202381D01*
X101666667Y-137452381D02*
X101666667Y-136452381D01*
X102000001Y-137166667D01*
X102333334Y-136452381D01*
X102333334Y-137452381D01*
X102809524Y-137452381D02*
X102809524Y-136452381D01*
X102809524Y-136928571D02*
X103380953Y-136928571D01*
X103380953Y-137452381D02*
X103380953Y-136452381D01*
X104380953Y-137452381D02*
X103809524Y-137452381D01*
X104095238Y-137452381D02*
X104095238Y-136452381D01*
X104000000Y-136595238D01*
X103904762Y-136690476D01*
X103809524Y-136738095D01*
X101666667Y-43452381D02*
X101666667Y-42452381D01*
X102000001Y-43166667D01*
X102333334Y-42452381D01*
X102333334Y-43452381D01*
X102809524Y-43452381D02*
X102809524Y-42452381D01*
X102809524Y-42928571D02*
X103380953Y-42928571D01*
X103380953Y-43452381D02*
X103380953Y-42452381D01*
X103809524Y-42547619D02*
X103857143Y-42500000D01*
X103952381Y-42452381D01*
X104190477Y-42452381D01*
X104285715Y-42500000D01*
X104333334Y-42547619D01*
X104380953Y-42642857D01*
X104380953Y-42738095D01*
X104333334Y-42880952D01*
X103761905Y-43452381D01*
X104380953Y-43452381D01*
X195666667Y-137452381D02*
X195666667Y-136452381D01*
X196000001Y-137166667D01*
X196333334Y-136452381D01*
X196333334Y-137452381D01*
X196809524Y-137452381D02*
X196809524Y-136452381D01*
X196809524Y-136928571D02*
X197380953Y-136928571D01*
X197380953Y-137452381D02*
X197380953Y-136452381D01*
X197761905Y-136452381D02*
X198380953Y-136452381D01*
X198047619Y-136833333D01*
X198190477Y-136833333D01*
X198285715Y-136880952D01*
X198333334Y-136928571D01*
X198380953Y-137023810D01*
X198380953Y-137261905D01*
X198333334Y-137357143D01*
X198285715Y-137404762D01*
X198190477Y-137452381D01*
X197904762Y-137452381D01*
X197809524Y-137404762D01*
X197761905Y-137357143D01*
X195666667Y-43452381D02*
X195666667Y-42452381D01*
X196000001Y-43166667D01*
X196333334Y-42452381D01*
X196333334Y-43452381D01*
X196809524Y-43452381D02*
X196809524Y-42452381D01*
X196809524Y-42928571D02*
X197380953Y-42928571D01*
X197380953Y-43452381D02*
X197380953Y-42452381D01*
X198285715Y-42785714D02*
X198285715Y-43452381D01*
X198047619Y-42404762D02*
X197809524Y-43119048D01*
X198428572Y-43119048D01*
X190452381Y-123738095D02*
X189452381Y-123738095D01*
X189452381Y-123357142D01*
X189500000Y-123261904D01*
X189547619Y-123214285D01*
X189642857Y-123166666D01*
X189785714Y-123166666D01*
X189880952Y-123214285D01*
X189928571Y-123261904D01*
X189976190Y-123357142D01*
X189976190Y-123738095D01*
X190452381Y-122214285D02*
X190452381Y-122785714D01*
X190452381Y-122500000D02*
X189452381Y-122500000D01*
X189595238Y-122595238D01*
X189690476Y-122690476D01*
X189738095Y-122785714D01*
X190702381Y-114738095D02*
X189702381Y-114738095D01*
X189702381Y-114357142D01*
X189750000Y-114261904D01*
X189797619Y-114214285D01*
X189892857Y-114166666D01*
X190035714Y-114166666D01*
X190130952Y-114214285D01*
X190178571Y-114261904D01*
X190226190Y-114357142D01*
X190226190Y-114738095D01*
X189797619Y-113785714D02*
X189750000Y-113738095D01*
X189702381Y-113642857D01*
X189702381Y-113404761D01*
X189750000Y-113309523D01*
X189797619Y-113261904D01*
X189892857Y-113214285D01*
X189988095Y-113214285D01*
X190130952Y-113261904D01*
X190702381Y-113833333D01*
X190702381Y-113214285D01*
X174261905Y-108452381D02*
X174261905Y-107452381D01*
X174642858Y-107452381D01*
X174738096Y-107500000D01*
X174785715Y-107547619D01*
X174833334Y-107642857D01*
X174833334Y-107785714D01*
X174785715Y-107880952D01*
X174738096Y-107928571D01*
X174642858Y-107976190D01*
X174261905Y-107976190D01*
X175166667Y-107452381D02*
X175785715Y-107452381D01*
X175452381Y-107833333D01*
X175595239Y-107833333D01*
X175690477Y-107880952D01*
X175738096Y-107928571D01*
X175785715Y-108023810D01*
X175785715Y-108261905D01*
X175738096Y-108357143D01*
X175690477Y-108404762D01*
X175595239Y-108452381D01*
X175309524Y-108452381D01*
X175214286Y-108404762D01*
X175166667Y-108357143D01*
X174261905Y-117452381D02*
X174261905Y-116452381D01*
X174642858Y-116452381D01*
X174738096Y-116500000D01*
X174785715Y-116547619D01*
X174833334Y-116642857D01*
X174833334Y-116785714D01*
X174785715Y-116880952D01*
X174738096Y-116928571D01*
X174642858Y-116976190D01*
X174261905Y-116976190D01*
X175690477Y-116785714D02*
X175690477Y-117452381D01*
X175452381Y-116404762D02*
X175214286Y-117119048D01*
X175833334Y-117119048D01*
X105702381Y-112988095D02*
X104702381Y-112988095D01*
X104702381Y-112607142D01*
X104750000Y-112511904D01*
X104797619Y-112464285D01*
X104892857Y-112416666D01*
X105035714Y-112416666D01*
X105130952Y-112464285D01*
X105178571Y-112511904D01*
X105226190Y-112607142D01*
X105226190Y-112988095D01*
X104702381Y-111559523D02*
X104702381Y-111750000D01*
X104750000Y-111845238D01*
X104797619Y-111892857D01*
X104940476Y-111988095D01*
X105130952Y-112035714D01*
X105511905Y-112035714D01*
X105607143Y-111988095D01*
X105654762Y-111940476D01*
X105702381Y-111845238D01*
X105702381Y-111654761D01*
X105654762Y-111559523D01*
X105607143Y-111511904D01*
X105511905Y-111464285D01*
X105273810Y-111464285D01*
X105178571Y-111511904D01*
X105130952Y-111559523D01*
X105083333Y-111654761D01*
X105083333Y-111845238D01*
X105130952Y-111940476D01*
X105178571Y-111988095D01*
X105273810Y-112035714D01*
X190952381Y-105738095D02*
X189952381Y-105738095D01*
X189952381Y-105357142D01*
X190000000Y-105261904D01*
X190047619Y-105214285D01*
X190142857Y-105166666D01*
X190285714Y-105166666D01*
X190380952Y-105214285D01*
X190428571Y-105261904D01*
X190476190Y-105357142D01*
X190476190Y-105738095D01*
X189952381Y-104833333D02*
X189952381Y-104166666D01*
X190952381Y-104595238D01*
X129552381Y-102738095D02*
X128552381Y-102738095D01*
X128552381Y-102357142D01*
X128600000Y-102261904D01*
X128647619Y-102214285D01*
X128742857Y-102166666D01*
X128885714Y-102166666D01*
X128980952Y-102214285D01*
X129028571Y-102261904D01*
X129076190Y-102357142D01*
X129076190Y-102738095D01*
X128980952Y-101595238D02*
X128933333Y-101690476D01*
X128885714Y-101738095D01*
X128790476Y-101785714D01*
X128742857Y-101785714D01*
X128647619Y-101738095D01*
X128600000Y-101690476D01*
X128552381Y-101595238D01*
X128552381Y-101404761D01*
X128600000Y-101309523D01*
X128647619Y-101261904D01*
X128742857Y-101214285D01*
X128790476Y-101214285D01*
X128885714Y-101261904D01*
X128933333Y-101309523D01*
X128980952Y-101404761D01*
X128980952Y-101595238D01*
X129028571Y-101690476D01*
X129076190Y-101738095D01*
X129171429Y-101785714D01*
X129361905Y-101785714D01*
X129457143Y-101738095D01*
X129504762Y-101690476D01*
X129552381Y-101595238D01*
X129552381Y-101404761D01*
X129504762Y-101309523D01*
X129457143Y-101261904D01*
X129361905Y-101214285D01*
X129171429Y-101214285D01*
X129076190Y-101261904D01*
X129028571Y-101309523D01*
X128980952Y-101404761D01*
X155261905Y-138952381D02*
X155261905Y-137952381D01*
X155642858Y-137952381D01*
X155738096Y-138000000D01*
X155785715Y-138047619D01*
X155833334Y-138142857D01*
X155833334Y-138285714D01*
X155785715Y-138380952D01*
X155738096Y-138428571D01*
X155642858Y-138476190D01*
X155261905Y-138476190D01*
X156309524Y-138952381D02*
X156500000Y-138952381D01*
X156595239Y-138904762D01*
X156642858Y-138857143D01*
X156738096Y-138714286D01*
X156785715Y-138523810D01*
X156785715Y-138142857D01*
X156738096Y-138047619D01*
X156690477Y-138000000D01*
X156595239Y-137952381D01*
X156404762Y-137952381D01*
X156309524Y-138000000D01*
X156261905Y-138047619D01*
X156214286Y-138142857D01*
X156214286Y-138380952D01*
X156261905Y-138476190D01*
X156309524Y-138523810D01*
X156404762Y-138571429D01*
X156595239Y-138571429D01*
X156690477Y-138523810D01*
X156738096Y-138476190D01*
X156785715Y-138380952D01*
X162035714Y-138952381D02*
X162035714Y-137952381D01*
X162416667Y-137952381D01*
X162511905Y-138000000D01*
X162559524Y-138047619D01*
X162607143Y-138142857D01*
X162607143Y-138285714D01*
X162559524Y-138380952D01*
X162511905Y-138428571D01*
X162416667Y-138476190D01*
X162035714Y-138476190D01*
X163559524Y-138952381D02*
X162988095Y-138952381D01*
X163273809Y-138952381D02*
X163273809Y-137952381D01*
X163178571Y-138095238D01*
X163083333Y-138190476D01*
X162988095Y-138238095D01*
X164178571Y-137952381D02*
X164273810Y-137952381D01*
X164369048Y-138000000D01*
X164416667Y-138047619D01*
X164464286Y-138142857D01*
X164511905Y-138333333D01*
X164511905Y-138571429D01*
X164464286Y-138761905D01*
X164416667Y-138857143D01*
X164369048Y-138904762D01*
X164273810Y-138952381D01*
X164178571Y-138952381D01*
X164083333Y-138904762D01*
X164035714Y-138857143D01*
X163988095Y-138761905D01*
X163940476Y-138571429D01*
X163940476Y-138333333D01*
X163988095Y-138142857D01*
X164035714Y-138047619D01*
X164083333Y-138000000D01*
X164178571Y-137952381D01*
X168202381Y-119464286D02*
X167202381Y-119464286D01*
X167202381Y-119083333D01*
X167250000Y-118988095D01*
X167297619Y-118940476D01*
X167392857Y-118892857D01*
X167535714Y-118892857D01*
X167630952Y-118940476D01*
X167678571Y-118988095D01*
X167726190Y-119083333D01*
X167726190Y-119464286D01*
X168202381Y-117940476D02*
X168202381Y-118511905D01*
X168202381Y-118226191D02*
X167202381Y-118226191D01*
X167345238Y-118321429D01*
X167440476Y-118416667D01*
X167488095Y-118511905D01*
X167297619Y-117559524D02*
X167250000Y-117511905D01*
X167202381Y-117416667D01*
X167202381Y-117178571D01*
X167250000Y-117083333D01*
X167297619Y-117035714D01*
X167392857Y-116988095D01*
X167488095Y-116988095D01*
X167630952Y-117035714D01*
X168202381Y-117607143D01*
X168202381Y-116988095D01*
X137785714Y-98372381D02*
X137785714Y-97372381D01*
X138166667Y-97372381D01*
X138261905Y-97420000D01*
X138309524Y-97467619D01*
X138357143Y-97562857D01*
X138357143Y-97705714D01*
X138309524Y-97800952D01*
X138261905Y-97848571D01*
X138166667Y-97896190D01*
X137785714Y-97896190D01*
X139309524Y-98372381D02*
X138738095Y-98372381D01*
X139023809Y-98372381D02*
X139023809Y-97372381D01*
X138928571Y-97515238D01*
X138833333Y-97610476D01*
X138738095Y-97658095D01*
X139642857Y-97372381D02*
X140261905Y-97372381D01*
X139928571Y-97753333D01*
X140071429Y-97753333D01*
X140166667Y-97800952D01*
X140214286Y-97848571D01*
X140261905Y-97943810D01*
X140261905Y-98181905D01*
X140214286Y-98277143D01*
X140166667Y-98324762D01*
X140071429Y-98372381D01*
X139785714Y-98372381D01*
X139690476Y-98324762D01*
X139642857Y-98277143D01*
X178785714Y-50452381D02*
X178785714Y-49452381D01*
X179166667Y-49452381D01*
X179261905Y-49500000D01*
X179309524Y-49547619D01*
X179357143Y-49642857D01*
X179357143Y-49785714D01*
X179309524Y-49880952D01*
X179261905Y-49928571D01*
X179166667Y-49976190D01*
X178785714Y-49976190D01*
X180309524Y-50452381D02*
X179738095Y-50452381D01*
X180023809Y-50452381D02*
X180023809Y-49452381D01*
X179928571Y-49595238D01*
X179833333Y-49690476D01*
X179738095Y-49738095D01*
X181166667Y-49785714D02*
X181166667Y-50452381D01*
X180928571Y-49404762D02*
X180690476Y-50119048D01*
X181309524Y-50119048D01*
X118785714Y-50202381D02*
X118785714Y-49202381D01*
X119166667Y-49202381D01*
X119261905Y-49250000D01*
X119309524Y-49297619D01*
X119357143Y-49392857D01*
X119357143Y-49535714D01*
X119309524Y-49630952D01*
X119261905Y-49678571D01*
X119166667Y-49726190D01*
X118785714Y-49726190D01*
X120309524Y-50202381D02*
X119738095Y-50202381D01*
X120023809Y-50202381D02*
X120023809Y-49202381D01*
X119928571Y-49345238D01*
X119833333Y-49440476D01*
X119738095Y-49488095D01*
X121214286Y-49202381D02*
X120738095Y-49202381D01*
X120690476Y-49678571D01*
X120738095Y-49630952D01*
X120833333Y-49583333D01*
X121071429Y-49583333D01*
X121166667Y-49630952D01*
X121214286Y-49678571D01*
X121261905Y-49773810D01*
X121261905Y-50011905D01*
X121214286Y-50107143D01*
X121166667Y-50154762D01*
X121071429Y-50202381D01*
X120833333Y-50202381D01*
X120738095Y-50154762D01*
X120690476Y-50107143D01*
X113535714Y-138952381D02*
X113535714Y-137952381D01*
X113916667Y-137952381D01*
X114011905Y-138000000D01*
X114059524Y-138047619D01*
X114107143Y-138142857D01*
X114107143Y-138285714D01*
X114059524Y-138380952D01*
X114011905Y-138428571D01*
X113916667Y-138476190D01*
X113535714Y-138476190D01*
X115059524Y-138952381D02*
X114488095Y-138952381D01*
X114773809Y-138952381D02*
X114773809Y-137952381D01*
X114678571Y-138095238D01*
X114583333Y-138190476D01*
X114488095Y-138238095D01*
X115916667Y-137952381D02*
X115726190Y-137952381D01*
X115630952Y-138000000D01*
X115583333Y-138047619D01*
X115488095Y-138190476D01*
X115440476Y-138380952D01*
X115440476Y-138761905D01*
X115488095Y-138857143D01*
X115535714Y-138904762D01*
X115630952Y-138952381D01*
X115821429Y-138952381D01*
X115916667Y-138904762D01*
X115964286Y-138857143D01*
X116011905Y-138761905D01*
X116011905Y-138523810D01*
X115964286Y-138428571D01*
X115916667Y-138380952D01*
X115821429Y-138333333D01*
X115630952Y-138333333D01*
X115535714Y-138380952D01*
X115488095Y-138428571D01*
X115440476Y-138523810D01*
X101952381Y-83214286D02*
X100952381Y-83214286D01*
X100952381Y-82833333D01*
X101000000Y-82738095D01*
X101047619Y-82690476D01*
X101142857Y-82642857D01*
X101285714Y-82642857D01*
X101380952Y-82690476D01*
X101428571Y-82738095D01*
X101476190Y-82833333D01*
X101476190Y-83214286D01*
X101952381Y-81690476D02*
X101952381Y-82261905D01*
X101952381Y-81976191D02*
X100952381Y-81976191D01*
X101095238Y-82071429D01*
X101190476Y-82166667D01*
X101238095Y-82261905D01*
X100952381Y-81357143D02*
X100952381Y-80690476D01*
X101952381Y-81119048D01*
X163785714Y-41952381D02*
X163785714Y-40952381D01*
X164166667Y-40952381D01*
X164261905Y-41000000D01*
X164309524Y-41047619D01*
X164357143Y-41142857D01*
X164357143Y-41285714D01*
X164309524Y-41380952D01*
X164261905Y-41428571D01*
X164166667Y-41476190D01*
X163785714Y-41476190D01*
X165309524Y-41952381D02*
X164738095Y-41952381D01*
X165023809Y-41952381D02*
X165023809Y-40952381D01*
X164928571Y-41095238D01*
X164833333Y-41190476D01*
X164738095Y-41238095D01*
X165880952Y-41380952D02*
X165785714Y-41333333D01*
X165738095Y-41285714D01*
X165690476Y-41190476D01*
X165690476Y-41142857D01*
X165738095Y-41047619D01*
X165785714Y-41000000D01*
X165880952Y-40952381D01*
X166071429Y-40952381D01*
X166166667Y-41000000D01*
X166214286Y-41047619D01*
X166261905Y-41142857D01*
X166261905Y-41190476D01*
X166214286Y-41285714D01*
X166166667Y-41333333D01*
X166071429Y-41380952D01*
X165880952Y-41380952D01*
X165785714Y-41428571D01*
X165738095Y-41476190D01*
X165690476Y-41571429D01*
X165690476Y-41761905D01*
X165738095Y-41857143D01*
X165785714Y-41904762D01*
X165880952Y-41952381D01*
X166071429Y-41952381D01*
X166166667Y-41904762D01*
X166214286Y-41857143D01*
X166261905Y-41761905D01*
X166261905Y-41571429D01*
X166214286Y-41476190D01*
X166166667Y-41428571D01*
X166071429Y-41380952D01*
X199202381Y-82964286D02*
X198202381Y-82964286D01*
X198202381Y-82583333D01*
X198250000Y-82488095D01*
X198297619Y-82440476D01*
X198392857Y-82392857D01*
X198535714Y-82392857D01*
X198630952Y-82440476D01*
X198678571Y-82488095D01*
X198726190Y-82583333D01*
X198726190Y-82964286D01*
X199202381Y-81440476D02*
X199202381Y-82011905D01*
X199202381Y-81726191D02*
X198202381Y-81726191D01*
X198345238Y-81821429D01*
X198440476Y-81916667D01*
X198488095Y-82011905D01*
X199202381Y-80964286D02*
X199202381Y-80773810D01*
X199154762Y-80678571D01*
X199107143Y-80630952D01*
X198964286Y-80535714D01*
X198773810Y-80488095D01*
X198392857Y-80488095D01*
X198297619Y-80535714D01*
X198250000Y-80583333D01*
X198202381Y-80678571D01*
X198202381Y-80869048D01*
X198250000Y-80964286D01*
X198297619Y-81011905D01*
X198392857Y-81059524D01*
X198630952Y-81059524D01*
X198726190Y-81011905D01*
X198773810Y-80964286D01*
X198821429Y-80869048D01*
X198821429Y-80678571D01*
X198773810Y-80583333D01*
X198726190Y-80535714D01*
X198630952Y-80488095D01*
X134035714Y-41952381D02*
X134035714Y-40952381D01*
X134416667Y-40952381D01*
X134511905Y-41000000D01*
X134559524Y-41047619D01*
X134607143Y-41142857D01*
X134607143Y-41285714D01*
X134559524Y-41380952D01*
X134511905Y-41428571D01*
X134416667Y-41476190D01*
X134035714Y-41476190D01*
X134988095Y-41047619D02*
X135035714Y-41000000D01*
X135130952Y-40952381D01*
X135369048Y-40952381D01*
X135464286Y-41000000D01*
X135511905Y-41047619D01*
X135559524Y-41142857D01*
X135559524Y-41238095D01*
X135511905Y-41380952D01*
X134940476Y-41952381D01*
X135559524Y-41952381D01*
X136178571Y-40952381D02*
X136273810Y-40952381D01*
X136369048Y-41000000D01*
X136416667Y-41047619D01*
X136464286Y-41142857D01*
X136511905Y-41333333D01*
X136511905Y-41571429D01*
X136464286Y-41761905D01*
X136416667Y-41857143D01*
X136369048Y-41904762D01*
X136273810Y-41952381D01*
X136178571Y-41952381D01*
X136083333Y-41904762D01*
X136035714Y-41857143D01*
X135988095Y-41761905D01*
X135940476Y-41571429D01*
X135940476Y-41333333D01*
X135988095Y-41142857D01*
X136035714Y-41047619D01*
X136083333Y-41000000D01*
X136178571Y-40952381D01*
X115535714Y-105702381D02*
X115535714Y-104702381D01*
X115916667Y-104702381D01*
X116011905Y-104750000D01*
X116059524Y-104797619D01*
X116107143Y-104892857D01*
X116107143Y-105035714D01*
X116059524Y-105130952D01*
X116011905Y-105178571D01*
X115916667Y-105226190D01*
X115535714Y-105226190D01*
X116488095Y-104797619D02*
X116535714Y-104750000D01*
X116630952Y-104702381D01*
X116869048Y-104702381D01*
X116964286Y-104750000D01*
X117011905Y-104797619D01*
X117059524Y-104892857D01*
X117059524Y-104988095D01*
X117011905Y-105130952D01*
X116440476Y-105702381D01*
X117059524Y-105702381D01*
X118011905Y-105702381D02*
X117440476Y-105702381D01*
X117726190Y-105702381D02*
X117726190Y-104702381D01*
X117630952Y-104845238D01*
X117535714Y-104940476D01*
X117440476Y-104988095D01*
X101952381Y-124464286D02*
X100952381Y-124464286D01*
X100952381Y-124083333D01*
X101000000Y-123988095D01*
X101047619Y-123940476D01*
X101142857Y-123892857D01*
X101285714Y-123892857D01*
X101380952Y-123940476D01*
X101428571Y-123988095D01*
X101476190Y-124083333D01*
X101476190Y-124464286D01*
X101047619Y-123511905D02*
X101000000Y-123464286D01*
X100952381Y-123369048D01*
X100952381Y-123130952D01*
X101000000Y-123035714D01*
X101047619Y-122988095D01*
X101142857Y-122940476D01*
X101238095Y-122940476D01*
X101380952Y-122988095D01*
X101952381Y-123559524D01*
X101952381Y-122940476D01*
X101047619Y-122559524D02*
X101000000Y-122511905D01*
X100952381Y-122416667D01*
X100952381Y-122178571D01*
X101000000Y-122083333D01*
X101047619Y-122035714D01*
X101142857Y-121988095D01*
X101238095Y-121988095D01*
X101380952Y-122035714D01*
X101952381Y-122607143D01*
X101952381Y-121988095D01*
X147785714Y-138952381D02*
X147785714Y-137952381D01*
X148166667Y-137952381D01*
X148261905Y-138000000D01*
X148309524Y-138047619D01*
X148357143Y-138142857D01*
X148357143Y-138285714D01*
X148309524Y-138380952D01*
X148261905Y-138428571D01*
X148166667Y-138476190D01*
X147785714Y-138476190D01*
X148738095Y-138047619D02*
X148785714Y-138000000D01*
X148880952Y-137952381D01*
X149119048Y-137952381D01*
X149214286Y-138000000D01*
X149261905Y-138047619D01*
X149309524Y-138142857D01*
X149309524Y-138238095D01*
X149261905Y-138380952D01*
X148690476Y-138952381D01*
X149309524Y-138952381D01*
X149642857Y-137952381D02*
X150261905Y-137952381D01*
X149928571Y-138333333D01*
X150071429Y-138333333D01*
X150166667Y-138380952D01*
X150214286Y-138428571D01*
X150261905Y-138523810D01*
X150261905Y-138761905D01*
X150214286Y-138857143D01*
X150166667Y-138904762D01*
X150071429Y-138952381D01*
X149785714Y-138952381D01*
X149690476Y-138904762D01*
X149642857Y-138857143D01*
X144785714Y-111952381D02*
X144785714Y-110952381D01*
X145166667Y-110952381D01*
X145261905Y-111000000D01*
X145309524Y-111047619D01*
X145357143Y-111142857D01*
X145357143Y-111285714D01*
X145309524Y-111380952D01*
X145261905Y-111428571D01*
X145166667Y-111476190D01*
X144785714Y-111476190D01*
X145738095Y-111047619D02*
X145785714Y-111000000D01*
X145880952Y-110952381D01*
X146119048Y-110952381D01*
X146214286Y-111000000D01*
X146261905Y-111047619D01*
X146309524Y-111142857D01*
X146309524Y-111238095D01*
X146261905Y-111380952D01*
X145690476Y-111952381D01*
X146309524Y-111952381D01*
X147214286Y-110952381D02*
X146738095Y-110952381D01*
X146690476Y-111428571D01*
X146738095Y-111380952D01*
X146833333Y-111333333D01*
X147071429Y-111333333D01*
X147166667Y-111380952D01*
X147214286Y-111428571D01*
X147261905Y-111523810D01*
X147261905Y-111761905D01*
X147214286Y-111857143D01*
X147166667Y-111904762D01*
X147071429Y-111952381D01*
X146833333Y-111952381D01*
X146738095Y-111904762D01*
X146690476Y-111857143D01*
X148785714Y-111952381D02*
X148785714Y-110952381D01*
X149166667Y-110952381D01*
X149261905Y-111000000D01*
X149309524Y-111047619D01*
X149357143Y-111142857D01*
X149357143Y-111285714D01*
X149309524Y-111380952D01*
X149261905Y-111428571D01*
X149166667Y-111476190D01*
X148785714Y-111476190D01*
X149738095Y-111047619D02*
X149785714Y-111000000D01*
X149880952Y-110952381D01*
X150119048Y-110952381D01*
X150214286Y-111000000D01*
X150261905Y-111047619D01*
X150309524Y-111142857D01*
X150309524Y-111238095D01*
X150261905Y-111380952D01*
X149690476Y-111952381D01*
X150309524Y-111952381D01*
X151166667Y-110952381D02*
X150976190Y-110952381D01*
X150880952Y-111000000D01*
X150833333Y-111047619D01*
X150738095Y-111190476D01*
X150690476Y-111380952D01*
X150690476Y-111761905D01*
X150738095Y-111857143D01*
X150785714Y-111904762D01*
X150880952Y-111952381D01*
X151071429Y-111952381D01*
X151166667Y-111904762D01*
X151214286Y-111857143D01*
X151261905Y-111761905D01*
X151261905Y-111523810D01*
X151214286Y-111428571D01*
X151166667Y-111380952D01*
X151071429Y-111333333D01*
X150880952Y-111333333D01*
X150785714Y-111380952D01*
X150738095Y-111428571D01*
X150690476Y-111523810D01*
X154535714Y-116202381D02*
X154535714Y-115202381D01*
X154916667Y-115202381D01*
X155011905Y-115250000D01*
X155059524Y-115297619D01*
X155107143Y-115392857D01*
X155107143Y-115535714D01*
X155059524Y-115630952D01*
X155011905Y-115678571D01*
X154916667Y-115726190D01*
X154535714Y-115726190D01*
X155488095Y-115297619D02*
X155535714Y-115250000D01*
X155630952Y-115202381D01*
X155869048Y-115202381D01*
X155964286Y-115250000D01*
X156011905Y-115297619D01*
X156059524Y-115392857D01*
X156059524Y-115488095D01*
X156011905Y-115630952D01*
X155440476Y-116202381D01*
X156059524Y-116202381D01*
X156392857Y-115202381D02*
X157059524Y-115202381D01*
X156630952Y-116202381D01*
X113154762Y-128547619D02*
X113059524Y-128500000D01*
X112964286Y-128404762D01*
X112821429Y-128261905D01*
X112726190Y-128214286D01*
X112630952Y-128214286D01*
X112678571Y-128452381D02*
X112583333Y-128404762D01*
X112488095Y-128309524D01*
X112440476Y-128119048D01*
X112440476Y-127785714D01*
X112488095Y-127595238D01*
X112583333Y-127500000D01*
X112678571Y-127452381D01*
X112869048Y-127452381D01*
X112964286Y-127500000D01*
X113059524Y-127595238D01*
X113107143Y-127785714D01*
X113107143Y-128119048D01*
X113059524Y-128309524D01*
X112964286Y-128404762D01*
X112869048Y-128452381D01*
X112678571Y-128452381D01*
X113964286Y-127785714D02*
X113964286Y-128452381D01*
X113726190Y-127404762D02*
X113488095Y-128119048D01*
X114107143Y-128119048D01*
X108833334Y-104702381D02*
X108500000Y-104226190D01*
X108261905Y-104702381D02*
X108261905Y-103702381D01*
X108642858Y-103702381D01*
X108738096Y-103750000D01*
X108785715Y-103797619D01*
X108833334Y-103892857D01*
X108833334Y-104035714D01*
X108785715Y-104130952D01*
X108738096Y-104178571D01*
X108642858Y-104226190D01*
X108261905Y-104226190D01*
X109785715Y-104702381D02*
X109214286Y-104702381D01*
X109500000Y-104702381D02*
X109500000Y-103702381D01*
X109404762Y-103845238D01*
X109309524Y-103940476D01*
X109214286Y-103988095D01*
X108833334Y-102452381D02*
X108500000Y-101976190D01*
X108261905Y-102452381D02*
X108261905Y-101452381D01*
X108642858Y-101452381D01*
X108738096Y-101500000D01*
X108785715Y-101547619D01*
X108833334Y-101642857D01*
X108833334Y-101785714D01*
X108785715Y-101880952D01*
X108738096Y-101928571D01*
X108642858Y-101976190D01*
X108261905Y-101976190D01*
X109690477Y-101785714D02*
X109690477Y-102452381D01*
X109452381Y-101404762D02*
X109214286Y-102119048D01*
X109833334Y-102119048D01*
X141452381Y-134166666D02*
X140976190Y-134500000D01*
X141452381Y-134738095D02*
X140452381Y-134738095D01*
X140452381Y-134357142D01*
X140500000Y-134261904D01*
X140547619Y-134214285D01*
X140642857Y-134166666D01*
X140785714Y-134166666D01*
X140880952Y-134214285D01*
X140928571Y-134261904D01*
X140976190Y-134357142D01*
X140976190Y-134738095D01*
X140880952Y-133595238D02*
X140833333Y-133690476D01*
X140785714Y-133738095D01*
X140690476Y-133785714D01*
X140642857Y-133785714D01*
X140547619Y-133738095D01*
X140500000Y-133690476D01*
X140452381Y-133595238D01*
X140452381Y-133404761D01*
X140500000Y-133309523D01*
X140547619Y-133261904D01*
X140642857Y-133214285D01*
X140690476Y-133214285D01*
X140785714Y-133261904D01*
X140833333Y-133309523D01*
X140880952Y-133404761D01*
X140880952Y-133595238D01*
X140928571Y-133690476D01*
X140976190Y-133738095D01*
X141071429Y-133785714D01*
X141261905Y-133785714D01*
X141357143Y-133738095D01*
X141404762Y-133690476D01*
X141452381Y-133595238D01*
X141452381Y-133404761D01*
X141404762Y-133309523D01*
X141357143Y-133261904D01*
X141261905Y-133214285D01*
X141071429Y-133214285D01*
X140976190Y-133261904D01*
X140928571Y-133309523D01*
X140880952Y-133404761D01*
X129702381Y-111416666D02*
X129226190Y-111750000D01*
X129702381Y-111988095D02*
X128702381Y-111988095D01*
X128702381Y-111607142D01*
X128750000Y-111511904D01*
X128797619Y-111464285D01*
X128892857Y-111416666D01*
X129035714Y-111416666D01*
X129130952Y-111464285D01*
X129178571Y-111511904D01*
X129226190Y-111607142D01*
X129226190Y-111988095D01*
X129702381Y-110940476D02*
X129702381Y-110750000D01*
X129654762Y-110654761D01*
X129607143Y-110607142D01*
X129464286Y-110511904D01*
X129273810Y-110464285D01*
X128892857Y-110464285D01*
X128797619Y-110511904D01*
X128750000Y-110559523D01*
X128702381Y-110654761D01*
X128702381Y-110845238D01*
X128750000Y-110940476D01*
X128797619Y-110988095D01*
X128892857Y-111035714D01*
X129130952Y-111035714D01*
X129226190Y-110988095D01*
X129273810Y-110940476D01*
X129321429Y-110845238D01*
X129321429Y-110654761D01*
X129273810Y-110559523D01*
X129226190Y-110511904D01*
X129130952Y-110464285D01*
X131952381Y-112392857D02*
X131476190Y-112726191D01*
X131952381Y-112964286D02*
X130952381Y-112964286D01*
X130952381Y-112583333D01*
X131000000Y-112488095D01*
X131047619Y-112440476D01*
X131142857Y-112392857D01*
X131285714Y-112392857D01*
X131380952Y-112440476D01*
X131428571Y-112488095D01*
X131476190Y-112583333D01*
X131476190Y-112964286D01*
X131952381Y-111440476D02*
X131952381Y-112011905D01*
X131952381Y-111726191D02*
X130952381Y-111726191D01*
X131095238Y-111821429D01*
X131190476Y-111916667D01*
X131238095Y-112011905D01*
X130952381Y-110821429D02*
X130952381Y-110726190D01*
X131000000Y-110630952D01*
X131047619Y-110583333D01*
X131142857Y-110535714D01*
X131333333Y-110488095D01*
X131571429Y-110488095D01*
X131761905Y-110535714D01*
X131857143Y-110583333D01*
X131904762Y-110630952D01*
X131952381Y-110726190D01*
X131952381Y-110821429D01*
X131904762Y-110916667D01*
X131857143Y-110964286D01*
X131761905Y-111011905D01*
X131571429Y-111059524D01*
X131333333Y-111059524D01*
X131142857Y-111011905D01*
X131047619Y-110964286D01*
X131000000Y-110916667D01*
X130952381Y-110821429D01*
X138702381Y-112142857D02*
X138226190Y-112476191D01*
X138702381Y-112714286D02*
X137702381Y-112714286D01*
X137702381Y-112333333D01*
X137750000Y-112238095D01*
X137797619Y-112190476D01*
X137892857Y-112142857D01*
X138035714Y-112142857D01*
X138130952Y-112190476D01*
X138178571Y-112238095D01*
X138226190Y-112333333D01*
X138226190Y-112714286D01*
X138702381Y-111190476D02*
X138702381Y-111761905D01*
X138702381Y-111476191D02*
X137702381Y-111476191D01*
X137845238Y-111571429D01*
X137940476Y-111666667D01*
X137988095Y-111761905D01*
X138702381Y-110238095D02*
X138702381Y-110809524D01*
X138702381Y-110523810D02*
X137702381Y-110523810D01*
X137845238Y-110619048D01*
X137940476Y-110714286D01*
X137988095Y-110809524D01*
X140952381Y-112392857D02*
X140476190Y-112726191D01*
X140952381Y-112964286D02*
X139952381Y-112964286D01*
X139952381Y-112583333D01*
X140000000Y-112488095D01*
X140047619Y-112440476D01*
X140142857Y-112392857D01*
X140285714Y-112392857D01*
X140380952Y-112440476D01*
X140428571Y-112488095D01*
X140476190Y-112583333D01*
X140476190Y-112964286D01*
X140952381Y-111440476D02*
X140952381Y-112011905D01*
X140952381Y-111726191D02*
X139952381Y-111726191D01*
X140095238Y-111821429D01*
X140190476Y-111916667D01*
X140238095Y-112011905D01*
X140047619Y-111059524D02*
X140000000Y-111011905D01*
X139952381Y-110916667D01*
X139952381Y-110678571D01*
X140000000Y-110583333D01*
X140047619Y-110535714D01*
X140142857Y-110488095D01*
X140238095Y-110488095D01*
X140380952Y-110535714D01*
X140952381Y-111107143D01*
X140952381Y-110488095D01*
X127452381Y-112392857D02*
X126976190Y-112726191D01*
X127452381Y-112964286D02*
X126452381Y-112964286D01*
X126452381Y-112583333D01*
X126500000Y-112488095D01*
X126547619Y-112440476D01*
X126642857Y-112392857D01*
X126785714Y-112392857D01*
X126880952Y-112440476D01*
X126928571Y-112488095D01*
X126976190Y-112583333D01*
X126976190Y-112964286D01*
X127452381Y-111440476D02*
X127452381Y-112011905D01*
X127452381Y-111726191D02*
X126452381Y-111726191D01*
X126595238Y-111821429D01*
X126690476Y-111916667D01*
X126738095Y-112011905D01*
X126452381Y-111107143D02*
X126452381Y-110488095D01*
X126833333Y-110821429D01*
X126833333Y-110678571D01*
X126880952Y-110583333D01*
X126928571Y-110535714D01*
X127023810Y-110488095D01*
X127261905Y-110488095D01*
X127357143Y-110535714D01*
X127404762Y-110583333D01*
X127452381Y-110678571D01*
X127452381Y-110964286D01*
X127404762Y-111059524D01*
X127357143Y-111107143D01*
X134202381Y-112142857D02*
X133726190Y-112476191D01*
X134202381Y-112714286D02*
X133202381Y-112714286D01*
X133202381Y-112333333D01*
X133250000Y-112238095D01*
X133297619Y-112190476D01*
X133392857Y-112142857D01*
X133535714Y-112142857D01*
X133630952Y-112190476D01*
X133678571Y-112238095D01*
X133726190Y-112333333D01*
X133726190Y-112714286D01*
X134202381Y-111190476D02*
X134202381Y-111761905D01*
X134202381Y-111476191D02*
X133202381Y-111476191D01*
X133345238Y-111571429D01*
X133440476Y-111666667D01*
X133488095Y-111761905D01*
X133535714Y-110333333D02*
X134202381Y-110333333D01*
X133154762Y-110571429D02*
X133869048Y-110809524D01*
X133869048Y-110190476D01*
X135357143Y-111452381D02*
X135023809Y-110976190D01*
X134785714Y-111452381D02*
X134785714Y-110452381D01*
X135166667Y-110452381D01*
X135261905Y-110500000D01*
X135309524Y-110547619D01*
X135357143Y-110642857D01*
X135357143Y-110785714D01*
X135309524Y-110880952D01*
X135261905Y-110928571D01*
X135166667Y-110976190D01*
X134785714Y-110976190D01*
X136309524Y-111452381D02*
X135738095Y-111452381D01*
X136023809Y-111452381D02*
X136023809Y-110452381D01*
X135928571Y-110595238D01*
X135833333Y-110690476D01*
X135738095Y-110738095D01*
X137214286Y-110452381D02*
X136738095Y-110452381D01*
X136690476Y-110928571D01*
X136738095Y-110880952D01*
X136833333Y-110833333D01*
X137071429Y-110833333D01*
X137166667Y-110880952D01*
X137214286Y-110928571D01*
X137261905Y-111023810D01*
X137261905Y-111261905D01*
X137214286Y-111357143D01*
X137166667Y-111404762D01*
X137071429Y-111452381D01*
X136833333Y-111452381D01*
X136738095Y-111404762D01*
X136690476Y-111357143D01*
X133607143Y-133452381D02*
X133273809Y-132976190D01*
X133035714Y-133452381D02*
X133035714Y-132452381D01*
X133416667Y-132452381D01*
X133511905Y-132500000D01*
X133559524Y-132547619D01*
X133607143Y-132642857D01*
X133607143Y-132785714D01*
X133559524Y-132880952D01*
X133511905Y-132928571D01*
X133416667Y-132976190D01*
X133035714Y-132976190D01*
X134559524Y-133452381D02*
X133988095Y-133452381D01*
X134273809Y-133452381D02*
X134273809Y-132452381D01*
X134178571Y-132595238D01*
X134083333Y-132690476D01*
X133988095Y-132738095D01*
X134892857Y-132452381D02*
X135559524Y-132452381D01*
X135130952Y-133452381D01*
X122107143Y-116452381D02*
X121773809Y-115976190D01*
X121535714Y-116452381D02*
X121535714Y-115452381D01*
X121916667Y-115452381D01*
X122011905Y-115500000D01*
X122059524Y-115547619D01*
X122107143Y-115642857D01*
X122107143Y-115785714D01*
X122059524Y-115880952D01*
X122011905Y-115928571D01*
X121916667Y-115976190D01*
X121535714Y-115976190D01*
X123059524Y-116452381D02*
X122488095Y-116452381D01*
X122773809Y-116452381D02*
X122773809Y-115452381D01*
X122678571Y-115595238D01*
X122583333Y-115690476D01*
X122488095Y-115738095D01*
X123630952Y-115880952D02*
X123535714Y-115833333D01*
X123488095Y-115785714D01*
X123440476Y-115690476D01*
X123440476Y-115642857D01*
X123488095Y-115547619D01*
X123535714Y-115500000D01*
X123630952Y-115452381D01*
X123821429Y-115452381D01*
X123916667Y-115500000D01*
X123964286Y-115547619D01*
X124011905Y-115642857D01*
X124011905Y-115690476D01*
X123964286Y-115785714D01*
X123916667Y-115833333D01*
X123821429Y-115880952D01*
X123630952Y-115880952D01*
X123535714Y-115928571D01*
X123488095Y-115976190D01*
X123440476Y-116071429D01*
X123440476Y-116261905D01*
X123488095Y-116357143D01*
X123535714Y-116404762D01*
X123630952Y-116452381D01*
X123821429Y-116452381D01*
X123916667Y-116404762D01*
X123964286Y-116357143D01*
X124011905Y-116261905D01*
X124011905Y-116071429D01*
X123964286Y-115976190D01*
X123916667Y-115928571D01*
X123821429Y-115880952D01*
X119552381Y-131142857D02*
X119076190Y-131476191D01*
X119552381Y-131714286D02*
X118552381Y-131714286D01*
X118552381Y-131333333D01*
X118600000Y-131238095D01*
X118647619Y-131190476D01*
X118742857Y-131142857D01*
X118885714Y-131142857D01*
X118980952Y-131190476D01*
X119028571Y-131238095D01*
X119076190Y-131333333D01*
X119076190Y-131714286D01*
X118647619Y-130761905D02*
X118600000Y-130714286D01*
X118552381Y-130619048D01*
X118552381Y-130380952D01*
X118600000Y-130285714D01*
X118647619Y-130238095D01*
X118742857Y-130190476D01*
X118838095Y-130190476D01*
X118980952Y-130238095D01*
X119552381Y-130809524D01*
X119552381Y-130190476D01*
X118980952Y-129619048D02*
X118933333Y-129714286D01*
X118885714Y-129761905D01*
X118790476Y-129809524D01*
X118742857Y-129809524D01*
X118647619Y-129761905D01*
X118600000Y-129714286D01*
X118552381Y-129619048D01*
X118552381Y-129428571D01*
X118600000Y-129333333D01*
X118647619Y-129285714D01*
X118742857Y-129238095D01*
X118790476Y-129238095D01*
X118885714Y-129285714D01*
X118933333Y-129333333D01*
X118980952Y-129428571D01*
X118980952Y-129619048D01*
X119028571Y-129714286D01*
X119076190Y-129761905D01*
X119171429Y-129809524D01*
X119361905Y-129809524D01*
X119457143Y-129761905D01*
X119504762Y-129714286D01*
X119552381Y-129619048D01*
X119552381Y-129428571D01*
X119504762Y-129333333D01*
X119457143Y-129285714D01*
X119361905Y-129238095D01*
X119171429Y-129238095D01*
X119076190Y-129285714D01*
X119028571Y-129333333D01*
X118980952Y-129428571D01*
X182452381Y-73642857D02*
X181976190Y-73976191D01*
X182452381Y-74214286D02*
X181452381Y-74214286D01*
X181452381Y-73833333D01*
X181500000Y-73738095D01*
X181547619Y-73690476D01*
X181642857Y-73642857D01*
X181785714Y-73642857D01*
X181880952Y-73690476D01*
X181928571Y-73738095D01*
X181976190Y-73833333D01*
X181976190Y-74214286D01*
X181452381Y-73309524D02*
X181452381Y-72690476D01*
X181833333Y-73023810D01*
X181833333Y-72880952D01*
X181880952Y-72785714D01*
X181928571Y-72738095D01*
X182023810Y-72690476D01*
X182261905Y-72690476D01*
X182357143Y-72738095D01*
X182404762Y-72785714D01*
X182452381Y-72880952D01*
X182452381Y-73166667D01*
X182404762Y-73261905D01*
X182357143Y-73309524D01*
X181452381Y-72071429D02*
X181452381Y-71976190D01*
X181500000Y-71880952D01*
X181547619Y-71833333D01*
X181642857Y-71785714D01*
X181833333Y-71738095D01*
X182071429Y-71738095D01*
X182261905Y-71785714D01*
X182357143Y-71833333D01*
X182404762Y-71880952D01*
X182452381Y-71976190D01*
X182452381Y-72071429D01*
X182404762Y-72166667D01*
X182357143Y-72214286D01*
X182261905Y-72261905D01*
X182071429Y-72309524D01*
X181833333Y-72309524D01*
X181642857Y-72261905D01*
X181547619Y-72214286D01*
X181500000Y-72166667D01*
X181452381Y-72071429D01*
X130452381Y-73642857D02*
X129976190Y-73976191D01*
X130452381Y-74214286D02*
X129452381Y-74214286D01*
X129452381Y-73833333D01*
X129500000Y-73738095D01*
X129547619Y-73690476D01*
X129642857Y-73642857D01*
X129785714Y-73642857D01*
X129880952Y-73690476D01*
X129928571Y-73738095D01*
X129976190Y-73833333D01*
X129976190Y-74214286D01*
X129452381Y-73309524D02*
X129452381Y-72690476D01*
X129833333Y-73023810D01*
X129833333Y-72880952D01*
X129880952Y-72785714D01*
X129928571Y-72738095D01*
X130023810Y-72690476D01*
X130261905Y-72690476D01*
X130357143Y-72738095D01*
X130404762Y-72785714D01*
X130452381Y-72880952D01*
X130452381Y-73166667D01*
X130404762Y-73261905D01*
X130357143Y-73309524D01*
X129452381Y-72357143D02*
X129452381Y-71738095D01*
X129833333Y-72071429D01*
X129833333Y-71928571D01*
X129880952Y-71833333D01*
X129928571Y-71785714D01*
X130023810Y-71738095D01*
X130261905Y-71738095D01*
X130357143Y-71785714D01*
X130404762Y-71833333D01*
X130452381Y-71928571D01*
X130452381Y-72214286D01*
X130404762Y-72309524D01*
X130357143Y-72357143D01*
X141577381Y-122511905D02*
X142386905Y-122511905D01*
X142482143Y-122464286D01*
X142529762Y-122416667D01*
X142577381Y-122321429D01*
X142577381Y-122130952D01*
X142529762Y-122035714D01*
X142482143Y-121988095D01*
X142386905Y-121940476D01*
X141577381Y-121940476D01*
X141910714Y-121035714D02*
X142577381Y-121035714D01*
X141529762Y-121273810D02*
X142244048Y-121511905D01*
X142244048Y-120892857D01*
X144452381Y-138738095D02*
X143452381Y-138738095D01*
X143452381Y-138500000D01*
X143500000Y-138357142D01*
X143595238Y-138261904D01*
X143690476Y-138214285D01*
X143880952Y-138166666D01*
X144023810Y-138166666D01*
X144214286Y-138214285D01*
X144309524Y-138261904D01*
X144404762Y-138357142D01*
X144452381Y-138500000D01*
X144452381Y-138738095D01*
X143785714Y-137309523D02*
X144452381Y-137309523D01*
X143404762Y-137547619D02*
X144119048Y-137785714D01*
X144119048Y-137166666D01*
X141452381Y-138738095D02*
X140452381Y-138738095D01*
X140452381Y-138500000D01*
X140500000Y-138357142D01*
X140595238Y-138261904D01*
X140690476Y-138214285D01*
X140880952Y-138166666D01*
X141023810Y-138166666D01*
X141214286Y-138214285D01*
X141309524Y-138261904D01*
X141404762Y-138357142D01*
X141452381Y-138500000D01*
X141452381Y-138738095D01*
X140452381Y-137261904D02*
X140452381Y-137738095D01*
X140928571Y-137785714D01*
X140880952Y-137738095D01*
X140833333Y-137642857D01*
X140833333Y-137404761D01*
X140880952Y-137309523D01*
X140928571Y-137261904D01*
X141023810Y-137214285D01*
X141261905Y-137214285D01*
X141357143Y-137261904D01*
X141404762Y-137309523D01*
X141452381Y-137404761D01*
X141452381Y-137642857D01*
X141404762Y-137738095D01*
X141357143Y-137785714D01*
X138452381Y-138738095D02*
X137452381Y-138738095D01*
X137452381Y-138500000D01*
X137500000Y-138357142D01*
X137595238Y-138261904D01*
X137690476Y-138214285D01*
X137880952Y-138166666D01*
X138023810Y-138166666D01*
X138214286Y-138214285D01*
X138309524Y-138261904D01*
X138404762Y-138357142D01*
X138452381Y-138500000D01*
X138452381Y-138738095D01*
X137452381Y-137309523D02*
X137452381Y-137500000D01*
X137500000Y-137595238D01*
X137547619Y-137642857D01*
X137690476Y-137738095D01*
X137880952Y-137785714D01*
X138261905Y-137785714D01*
X138357143Y-137738095D01*
X138404762Y-137690476D01*
X138452381Y-137595238D01*
X138452381Y-137404761D01*
X138404762Y-137309523D01*
X138357143Y-137261904D01*
X138261905Y-137214285D01*
X138023810Y-137214285D01*
X137928571Y-137261904D01*
X137880952Y-137309523D01*
X137833333Y-137404761D01*
X137833333Y-137595238D01*
X137880952Y-137690476D01*
X137928571Y-137738095D01*
X138023810Y-137785714D01*
X102261905Y-89452381D02*
X102261905Y-88452381D01*
X102500000Y-88452381D01*
X102642858Y-88500000D01*
X102738096Y-88595238D01*
X102785715Y-88690476D01*
X102833334Y-88880952D01*
X102833334Y-89023810D01*
X102785715Y-89214286D01*
X102738096Y-89309524D01*
X102642858Y-89404762D01*
X102500000Y-89452381D01*
X102261905Y-89452381D01*
X103166667Y-88452381D02*
X103833334Y-88452381D01*
X103404762Y-89452381D01*
X102261905Y-92452381D02*
X102261905Y-91452381D01*
X102500000Y-91452381D01*
X102642858Y-91500000D01*
X102738096Y-91595238D01*
X102785715Y-91690476D01*
X102833334Y-91880952D01*
X102833334Y-92023810D01*
X102785715Y-92214286D01*
X102738096Y-92309524D01*
X102642858Y-92404762D01*
X102500000Y-92452381D01*
X102261905Y-92452381D01*
X103404762Y-91880952D02*
X103309524Y-91833333D01*
X103261905Y-91785714D01*
X103214286Y-91690476D01*
X103214286Y-91642857D01*
X103261905Y-91547619D01*
X103309524Y-91500000D01*
X103404762Y-91452381D01*
X103595239Y-91452381D01*
X103690477Y-91500000D01*
X103738096Y-91547619D01*
X103785715Y-91642857D01*
X103785715Y-91690476D01*
X103738096Y-91785714D01*
X103690477Y-91833333D01*
X103595239Y-91880952D01*
X103404762Y-91880952D01*
X103309524Y-91928571D01*
X103261905Y-91976190D01*
X103214286Y-92071429D01*
X103214286Y-92261905D01*
X103261905Y-92357143D01*
X103309524Y-92404762D01*
X103404762Y-92452381D01*
X103595239Y-92452381D01*
X103690477Y-92404762D01*
X103738096Y-92357143D01*
X103785715Y-92261905D01*
X103785715Y-92071429D01*
X103738096Y-91976190D01*
X103690477Y-91928571D01*
X103595239Y-91880952D01*
X102261905Y-95452381D02*
X102261905Y-94452381D01*
X102500000Y-94452381D01*
X102642858Y-94500000D01*
X102738096Y-94595238D01*
X102785715Y-94690476D01*
X102833334Y-94880952D01*
X102833334Y-95023810D01*
X102785715Y-95214286D01*
X102738096Y-95309524D01*
X102642858Y-95404762D01*
X102500000Y-95452381D01*
X102261905Y-95452381D01*
X103309524Y-95452381D02*
X103500000Y-95452381D01*
X103595239Y-95404762D01*
X103642858Y-95357143D01*
X103738096Y-95214286D01*
X103785715Y-95023810D01*
X103785715Y-94642857D01*
X103738096Y-94547619D01*
X103690477Y-94500000D01*
X103595239Y-94452381D01*
X103404762Y-94452381D01*
X103309524Y-94500000D01*
X103261905Y-94547619D01*
X103214286Y-94642857D01*
X103214286Y-94880952D01*
X103261905Y-94976190D01*
X103309524Y-95023810D01*
X103404762Y-95071429D01*
X103595239Y-95071429D01*
X103690477Y-95023810D01*
X103738096Y-94976190D01*
X103785715Y-94880952D01*
X101785714Y-98452381D02*
X101785714Y-97452381D01*
X102023809Y-97452381D01*
X102166667Y-97500000D01*
X102261905Y-97595238D01*
X102309524Y-97690476D01*
X102357143Y-97880952D01*
X102357143Y-98023810D01*
X102309524Y-98214286D01*
X102261905Y-98309524D01*
X102166667Y-98404762D01*
X102023809Y-98452381D01*
X101785714Y-98452381D01*
X103309524Y-98452381D02*
X102738095Y-98452381D01*
X103023809Y-98452381D02*
X103023809Y-97452381D01*
X102928571Y-97595238D01*
X102833333Y-97690476D01*
X102738095Y-97738095D01*
X103928571Y-97452381D02*
X104023810Y-97452381D01*
X104119048Y-97500000D01*
X104166667Y-97547619D01*
X104214286Y-97642857D01*
X104261905Y-97833333D01*
X104261905Y-98071429D01*
X104214286Y-98261905D01*
X104166667Y-98357143D01*
X104119048Y-98404762D01*
X104023810Y-98452381D01*
X103928571Y-98452381D01*
X103833333Y-98404762D01*
X103785714Y-98357143D01*
X103738095Y-98261905D01*
X103690476Y-98071429D01*
X103690476Y-97833333D01*
X103738095Y-97642857D01*
X103785714Y-97547619D01*
X103833333Y-97500000D01*
X103928571Y-97452381D01*
X172666667Y-139404762D02*
X172809524Y-139452381D01*
X173047620Y-139452381D01*
X173142858Y-139404762D01*
X173190477Y-139357143D01*
X173238096Y-139261905D01*
X173238096Y-139166667D01*
X173190477Y-139071429D01*
X173142858Y-139023810D01*
X173047620Y-138976190D01*
X172857143Y-138928571D01*
X172761905Y-138880952D01*
X172714286Y-138833333D01*
X172666667Y-138738095D01*
X172666667Y-138642857D01*
X172714286Y-138547619D01*
X172761905Y-138500000D01*
X172857143Y-138452381D01*
X173095239Y-138452381D01*
X173238096Y-138500000D01*
X173571429Y-138452381D02*
X173809524Y-139452381D01*
X174000001Y-138738095D01*
X174190477Y-139452381D01*
X174428572Y-138452381D01*
X175333334Y-139452381D02*
X174761905Y-139452381D01*
X175047619Y-139452381D02*
X175047619Y-138452381D01*
X174952381Y-138595238D01*
X174857143Y-138690476D01*
X174761905Y-138738095D01*
X185666667Y-139304762D02*
X185809524Y-139352381D01*
X186047620Y-139352381D01*
X186142858Y-139304762D01*
X186190477Y-139257143D01*
X186238096Y-139161905D01*
X186238096Y-139066667D01*
X186190477Y-138971429D01*
X186142858Y-138923810D01*
X186047620Y-138876190D01*
X185857143Y-138828571D01*
X185761905Y-138780952D01*
X185714286Y-138733333D01*
X185666667Y-138638095D01*
X185666667Y-138542857D01*
X185714286Y-138447619D01*
X185761905Y-138400000D01*
X185857143Y-138352381D01*
X186095239Y-138352381D01*
X186238096Y-138400000D01*
X186571429Y-138352381D02*
X186809524Y-139352381D01*
X187000001Y-138638095D01*
X187190477Y-139352381D01*
X187428572Y-138352381D01*
X187761905Y-138447619D02*
X187809524Y-138400000D01*
X187904762Y-138352381D01*
X188142858Y-138352381D01*
X188238096Y-138400000D01*
X188285715Y-138447619D01*
X188333334Y-138542857D01*
X188333334Y-138638095D01*
X188285715Y-138780952D01*
X187714286Y-139352381D01*
X188333334Y-139352381D01*
X184202381Y-120238095D02*
X183202381Y-120238095D01*
X183202381Y-119857142D01*
X183250000Y-119761904D01*
X183297619Y-119714285D01*
X183392857Y-119666666D01*
X183535714Y-119666666D01*
X183630952Y-119714285D01*
X183678571Y-119761904D01*
X183726190Y-119857142D01*
X183726190Y-120238095D01*
X183202381Y-118761904D02*
X183202381Y-119238095D01*
X183678571Y-119285714D01*
X183630952Y-119238095D01*
X183583333Y-119142857D01*
X183583333Y-118904761D01*
X183630952Y-118809523D01*
X183678571Y-118761904D01*
X183773810Y-118714285D01*
X184011905Y-118714285D01*
X184107143Y-118761904D01*
X184154762Y-118809523D01*
X184202381Y-118904761D01*
X184202381Y-119142857D01*
X184154762Y-119238095D01*
X184107143Y-119285714D01*
X184202381Y-126714286D02*
X183202381Y-126714286D01*
X183202381Y-126333333D01*
X183250000Y-126238095D01*
X183297619Y-126190476D01*
X183392857Y-126142857D01*
X183535714Y-126142857D01*
X183630952Y-126190476D01*
X183678571Y-126238095D01*
X183726190Y-126333333D01*
X183726190Y-126714286D01*
X183297619Y-125761905D02*
X183250000Y-125714286D01*
X183202381Y-125619048D01*
X183202381Y-125380952D01*
X183250000Y-125285714D01*
X183297619Y-125238095D01*
X183392857Y-125190476D01*
X183488095Y-125190476D01*
X183630952Y-125238095D01*
X184202381Y-125809524D01*
X184202381Y-125190476D01*
X183535714Y-124333333D02*
X184202381Y-124333333D01*
X183154762Y-124571429D02*
X183869048Y-124809524D01*
X183869048Y-124190476D01*
X184988095Y-57452381D02*
X184988095Y-58261905D01*
X185035714Y-58357143D01*
X185083333Y-58404762D01*
X185178571Y-58452381D01*
X185369048Y-58452381D01*
X185464286Y-58404762D01*
X185511905Y-58357143D01*
X185559524Y-58261905D01*
X185559524Y-57452381D01*
X186511905Y-57452381D02*
X186035714Y-57452381D01*
X185988095Y-57928571D01*
X186035714Y-57880952D01*
X186130952Y-57833333D01*
X186369048Y-57833333D01*
X186464286Y-57880952D01*
X186511905Y-57928571D01*
X186559524Y-58023810D01*
X186559524Y-58261905D01*
X186511905Y-58357143D01*
X186464286Y-58404762D01*
X186369048Y-58452381D01*
X186130952Y-58452381D01*
X186035714Y-58404762D01*
X185988095Y-58357143D01*
X132988095Y-57452381D02*
X132988095Y-58261905D01*
X133035714Y-58357143D01*
X133083333Y-58404762D01*
X133178571Y-58452381D01*
X133369048Y-58452381D01*
X133464286Y-58404762D01*
X133511905Y-58357143D01*
X133559524Y-58261905D01*
X133559524Y-57452381D01*
X134464286Y-57452381D02*
X134273809Y-57452381D01*
X134178571Y-57500000D01*
X134130952Y-57547619D01*
X134035714Y-57690476D01*
X133988095Y-57880952D01*
X133988095Y-58261905D01*
X134035714Y-58357143D01*
X134083333Y-58404762D01*
X134178571Y-58452381D01*
X134369048Y-58452381D01*
X134464286Y-58404762D01*
X134511905Y-58357143D01*
X134559524Y-58261905D01*
X134559524Y-58023810D01*
X134511905Y-57928571D01*
X134464286Y-57880952D01*
X134369048Y-57833333D01*
X134178571Y-57833333D01*
X134083333Y-57880952D01*
X134035714Y-57928571D01*
X133988095Y-58023810D01*
D13*
X140273809Y-127726190D02*
X140273809Y-128202381D01*
X139940476Y-127202381D02*
X140273809Y-127726190D01*
X140607143Y-127202381D01*
X141464286Y-128202381D02*
X140892857Y-128202381D01*
X141178571Y-128202381D02*
X141178571Y-127202381D01*
X141083333Y-127345238D01*
X140988095Y-127440476D01*
X140892857Y-127488095D01*
X175152381Y-74142857D02*
X174676190Y-74476191D01*
X175152381Y-74714286D02*
X174152381Y-74714286D01*
X174152381Y-74333333D01*
X174200000Y-74238095D01*
X174247619Y-74190476D01*
X174342857Y-74142857D01*
X174485714Y-74142857D01*
X174580952Y-74190476D01*
X174628571Y-74238095D01*
X174676190Y-74333333D01*
X174676190Y-74714286D01*
X174152381Y-73809524D02*
X174152381Y-73190476D01*
X174533333Y-73523810D01*
X174533333Y-73380952D01*
X174580952Y-73285714D01*
X174628571Y-73238095D01*
X174723810Y-73190476D01*
X174961905Y-73190476D01*
X175057143Y-73238095D01*
X175104762Y-73285714D01*
X175152381Y-73380952D01*
X175152381Y-73666667D01*
X175104762Y-73761905D01*
X175057143Y-73809524D01*
X175152381Y-72238095D02*
X175152381Y-72809524D01*
X175152381Y-72523810D02*
X174152381Y-72523810D01*
X174295238Y-72619048D01*
X174390476Y-72714286D01*
X174438095Y-72809524D01*
X123152381Y-74142857D02*
X122676190Y-74476191D01*
X123152381Y-74714286D02*
X122152381Y-74714286D01*
X122152381Y-74333333D01*
X122200000Y-74238095D01*
X122247619Y-74190476D01*
X122342857Y-74142857D01*
X122485714Y-74142857D01*
X122580952Y-74190476D01*
X122628571Y-74238095D01*
X122676190Y-74333333D01*
X122676190Y-74714286D01*
X122152381Y-73809524D02*
X122152381Y-73190476D01*
X122533333Y-73523810D01*
X122533333Y-73380952D01*
X122580952Y-73285714D01*
X122628571Y-73238095D01*
X122723810Y-73190476D01*
X122961905Y-73190476D01*
X123057143Y-73238095D01*
X123104762Y-73285714D01*
X123152381Y-73380952D01*
X123152381Y-73666667D01*
X123104762Y-73761905D01*
X123057143Y-73809524D01*
X122485714Y-72333333D02*
X123152381Y-72333333D01*
X122104762Y-72571429D02*
X122819048Y-72809524D01*
X122819048Y-72190476D01*
%LPC*%
D17*
X126301120Y-137302200D03*
D18*
X128698880Y-137302200D03*
D19*
X131299840Y-137302200D03*
D20*
X124401200Y-134752040D03*
D21*
X126202060Y-134625040D03*
X126852300Y-134625040D03*
X127500000Y-134625040D03*
X128147700Y-134625040D03*
X128797940Y-134625040D03*
D20*
X130598800Y-134752040D03*
D19*
X123700160Y-137302200D03*
D22*
X107450000Y-106500000D03*
X105550000Y-106500000D03*
D23*
X143000000Y-72251200D03*
X143000000Y-65748800D03*
D24*
X159000000Y-73000500D03*
X159000000Y-64999500D03*
D25*
X138000000Y-134950000D03*
X138000000Y-133050000D03*
X144000000Y-134950000D03*
X144000000Y-133050000D03*
D22*
X147050000Y-121500000D03*
X148950000Y-121500000D03*
X125050000Y-118250000D03*
X126950000Y-118250000D03*
X126950000Y-122750000D03*
X125050000Y-122750000D03*
D25*
X136000000Y-114200000D03*
X136000000Y-112300000D03*
X135750000Y-128550000D03*
X135750000Y-130450000D03*
D22*
X147050000Y-119250000D03*
X148950000Y-119250000D03*
D25*
X186250000Y-53800000D03*
X186250000Y-55700000D03*
X174000000Y-72050000D03*
X174000000Y-73950000D03*
X134000000Y-53800000D03*
X134000000Y-55700000D03*
X122000000Y-72050000D03*
X122000000Y-73950000D03*
D26*
X185000000Y-116199640D03*
X185000000Y-111800360D03*
D27*
X142750000Y-109555000D03*
X142750000Y-107445000D03*
D28*
X174000000Y-47365000D03*
X174000000Y-50635000D03*
X186000000Y-47365000D03*
X186000000Y-50635000D03*
X113000000Y-47365000D03*
X113000000Y-50635000D03*
X127000000Y-47365000D03*
X127000000Y-50635000D03*
D29*
X185000000Y-107000000D03*
X185000000Y-103000000D03*
D30*
X176250000Y-105000000D03*
D31*
X176250000Y-102460000D03*
D30*
X180750000Y-105000000D03*
D31*
X180750000Y-102460000D03*
D30*
X124250000Y-127500000D03*
D31*
X124250000Y-130040000D03*
D32*
X103000000Y-137000000D03*
X103000000Y-43000000D03*
X197000000Y-137000000D03*
X197000000Y-43000000D03*
D33*
X194000000Y-124981200D03*
X194000000Y-121018800D03*
X194000000Y-115981200D03*
X194000000Y-112018800D03*
D34*
X175750000Y-110500000D03*
D35*
X178290000Y-110500000D03*
X180830000Y-110500000D03*
D34*
X175750000Y-114500000D03*
D35*
X178290000Y-114500000D03*
X180830000Y-114500000D03*
D36*
X102750000Y-102000000D03*
D37*
X102750000Y-104540000D03*
X102750000Y-107080000D03*
X102750000Y-109620000D03*
X102750000Y-112160000D03*
D33*
X194000000Y-106981200D03*
X194000000Y-103018800D03*
D34*
X124000000Y-102000000D03*
D35*
X121460000Y-102000000D03*
X118920000Y-102000000D03*
X116380000Y-102000000D03*
X113840000Y-102000000D03*
X111300000Y-102000000D03*
D38*
X154730000Y-136000000D03*
X157270000Y-136000000D03*
X161730000Y-136000000D03*
X164270000Y-136000000D03*
D39*
X163500000Y-123330000D03*
X163500000Y-120790000D03*
X163500000Y-118250000D03*
X163500000Y-115710000D03*
X163500000Y-113170000D03*
D38*
X133920000Y-103000000D03*
X136460000Y-103000000D03*
X139000000Y-103000000D03*
X141540000Y-103000000D03*
X144080000Y-103000000D03*
D40*
X181981200Y-46000000D03*
X178018800Y-46000000D03*
X121981200Y-46000000D03*
X118018800Y-46000000D03*
D38*
X110940000Y-136000000D03*
X113480000Y-136000000D03*
X116020000Y-136000000D03*
X118560000Y-136000000D03*
D39*
X104000000Y-78190000D03*
X104000000Y-80730000D03*
X104000000Y-83270000D03*
X104000000Y-85810000D03*
D38*
X168810000Y-44000000D03*
X166270000Y-44000000D03*
X163730000Y-44000000D03*
X161190000Y-44000000D03*
D39*
X196000000Y-85810000D03*
X196000000Y-83270000D03*
X196000000Y-80730000D03*
X196000000Y-78190000D03*
D38*
X138810000Y-44000000D03*
X136270000Y-44000000D03*
X133730000Y-44000000D03*
X131190000Y-44000000D03*
D36*
X116750000Y-120500000D03*
D37*
X116750000Y-117960000D03*
X116750000Y-115420000D03*
X116750000Y-112880000D03*
X116750000Y-110340000D03*
X116750000Y-107800000D03*
D39*
X104000000Y-116650000D03*
X104000000Y-119190000D03*
X104000000Y-121730000D03*
X104000000Y-124270000D03*
X104000000Y-126810000D03*
X104000000Y-129350000D03*
D38*
X147730000Y-136000000D03*
X150270000Y-136000000D03*
D41*
X146000000Y-109000000D03*
X150000000Y-109000000D03*
X155750000Y-118250000D03*
D42*
X114200000Y-129499240D03*
X112300000Y-129499240D03*
X113250000Y-131498220D03*
D22*
X107450000Y-104250000D03*
X105550000Y-104250000D03*
X105550000Y-102000000D03*
X107450000Y-102000000D03*
D25*
X141000000Y-133050000D03*
X141000000Y-134950000D03*
X129250000Y-109450000D03*
X129250000Y-107550000D03*
X131500000Y-109450000D03*
X131500000Y-107550000D03*
X138250000Y-109450000D03*
X138250000Y-107550000D03*
X140500000Y-109450000D03*
X140500000Y-107550000D03*
X127000000Y-107550000D03*
X127000000Y-109450000D03*
X133750000Y-109450000D03*
X133750000Y-107550000D03*
X136000000Y-109450000D03*
X136000000Y-107550000D03*
D22*
X133300000Y-134750000D03*
X135200000Y-134750000D03*
X125050000Y-116000000D03*
X126950000Y-116000000D03*
D25*
X117000000Y-129550000D03*
X117000000Y-131450000D03*
X180000000Y-73950000D03*
X180000000Y-72050000D03*
X128000000Y-73950000D03*
X128000000Y-72050000D03*
D43*
X140000000Y-117300000D03*
X139500000Y-117300000D03*
X139000000Y-117300000D03*
X138500000Y-117300000D03*
X138000000Y-117300000D03*
X137500000Y-117300000D03*
X137000000Y-117300000D03*
X136500000Y-117300000D03*
X136000000Y-117300000D03*
X135500000Y-117300000D03*
X135000000Y-117300000D03*
X134500000Y-117300000D03*
X134000000Y-117300000D03*
X133500000Y-117300000D03*
X133000000Y-117300000D03*
X132500000Y-117300000D03*
D44*
X131800000Y-118000000D03*
X131800000Y-118500000D03*
X131800000Y-119000000D03*
X131800000Y-119500000D03*
X131800000Y-120000000D03*
X131800000Y-120500000D03*
X131800000Y-121000000D03*
X131800000Y-121500000D03*
X131800000Y-122000000D03*
X131800000Y-122500000D03*
X131800000Y-123000000D03*
X131800000Y-123500000D03*
X131800000Y-124000000D03*
X131800000Y-124500000D03*
X131800000Y-125000000D03*
X131800000Y-125500000D03*
D43*
X132500000Y-126200000D03*
X133000000Y-126200000D03*
X133500000Y-126200000D03*
X134000000Y-126200000D03*
X134500000Y-126200000D03*
X135000000Y-126200000D03*
X135500000Y-126200000D03*
X136000000Y-126200000D03*
X136500000Y-126200000D03*
X137000000Y-126200000D03*
X137500000Y-126200000D03*
X138000000Y-126200000D03*
X138500000Y-126200000D03*
X139000000Y-126200000D03*
X139500000Y-126200000D03*
X140000000Y-126200000D03*
D44*
X140700000Y-125500000D03*
X140700000Y-125000000D03*
X140700000Y-124500000D03*
X140700000Y-124000000D03*
X140700000Y-123500000D03*
X140700000Y-123000000D03*
X140700000Y-122500000D03*
X140700000Y-122000000D03*
X140700000Y-121500000D03*
X140700000Y-121000000D03*
X140700000Y-120500000D03*
X140700000Y-120000000D03*
X140700000Y-119500000D03*
X140700000Y-119000000D03*
X140700000Y-118500000D03*
X140700000Y-118000000D03*
D45*
X136250000Y-121750000D03*
D25*
X144000000Y-138950000D03*
X144000000Y-137050000D03*
X141000000Y-138950000D03*
X141000000Y-137050000D03*
X138000000Y-138950000D03*
X138000000Y-137050000D03*
D22*
X102050000Y-89000000D03*
X103950000Y-89000000D03*
X102050000Y-92000000D03*
X103950000Y-92000000D03*
X102050000Y-95000000D03*
X103950000Y-95000000D03*
X102050000Y-98000000D03*
X103950000Y-98000000D03*
D46*
X169550000Y-137000000D03*
X169550000Y-133000000D03*
X178450000Y-137000000D03*
X178450000Y-133000000D03*
X182550000Y-137000000D03*
X182550000Y-133000000D03*
X191450000Y-137000000D03*
X191450000Y-133000000D03*
D47*
X177750000Y-119500000D03*
X175250000Y-119500000D03*
X180250000Y-119500000D03*
X177750000Y-125500000D03*
X175250000Y-125500000D03*
X180250000Y-125500000D03*
D48*
X181715000Y-55154700D03*
X180445000Y-55152160D03*
X179175000Y-55152160D03*
X177905000Y-55152160D03*
X176635000Y-55152160D03*
X175365000Y-55152160D03*
X174095000Y-55152160D03*
X172825000Y-55152160D03*
D49*
X176000000Y-62000000D03*
D48*
X170285000Y-55154700D03*
X171555000Y-55152160D03*
X170285000Y-68847840D03*
X171555000Y-68847840D03*
X172825000Y-68847840D03*
X174095000Y-68847840D03*
X175365000Y-68847840D03*
X176635000Y-68847840D03*
X177905000Y-68847840D03*
X179175000Y-68847840D03*
X180445000Y-68847840D03*
X181715000Y-68845300D03*
D50*
X176000000Y-62000000D03*
D51*
X111535000Y-78475000D03*
X111535000Y-97525000D03*
X124225000Y-97525000D03*
X127415000Y-97525000D03*
X130585000Y-97525000D03*
X146465000Y-97525000D03*
X146465000Y-78475000D03*
X153535000Y-78475000D03*
X153535000Y-97525000D03*
X166225000Y-97525000D03*
X169415000Y-97525000D03*
X172585000Y-97525000D03*
X188465000Y-97525000D03*
X188465000Y-78475000D03*
D48*
X129715000Y-55154700D03*
X128445000Y-55152160D03*
X127175000Y-55152160D03*
X125905000Y-55152160D03*
X124635000Y-55152160D03*
X123365000Y-55152160D03*
X122095000Y-55152160D03*
X120825000Y-55152160D03*
D49*
X124000000Y-62000000D03*
D48*
X118285000Y-55154700D03*
X119555000Y-55152160D03*
X118285000Y-68847840D03*
X119555000Y-68847840D03*
X120825000Y-68847840D03*
X122095000Y-68847840D03*
X123365000Y-68847840D03*
X124635000Y-68847840D03*
X125905000Y-68847840D03*
X127175000Y-68847840D03*
X128445000Y-68847840D03*
X129715000Y-68845300D03*
D50*
X124000000Y-62000000D03*
D52*
X138750000Y-131450000D03*
X142750000Y-129050000D03*
X142750000Y-131450000D03*
X138750000Y-129050000D03*
D53*
X177000000Y-74950000D03*
X177000000Y-72050000D03*
X125000000Y-74950000D03*
X125000000Y-72050000D03*
M02*
