G04 #@! TF.FileFunction,Legend,Bot*
%FSLAX46Y46*%
G04 Gerber Fmt 4.6, Leading zero omitted, Abs format (unit mm)*
G04 Created by KiCad (PCBNEW 0.201506102247+5730~23~ubuntu15.04.1-product) date mar. 23 juin 2015 23:18:55 CEST*
%MOMM*%
G01*
G04 APERTURE LIST*
%ADD10C,0.100000*%
%ADD11C,0.150000*%
%ADD12C,0.200000*%
%ADD13R,1.300000X0.700000*%
%ADD14R,0.700000X1.300000*%
%ADD15R,0.450000X0.590000*%
%ADD16R,2.032000X2.032000*%
%ADD17O,2.032000X2.032000*%
%ADD18C,5.000000*%
%ADD19O,5.001260X2.999740*%
%ADD20R,1.727200X2.032000*%
%ADD21O,1.727200X2.032000*%
%ADD22R,2.032000X1.727200*%
%ADD23O,2.032000X1.727200*%
%ADD24O,1.800860X3.500120*%
%ADD25O,3.500120X1.800860*%
%ADD26O,2.999740X5.001260*%
%ADD27R,2.235200X2.235200*%
%ADD28R,0.800100X0.800100*%
%ADD29R,1.550000X0.600000*%
%ADD30C,1.800000*%
%ADD31C,2.100000*%
G04 APERTURE END LIST*
D10*
X100000000Y-137000000D02*
X100000000Y-43000000D01*
X197000000Y-140000000D02*
X103000000Y-140000000D01*
X200000000Y-43000000D02*
X200000000Y-137000000D01*
X103000000Y-40000000D02*
X197000000Y-40000000D01*
X200000000Y-43000000D02*
G75*
G03X197000000Y-40000000I-3000000J0D01*
G01*
X103000000Y-40000000D02*
G75*
G03X100000000Y-43000000I0J-3000000D01*
G01*
X100000000Y-137000000D02*
G75*
G03X103000000Y-140000000I3000000J0D01*
G01*
X197000000Y-140000000D02*
G75*
G03X200000000Y-137000000I0J3000000D01*
G01*
D11*
X110625000Y-92900000D02*
X110625000Y-94100000D01*
X112375000Y-94100000D02*
X112375000Y-92900000D01*
X157625000Y-99100000D02*
X157625000Y-97900000D01*
X155875000Y-97900000D02*
X155875000Y-99100000D01*
X126875000Y-87350000D02*
X126875000Y-86150000D01*
X125125000Y-86150000D02*
X125125000Y-87350000D01*
X116375000Y-87350000D02*
X116375000Y-86150000D01*
X114625000Y-86150000D02*
X114625000Y-87350000D01*
X174125000Y-42400000D02*
X174125000Y-43600000D01*
X175875000Y-43600000D02*
X175875000Y-42400000D01*
X177400000Y-42875000D02*
X178600000Y-42875000D01*
X178600000Y-41125000D02*
X177400000Y-41125000D01*
X184125000Y-42400000D02*
X184125000Y-43600000D01*
X185875000Y-43600000D02*
X185875000Y-42400000D01*
X114125000Y-42400000D02*
X114125000Y-43600000D01*
X115875000Y-43600000D02*
X115875000Y-42400000D01*
X117400000Y-42875000D02*
X118600000Y-42875000D01*
X118600000Y-41125000D02*
X117400000Y-41125000D01*
X124125000Y-42400000D02*
X124125000Y-43600000D01*
X125875000Y-43600000D02*
X125875000Y-42400000D01*
X121600000Y-89625000D02*
X120400000Y-89625000D01*
X120400000Y-91375000D02*
X121600000Y-91375000D01*
X161250000Y-98250000D02*
X161250000Y-98000000D01*
X161250000Y-98750000D02*
X161250000Y-99000000D01*
X161250000Y-98750000D02*
X161600000Y-98250000D01*
X161600000Y-98250000D02*
X160900000Y-98250000D01*
X160900000Y-98250000D02*
X161250000Y-98750000D01*
X161600000Y-98750000D02*
X160900000Y-98750000D01*
X160450000Y-99800000D02*
X160450000Y-97400000D01*
X162050000Y-99800000D02*
X162050000Y-97400000D01*
X171049160Y-111150240D02*
X171000900Y-111150240D01*
X168250180Y-110449200D02*
X168250180Y-111150240D01*
X168250180Y-111150240D02*
X168499100Y-111150240D01*
X171049160Y-111150240D02*
X171249820Y-111150240D01*
X171249820Y-111150240D02*
X171249820Y-110449200D01*
X171049160Y-115150240D02*
X171000900Y-115150240D01*
X168250180Y-114449200D02*
X168250180Y-115150240D01*
X168250180Y-115150240D02*
X168499100Y-115150240D01*
X171049160Y-115150240D02*
X171249820Y-115150240D01*
X171249820Y-115150240D02*
X171249820Y-114449200D01*
X171049160Y-121150240D02*
X171000900Y-121150240D01*
X168250180Y-120449200D02*
X168250180Y-121150240D01*
X168250180Y-121150240D02*
X168499100Y-121150240D01*
X171049160Y-121150240D02*
X171249820Y-121150240D01*
X171249820Y-121150240D02*
X171249820Y-120449200D01*
X134150000Y-98375000D02*
X135350000Y-98375000D01*
X135350000Y-96625000D02*
X134150000Y-96625000D01*
X176850000Y-95375000D02*
X175650000Y-95375000D01*
X175650000Y-97125000D02*
X176850000Y-97125000D01*
X171875000Y-109900000D02*
X171875000Y-111100000D01*
X173625000Y-111100000D02*
X173625000Y-109900000D01*
X171875000Y-113900000D02*
X171875000Y-115100000D01*
X173625000Y-115100000D02*
X173625000Y-113900000D01*
X170350000Y-122625000D02*
X169150000Y-122625000D01*
X169150000Y-124375000D02*
X170350000Y-124375000D01*
X116400000Y-98375000D02*
X117600000Y-98375000D01*
X117600000Y-96625000D02*
X116400000Y-96625000D01*
X144875000Y-134600000D02*
X144875000Y-133400000D01*
X143125000Y-133400000D02*
X143125000Y-134600000D01*
X141875000Y-134600000D02*
X141875000Y-133400000D01*
X140125000Y-133400000D02*
X140125000Y-134600000D01*
X138875000Y-134600000D02*
X138875000Y-133400000D01*
X137125000Y-133400000D02*
X137125000Y-134600000D01*
X106650000Y-89875000D02*
X107850000Y-89875000D01*
X107850000Y-88125000D02*
X106650000Y-88125000D01*
X183650000Y-97125000D02*
X184850000Y-97125000D01*
X184850000Y-95375000D02*
X183650000Y-95375000D01*
X106650000Y-95875000D02*
X107850000Y-95875000D01*
X107850000Y-94125000D02*
X106650000Y-94125000D01*
X113625000Y-87350000D02*
X113625000Y-86150000D01*
X111875000Y-86150000D02*
X111875000Y-87350000D01*
X110375000Y-122400000D02*
X110375000Y-123600000D01*
X112125000Y-123600000D02*
X112125000Y-122400000D01*
X109625000Y-123600000D02*
X109625000Y-122400000D01*
X107875000Y-122400000D02*
X107875000Y-123600000D01*
X182600000Y-41125000D02*
X181400000Y-41125000D01*
X181400000Y-42875000D02*
X182600000Y-42875000D01*
X122600000Y-41125000D02*
X121400000Y-41125000D01*
X121400000Y-42875000D02*
X122600000Y-42875000D01*
X158125000Y-97900000D02*
X158125000Y-99100000D01*
X159875000Y-99100000D02*
X159875000Y-97900000D01*
X122825000Y-83425000D02*
X122825000Y-83570000D01*
X118675000Y-83425000D02*
X118675000Y-83570000D01*
X118675000Y-88575000D02*
X118675000Y-88430000D01*
X122825000Y-88575000D02*
X122825000Y-88430000D01*
X122825000Y-83425000D02*
X118675000Y-83425000D01*
X122825000Y-88575000D02*
X118675000Y-88575000D01*
X122825000Y-83570000D02*
X124225000Y-83570000D01*
D12*
X113607143Y-93333334D02*
X113654762Y-93285715D01*
X113702381Y-93142858D01*
X113702381Y-93047620D01*
X113654762Y-92904762D01*
X113559524Y-92809524D01*
X113464286Y-92761905D01*
X113273810Y-92714286D01*
X113130952Y-92714286D01*
X112940476Y-92761905D01*
X112845238Y-92809524D01*
X112750000Y-92904762D01*
X112702381Y-93047620D01*
X112702381Y-93142858D01*
X112750000Y-93285715D01*
X112797619Y-93333334D01*
X113702381Y-94285715D02*
X113702381Y-93714286D01*
X113702381Y-94000000D02*
X112702381Y-94000000D01*
X112845238Y-93904762D01*
X112940476Y-93809524D01*
X112988095Y-93714286D01*
X157107143Y-95583334D02*
X157154762Y-95535715D01*
X157202381Y-95392858D01*
X157202381Y-95297620D01*
X157154762Y-95154762D01*
X157059524Y-95059524D01*
X156964286Y-95011905D01*
X156773810Y-94964286D01*
X156630952Y-94964286D01*
X156440476Y-95011905D01*
X156345238Y-95059524D01*
X156250000Y-95154762D01*
X156202381Y-95297620D01*
X156202381Y-95392858D01*
X156250000Y-95535715D01*
X156297619Y-95583334D01*
X156297619Y-95964286D02*
X156250000Y-96011905D01*
X156202381Y-96107143D01*
X156202381Y-96345239D01*
X156250000Y-96440477D01*
X156297619Y-96488096D01*
X156392857Y-96535715D01*
X156488095Y-96535715D01*
X156630952Y-96488096D01*
X157202381Y-95916667D01*
X157202381Y-96535715D01*
X128107143Y-86583334D02*
X128154762Y-86535715D01*
X128202381Y-86392858D01*
X128202381Y-86297620D01*
X128154762Y-86154762D01*
X128059524Y-86059524D01*
X127964286Y-86011905D01*
X127773810Y-85964286D01*
X127630952Y-85964286D01*
X127440476Y-86011905D01*
X127345238Y-86059524D01*
X127250000Y-86154762D01*
X127202381Y-86297620D01*
X127202381Y-86392858D01*
X127250000Y-86535715D01*
X127297619Y-86583334D01*
X127202381Y-87440477D02*
X127202381Y-87250000D01*
X127250000Y-87154762D01*
X127297619Y-87107143D01*
X127440476Y-87011905D01*
X127630952Y-86964286D01*
X128011905Y-86964286D01*
X128107143Y-87011905D01*
X128154762Y-87059524D01*
X128202381Y-87154762D01*
X128202381Y-87345239D01*
X128154762Y-87440477D01*
X128107143Y-87488096D01*
X128011905Y-87535715D01*
X127773810Y-87535715D01*
X127678571Y-87488096D01*
X127630952Y-87440477D01*
X127583333Y-87345239D01*
X127583333Y-87154762D01*
X127630952Y-87059524D01*
X127678571Y-87011905D01*
X127773810Y-86964286D01*
X115857143Y-83583334D02*
X115904762Y-83535715D01*
X115952381Y-83392858D01*
X115952381Y-83297620D01*
X115904762Y-83154762D01*
X115809524Y-83059524D01*
X115714286Y-83011905D01*
X115523810Y-82964286D01*
X115380952Y-82964286D01*
X115190476Y-83011905D01*
X115095238Y-83059524D01*
X115000000Y-83154762D01*
X114952381Y-83297620D01*
X114952381Y-83392858D01*
X115000000Y-83535715D01*
X115047619Y-83583334D01*
X115952381Y-84059524D02*
X115952381Y-84250000D01*
X115904762Y-84345239D01*
X115857143Y-84392858D01*
X115714286Y-84488096D01*
X115523810Y-84535715D01*
X115142857Y-84535715D01*
X115047619Y-84488096D01*
X115000000Y-84440477D01*
X114952381Y-84345239D01*
X114952381Y-84154762D01*
X115000000Y-84059524D01*
X115047619Y-84011905D01*
X115142857Y-83964286D01*
X115380952Y-83964286D01*
X115476190Y-84011905D01*
X115523810Y-84059524D01*
X115571429Y-84154762D01*
X115571429Y-84345239D01*
X115523810Y-84440477D01*
X115476190Y-84488096D01*
X115380952Y-84535715D01*
X173607143Y-42357143D02*
X173654762Y-42309524D01*
X173702381Y-42166667D01*
X173702381Y-42071429D01*
X173654762Y-41928571D01*
X173559524Y-41833333D01*
X173464286Y-41785714D01*
X173273810Y-41738095D01*
X173130952Y-41738095D01*
X172940476Y-41785714D01*
X172845238Y-41833333D01*
X172750000Y-41928571D01*
X172702381Y-42071429D01*
X172702381Y-42166667D01*
X172750000Y-42309524D01*
X172797619Y-42357143D01*
X173702381Y-43309524D02*
X173702381Y-42738095D01*
X173702381Y-43023809D02*
X172702381Y-43023809D01*
X172845238Y-42928571D01*
X172940476Y-42833333D01*
X172988095Y-42738095D01*
X172702381Y-43642857D02*
X172702381Y-44309524D01*
X173702381Y-43880952D01*
X175642857Y-41107143D02*
X175690476Y-41154762D01*
X175833333Y-41202381D01*
X175928571Y-41202381D01*
X176071429Y-41154762D01*
X176166667Y-41059524D01*
X176214286Y-40964286D01*
X176261905Y-40773810D01*
X176261905Y-40630952D01*
X176214286Y-40440476D01*
X176166667Y-40345238D01*
X176071429Y-40250000D01*
X175928571Y-40202381D01*
X175833333Y-40202381D01*
X175690476Y-40250000D01*
X175642857Y-40297619D01*
X174690476Y-41202381D02*
X175261905Y-41202381D01*
X174976191Y-41202381D02*
X174976191Y-40202381D01*
X175071429Y-40345238D01*
X175166667Y-40440476D01*
X175261905Y-40488095D01*
X174119048Y-40630952D02*
X174214286Y-40583333D01*
X174261905Y-40535714D01*
X174309524Y-40440476D01*
X174309524Y-40392857D01*
X174261905Y-40297619D01*
X174214286Y-40250000D01*
X174119048Y-40202381D01*
X173928571Y-40202381D01*
X173833333Y-40250000D01*
X173785714Y-40297619D01*
X173738095Y-40392857D01*
X173738095Y-40440476D01*
X173785714Y-40535714D01*
X173833333Y-40583333D01*
X173928571Y-40630952D01*
X174119048Y-40630952D01*
X174214286Y-40678571D01*
X174261905Y-40726190D01*
X174309524Y-40821429D01*
X174309524Y-41011905D01*
X174261905Y-41107143D01*
X174214286Y-41154762D01*
X174119048Y-41202381D01*
X173928571Y-41202381D01*
X173833333Y-41154762D01*
X173785714Y-41107143D01*
X173738095Y-41011905D01*
X173738095Y-40821429D01*
X173785714Y-40726190D01*
X173833333Y-40678571D01*
X173928571Y-40630952D01*
X187357143Y-42357143D02*
X187404762Y-42309524D01*
X187452381Y-42166667D01*
X187452381Y-42071429D01*
X187404762Y-41928571D01*
X187309524Y-41833333D01*
X187214286Y-41785714D01*
X187023810Y-41738095D01*
X186880952Y-41738095D01*
X186690476Y-41785714D01*
X186595238Y-41833333D01*
X186500000Y-41928571D01*
X186452381Y-42071429D01*
X186452381Y-42166667D01*
X186500000Y-42309524D01*
X186547619Y-42357143D01*
X187452381Y-43309524D02*
X187452381Y-42738095D01*
X187452381Y-43023809D02*
X186452381Y-43023809D01*
X186595238Y-42928571D01*
X186690476Y-42833333D01*
X186738095Y-42738095D01*
X187452381Y-43785714D02*
X187452381Y-43976190D01*
X187404762Y-44071429D01*
X187357143Y-44119048D01*
X187214286Y-44214286D01*
X187023810Y-44261905D01*
X186642857Y-44261905D01*
X186547619Y-44214286D01*
X186500000Y-44166667D01*
X186452381Y-44071429D01*
X186452381Y-43880952D01*
X186500000Y-43785714D01*
X186547619Y-43738095D01*
X186642857Y-43690476D01*
X186880952Y-43690476D01*
X186976190Y-43738095D01*
X187023810Y-43785714D01*
X187071429Y-43880952D01*
X187071429Y-44071429D01*
X187023810Y-44166667D01*
X186976190Y-44214286D01*
X186880952Y-44261905D01*
X113607143Y-42357143D02*
X113654762Y-42309524D01*
X113702381Y-42166667D01*
X113702381Y-42071429D01*
X113654762Y-41928571D01*
X113559524Y-41833333D01*
X113464286Y-41785714D01*
X113273810Y-41738095D01*
X113130952Y-41738095D01*
X112940476Y-41785714D01*
X112845238Y-41833333D01*
X112750000Y-41928571D01*
X112702381Y-42071429D01*
X112702381Y-42166667D01*
X112750000Y-42309524D01*
X112797619Y-42357143D01*
X112797619Y-42738095D02*
X112750000Y-42785714D01*
X112702381Y-42880952D01*
X112702381Y-43119048D01*
X112750000Y-43214286D01*
X112797619Y-43261905D01*
X112892857Y-43309524D01*
X112988095Y-43309524D01*
X113130952Y-43261905D01*
X113702381Y-42690476D01*
X113702381Y-43309524D01*
X112797619Y-43690476D02*
X112750000Y-43738095D01*
X112702381Y-43833333D01*
X112702381Y-44071429D01*
X112750000Y-44166667D01*
X112797619Y-44214286D01*
X112892857Y-44261905D01*
X112988095Y-44261905D01*
X113130952Y-44214286D01*
X113702381Y-43642857D01*
X113702381Y-44261905D01*
X115642857Y-41107143D02*
X115690476Y-41154762D01*
X115833333Y-41202381D01*
X115928571Y-41202381D01*
X116071429Y-41154762D01*
X116166667Y-41059524D01*
X116214286Y-40964286D01*
X116261905Y-40773810D01*
X116261905Y-40630952D01*
X116214286Y-40440476D01*
X116166667Y-40345238D01*
X116071429Y-40250000D01*
X115928571Y-40202381D01*
X115833333Y-40202381D01*
X115690476Y-40250000D01*
X115642857Y-40297619D01*
X115261905Y-40297619D02*
X115214286Y-40250000D01*
X115119048Y-40202381D01*
X114880952Y-40202381D01*
X114785714Y-40250000D01*
X114738095Y-40297619D01*
X114690476Y-40392857D01*
X114690476Y-40488095D01*
X114738095Y-40630952D01*
X115309524Y-41202381D01*
X114690476Y-41202381D01*
X114357143Y-40202381D02*
X113738095Y-40202381D01*
X114071429Y-40583333D01*
X113928571Y-40583333D01*
X113833333Y-40630952D01*
X113785714Y-40678571D01*
X113738095Y-40773810D01*
X113738095Y-41011905D01*
X113785714Y-41107143D01*
X113833333Y-41154762D01*
X113928571Y-41202381D01*
X114214286Y-41202381D01*
X114309524Y-41154762D01*
X114357143Y-41107143D01*
X127357143Y-42357143D02*
X127404762Y-42309524D01*
X127452381Y-42166667D01*
X127452381Y-42071429D01*
X127404762Y-41928571D01*
X127309524Y-41833333D01*
X127214286Y-41785714D01*
X127023810Y-41738095D01*
X126880952Y-41738095D01*
X126690476Y-41785714D01*
X126595238Y-41833333D01*
X126500000Y-41928571D01*
X126452381Y-42071429D01*
X126452381Y-42166667D01*
X126500000Y-42309524D01*
X126547619Y-42357143D01*
X126547619Y-42738095D02*
X126500000Y-42785714D01*
X126452381Y-42880952D01*
X126452381Y-43119048D01*
X126500000Y-43214286D01*
X126547619Y-43261905D01*
X126642857Y-43309524D01*
X126738095Y-43309524D01*
X126880952Y-43261905D01*
X127452381Y-42690476D01*
X127452381Y-43309524D01*
X126785714Y-44166667D02*
X127452381Y-44166667D01*
X126404762Y-43928571D02*
X127119048Y-43690476D01*
X127119048Y-44309524D01*
X121642857Y-92857143D02*
X121690476Y-92904762D01*
X121833333Y-92952381D01*
X121928571Y-92952381D01*
X122071429Y-92904762D01*
X122166667Y-92809524D01*
X122214286Y-92714286D01*
X122261905Y-92523810D01*
X122261905Y-92380952D01*
X122214286Y-92190476D01*
X122166667Y-92095238D01*
X122071429Y-92000000D01*
X121928571Y-91952381D01*
X121833333Y-91952381D01*
X121690476Y-92000000D01*
X121642857Y-92047619D01*
X121261905Y-92047619D02*
X121214286Y-92000000D01*
X121119048Y-91952381D01*
X120880952Y-91952381D01*
X120785714Y-92000000D01*
X120738095Y-92047619D01*
X120690476Y-92142857D01*
X120690476Y-92238095D01*
X120738095Y-92380952D01*
X121309524Y-92952381D01*
X120690476Y-92952381D01*
X119833333Y-91952381D02*
X120023810Y-91952381D01*
X120119048Y-92000000D01*
X120166667Y-92047619D01*
X120261905Y-92190476D01*
X120309524Y-92380952D01*
X120309524Y-92761905D01*
X120261905Y-92857143D01*
X120214286Y-92904762D01*
X120119048Y-92952381D01*
X119928571Y-92952381D01*
X119833333Y-92904762D01*
X119785714Y-92857143D01*
X119738095Y-92761905D01*
X119738095Y-92523810D01*
X119785714Y-92428571D01*
X119833333Y-92380952D01*
X119928571Y-92333333D01*
X120119048Y-92333333D01*
X120214286Y-92380952D01*
X120261905Y-92428571D01*
X120309524Y-92523810D01*
X161702381Y-95011905D02*
X160702381Y-95011905D01*
X160702381Y-95250000D01*
X160750000Y-95392858D01*
X160845238Y-95488096D01*
X160940476Y-95535715D01*
X161130952Y-95583334D01*
X161273810Y-95583334D01*
X161464286Y-95535715D01*
X161559524Y-95488096D01*
X161654762Y-95392858D01*
X161702381Y-95250000D01*
X161702381Y-95011905D01*
X160702381Y-95916667D02*
X160702381Y-96535715D01*
X161083333Y-96202381D01*
X161083333Y-96345239D01*
X161130952Y-96440477D01*
X161178571Y-96488096D01*
X161273810Y-96535715D01*
X161511905Y-96535715D01*
X161607143Y-96488096D01*
X161654762Y-96440477D01*
X161702381Y-96345239D01*
X161702381Y-96059524D01*
X161654762Y-95964286D01*
X161607143Y-95916667D01*
X169845238Y-108547619D02*
X169940476Y-108500000D01*
X170035714Y-108404762D01*
X170178571Y-108261905D01*
X170273810Y-108214286D01*
X170369048Y-108214286D01*
X170321429Y-108452381D02*
X170416667Y-108404762D01*
X170511905Y-108309524D01*
X170559524Y-108119048D01*
X170559524Y-107785714D01*
X170511905Y-107595238D01*
X170416667Y-107500000D01*
X170321429Y-107452381D01*
X170130952Y-107452381D01*
X170035714Y-107500000D01*
X169940476Y-107595238D01*
X169892857Y-107785714D01*
X169892857Y-108119048D01*
X169940476Y-108309524D01*
X170035714Y-108404762D01*
X170130952Y-108452381D01*
X170321429Y-108452381D01*
X168940476Y-108452381D02*
X169511905Y-108452381D01*
X169226191Y-108452381D02*
X169226191Y-107452381D01*
X169321429Y-107595238D01*
X169416667Y-107690476D01*
X169511905Y-107738095D01*
X169845238Y-117547619D02*
X169940476Y-117500000D01*
X170035714Y-117404762D01*
X170178571Y-117261905D01*
X170273810Y-117214286D01*
X170369048Y-117214286D01*
X170321429Y-117452381D02*
X170416667Y-117404762D01*
X170511905Y-117309524D01*
X170559524Y-117119048D01*
X170559524Y-116785714D01*
X170511905Y-116595238D01*
X170416667Y-116500000D01*
X170321429Y-116452381D01*
X170130952Y-116452381D01*
X170035714Y-116500000D01*
X169940476Y-116595238D01*
X169892857Y-116785714D01*
X169892857Y-117119048D01*
X169940476Y-117309524D01*
X170035714Y-117404762D01*
X170130952Y-117452381D01*
X170321429Y-117452381D01*
X169511905Y-116547619D02*
X169464286Y-116500000D01*
X169369048Y-116452381D01*
X169130952Y-116452381D01*
X169035714Y-116500000D01*
X168988095Y-116547619D01*
X168940476Y-116642857D01*
X168940476Y-116738095D01*
X168988095Y-116880952D01*
X169559524Y-117452381D01*
X168940476Y-117452381D01*
X172595238Y-121047619D02*
X172690476Y-121000000D01*
X172785714Y-120904762D01*
X172928571Y-120761905D01*
X173023810Y-120714286D01*
X173119048Y-120714286D01*
X173071429Y-120952381D02*
X173166667Y-120904762D01*
X173261905Y-120809524D01*
X173309524Y-120619048D01*
X173309524Y-120285714D01*
X173261905Y-120095238D01*
X173166667Y-120000000D01*
X173071429Y-119952381D01*
X172880952Y-119952381D01*
X172785714Y-120000000D01*
X172690476Y-120095238D01*
X172642857Y-120285714D01*
X172642857Y-120619048D01*
X172690476Y-120809524D01*
X172785714Y-120904762D01*
X172880952Y-120952381D01*
X173071429Y-120952381D01*
X172309524Y-119952381D02*
X171690476Y-119952381D01*
X172023810Y-120333333D01*
X171880952Y-120333333D01*
X171785714Y-120380952D01*
X171738095Y-120428571D01*
X171690476Y-120523810D01*
X171690476Y-120761905D01*
X171738095Y-120857143D01*
X171785714Y-120904762D01*
X171880952Y-120952381D01*
X172166667Y-120952381D01*
X172261905Y-120904762D01*
X172309524Y-120857143D01*
X134916666Y-95852381D02*
X135250000Y-95376190D01*
X135488095Y-95852381D02*
X135488095Y-94852381D01*
X135107142Y-94852381D01*
X135011904Y-94900000D01*
X134964285Y-94947619D01*
X134916666Y-95042857D01*
X134916666Y-95185714D01*
X134964285Y-95280952D01*
X135011904Y-95328571D01*
X135107142Y-95376190D01*
X135488095Y-95376190D01*
X134535714Y-94947619D02*
X134488095Y-94900000D01*
X134392857Y-94852381D01*
X134154761Y-94852381D01*
X134059523Y-94900000D01*
X134011904Y-94947619D01*
X133964285Y-95042857D01*
X133964285Y-95138095D01*
X134011904Y-95280952D01*
X134583333Y-95852381D01*
X133964285Y-95852381D01*
X179166666Y-96702381D02*
X179500000Y-96226190D01*
X179738095Y-96702381D02*
X179738095Y-95702381D01*
X179357142Y-95702381D01*
X179261904Y-95750000D01*
X179214285Y-95797619D01*
X179166666Y-95892857D01*
X179166666Y-96035714D01*
X179214285Y-96130952D01*
X179261904Y-96178571D01*
X179357142Y-96226190D01*
X179738095Y-96226190D01*
X178833333Y-95702381D02*
X178214285Y-95702381D01*
X178547619Y-96083333D01*
X178404761Y-96083333D01*
X178309523Y-96130952D01*
X178261904Y-96178571D01*
X178214285Y-96273810D01*
X178214285Y-96511905D01*
X178261904Y-96607143D01*
X178309523Y-96654762D01*
X178404761Y-96702381D01*
X178690476Y-96702381D01*
X178785714Y-96654762D01*
X178833333Y-96607143D01*
X173202381Y-107833334D02*
X172726190Y-107500000D01*
X173202381Y-107261905D02*
X172202381Y-107261905D01*
X172202381Y-107642858D01*
X172250000Y-107738096D01*
X172297619Y-107785715D01*
X172392857Y-107833334D01*
X172535714Y-107833334D01*
X172630952Y-107785715D01*
X172678571Y-107738096D01*
X172726190Y-107642858D01*
X172726190Y-107261905D01*
X172202381Y-108738096D02*
X172202381Y-108261905D01*
X172678571Y-108214286D01*
X172630952Y-108261905D01*
X172583333Y-108357143D01*
X172583333Y-108595239D01*
X172630952Y-108690477D01*
X172678571Y-108738096D01*
X172773810Y-108785715D01*
X173011905Y-108785715D01*
X173107143Y-108738096D01*
X173154762Y-108690477D01*
X173202381Y-108595239D01*
X173202381Y-108357143D01*
X173154762Y-108261905D01*
X173107143Y-108214286D01*
X173202381Y-117083334D02*
X172726190Y-116750000D01*
X173202381Y-116511905D02*
X172202381Y-116511905D01*
X172202381Y-116892858D01*
X172250000Y-116988096D01*
X172297619Y-117035715D01*
X172392857Y-117083334D01*
X172535714Y-117083334D01*
X172630952Y-117035715D01*
X172678571Y-116988096D01*
X172726190Y-116892858D01*
X172726190Y-116511905D01*
X172202381Y-117940477D02*
X172202381Y-117750000D01*
X172250000Y-117654762D01*
X172297619Y-117607143D01*
X172440476Y-117511905D01*
X172630952Y-117464286D01*
X173011905Y-117464286D01*
X173107143Y-117511905D01*
X173154762Y-117559524D01*
X173202381Y-117654762D01*
X173202381Y-117845239D01*
X173154762Y-117940477D01*
X173107143Y-117988096D01*
X173011905Y-118035715D01*
X172773810Y-118035715D01*
X172678571Y-117988096D01*
X172630952Y-117940477D01*
X172583333Y-117845239D01*
X172583333Y-117654762D01*
X172630952Y-117559524D01*
X172678571Y-117511905D01*
X172773810Y-117464286D01*
X172666666Y-123952381D02*
X173000000Y-123476190D01*
X173238095Y-123952381D02*
X173238095Y-122952381D01*
X172857142Y-122952381D01*
X172761904Y-123000000D01*
X172714285Y-123047619D01*
X172666666Y-123142857D01*
X172666666Y-123285714D01*
X172714285Y-123380952D01*
X172761904Y-123428571D01*
X172857142Y-123476190D01*
X173238095Y-123476190D01*
X172333333Y-122952381D02*
X171666666Y-122952381D01*
X172095238Y-123952381D01*
X117642857Y-95852381D02*
X117976191Y-95376190D01*
X118214286Y-95852381D02*
X118214286Y-94852381D01*
X117833333Y-94852381D01*
X117738095Y-94900000D01*
X117690476Y-94947619D01*
X117642857Y-95042857D01*
X117642857Y-95185714D01*
X117690476Y-95280952D01*
X117738095Y-95328571D01*
X117833333Y-95376190D01*
X118214286Y-95376190D01*
X116690476Y-95852381D02*
X117261905Y-95852381D01*
X116976191Y-95852381D02*
X116976191Y-94852381D01*
X117071429Y-94995238D01*
X117166667Y-95090476D01*
X117261905Y-95138095D01*
X115833333Y-94852381D02*
X116023810Y-94852381D01*
X116119048Y-94900000D01*
X116166667Y-94947619D01*
X116261905Y-95090476D01*
X116309524Y-95280952D01*
X116309524Y-95661905D01*
X116261905Y-95757143D01*
X116214286Y-95804762D01*
X116119048Y-95852381D01*
X115928571Y-95852381D01*
X115833333Y-95804762D01*
X115785714Y-95757143D01*
X115738095Y-95661905D01*
X115738095Y-95423810D01*
X115785714Y-95328571D01*
X115833333Y-95280952D01*
X115928571Y-95233333D01*
X116119048Y-95233333D01*
X116214286Y-95280952D01*
X116261905Y-95328571D01*
X116309524Y-95423810D01*
X144452381Y-130357143D02*
X143976190Y-130023809D01*
X144452381Y-129785714D02*
X143452381Y-129785714D01*
X143452381Y-130166667D01*
X143500000Y-130261905D01*
X143547619Y-130309524D01*
X143642857Y-130357143D01*
X143785714Y-130357143D01*
X143880952Y-130309524D01*
X143928571Y-130261905D01*
X143976190Y-130166667D01*
X143976190Y-129785714D01*
X144452381Y-131309524D02*
X144452381Y-130738095D01*
X144452381Y-131023809D02*
X143452381Y-131023809D01*
X143595238Y-130928571D01*
X143690476Y-130833333D01*
X143738095Y-130738095D01*
X144452381Y-131785714D02*
X144452381Y-131976190D01*
X144404762Y-132071429D01*
X144357143Y-132119048D01*
X144214286Y-132214286D01*
X144023810Y-132261905D01*
X143642857Y-132261905D01*
X143547619Y-132214286D01*
X143500000Y-132166667D01*
X143452381Y-132071429D01*
X143452381Y-131880952D01*
X143500000Y-131785714D01*
X143547619Y-131738095D01*
X143642857Y-131690476D01*
X143880952Y-131690476D01*
X143976190Y-131738095D01*
X144023810Y-131785714D01*
X144071429Y-131880952D01*
X144071429Y-132071429D01*
X144023810Y-132166667D01*
X143976190Y-132214286D01*
X143880952Y-132261905D01*
X141452381Y-130357143D02*
X140976190Y-130023809D01*
X141452381Y-129785714D02*
X140452381Y-129785714D01*
X140452381Y-130166667D01*
X140500000Y-130261905D01*
X140547619Y-130309524D01*
X140642857Y-130357143D01*
X140785714Y-130357143D01*
X140880952Y-130309524D01*
X140928571Y-130261905D01*
X140976190Y-130166667D01*
X140976190Y-129785714D01*
X140547619Y-130738095D02*
X140500000Y-130785714D01*
X140452381Y-130880952D01*
X140452381Y-131119048D01*
X140500000Y-131214286D01*
X140547619Y-131261905D01*
X140642857Y-131309524D01*
X140738095Y-131309524D01*
X140880952Y-131261905D01*
X141452381Y-130690476D01*
X141452381Y-131309524D01*
X140452381Y-131928571D02*
X140452381Y-132023810D01*
X140500000Y-132119048D01*
X140547619Y-132166667D01*
X140642857Y-132214286D01*
X140833333Y-132261905D01*
X141071429Y-132261905D01*
X141261905Y-132214286D01*
X141357143Y-132166667D01*
X141404762Y-132119048D01*
X141452381Y-132023810D01*
X141452381Y-131928571D01*
X141404762Y-131833333D01*
X141357143Y-131785714D01*
X141261905Y-131738095D01*
X141071429Y-131690476D01*
X140833333Y-131690476D01*
X140642857Y-131738095D01*
X140547619Y-131785714D01*
X140500000Y-131833333D01*
X140452381Y-131928571D01*
X138452381Y-130357143D02*
X137976190Y-130023809D01*
X138452381Y-129785714D02*
X137452381Y-129785714D01*
X137452381Y-130166667D01*
X137500000Y-130261905D01*
X137547619Y-130309524D01*
X137642857Y-130357143D01*
X137785714Y-130357143D01*
X137880952Y-130309524D01*
X137928571Y-130261905D01*
X137976190Y-130166667D01*
X137976190Y-129785714D01*
X137547619Y-130738095D02*
X137500000Y-130785714D01*
X137452381Y-130880952D01*
X137452381Y-131119048D01*
X137500000Y-131214286D01*
X137547619Y-131261905D01*
X137642857Y-131309524D01*
X137738095Y-131309524D01*
X137880952Y-131261905D01*
X138452381Y-130690476D01*
X138452381Y-131309524D01*
X138452381Y-132261905D02*
X138452381Y-131690476D01*
X138452381Y-131976190D02*
X137452381Y-131976190D01*
X137595238Y-131880952D01*
X137690476Y-131785714D01*
X137738095Y-131690476D01*
X107892857Y-87702381D02*
X108226191Y-87226190D01*
X108464286Y-87702381D02*
X108464286Y-86702381D01*
X108083333Y-86702381D01*
X107988095Y-86750000D01*
X107940476Y-86797619D01*
X107892857Y-86892857D01*
X107892857Y-87035714D01*
X107940476Y-87130952D01*
X107988095Y-87178571D01*
X108083333Y-87226190D01*
X108464286Y-87226190D01*
X107511905Y-86797619D02*
X107464286Y-86750000D01*
X107369048Y-86702381D01*
X107130952Y-86702381D01*
X107035714Y-86750000D01*
X106988095Y-86797619D01*
X106940476Y-86892857D01*
X106940476Y-86988095D01*
X106988095Y-87130952D01*
X107559524Y-87702381D01*
X106940476Y-87702381D01*
X106559524Y-86797619D02*
X106511905Y-86750000D01*
X106416667Y-86702381D01*
X106178571Y-86702381D01*
X106083333Y-86750000D01*
X106035714Y-86797619D01*
X105988095Y-86892857D01*
X105988095Y-86988095D01*
X106035714Y-87130952D01*
X106607143Y-87702381D01*
X105988095Y-87702381D01*
X184892857Y-94602381D02*
X185226191Y-94126190D01*
X185464286Y-94602381D02*
X185464286Y-93602381D01*
X185083333Y-93602381D01*
X184988095Y-93650000D01*
X184940476Y-93697619D01*
X184892857Y-93792857D01*
X184892857Y-93935714D01*
X184940476Y-94030952D01*
X184988095Y-94078571D01*
X185083333Y-94126190D01*
X185464286Y-94126190D01*
X184511905Y-93697619D02*
X184464286Y-93650000D01*
X184369048Y-93602381D01*
X184130952Y-93602381D01*
X184035714Y-93650000D01*
X183988095Y-93697619D01*
X183940476Y-93792857D01*
X183940476Y-93888095D01*
X183988095Y-94030952D01*
X184559524Y-94602381D01*
X183940476Y-94602381D01*
X183607143Y-93602381D02*
X182988095Y-93602381D01*
X183321429Y-93983333D01*
X183178571Y-93983333D01*
X183083333Y-94030952D01*
X183035714Y-94078571D01*
X182988095Y-94173810D01*
X182988095Y-94411905D01*
X183035714Y-94507143D01*
X183083333Y-94554762D01*
X183178571Y-94602381D01*
X183464286Y-94602381D01*
X183559524Y-94554762D01*
X183607143Y-94507143D01*
X107892857Y-93452381D02*
X108226191Y-92976190D01*
X108464286Y-93452381D02*
X108464286Y-92452381D01*
X108083333Y-92452381D01*
X107988095Y-92500000D01*
X107940476Y-92547619D01*
X107892857Y-92642857D01*
X107892857Y-92785714D01*
X107940476Y-92880952D01*
X107988095Y-92928571D01*
X108083333Y-92976190D01*
X108464286Y-92976190D01*
X107511905Y-92547619D02*
X107464286Y-92500000D01*
X107369048Y-92452381D01*
X107130952Y-92452381D01*
X107035714Y-92500000D01*
X106988095Y-92547619D01*
X106940476Y-92642857D01*
X106940476Y-92738095D01*
X106988095Y-92880952D01*
X107559524Y-93452381D01*
X106940476Y-93452381D01*
X106083333Y-92785714D02*
X106083333Y-93452381D01*
X106321429Y-92404762D02*
X106559524Y-93119048D01*
X105940476Y-93119048D01*
X113202381Y-82607143D02*
X112726190Y-82273809D01*
X113202381Y-82035714D02*
X112202381Y-82035714D01*
X112202381Y-82416667D01*
X112250000Y-82511905D01*
X112297619Y-82559524D01*
X112392857Y-82607143D01*
X112535714Y-82607143D01*
X112630952Y-82559524D01*
X112678571Y-82511905D01*
X112726190Y-82416667D01*
X112726190Y-82035714D01*
X112297619Y-82988095D02*
X112250000Y-83035714D01*
X112202381Y-83130952D01*
X112202381Y-83369048D01*
X112250000Y-83464286D01*
X112297619Y-83511905D01*
X112392857Y-83559524D01*
X112488095Y-83559524D01*
X112630952Y-83511905D01*
X113202381Y-82940476D01*
X113202381Y-83559524D01*
X112202381Y-84464286D02*
X112202381Y-83988095D01*
X112678571Y-83940476D01*
X112630952Y-83988095D01*
X112583333Y-84083333D01*
X112583333Y-84321429D01*
X112630952Y-84416667D01*
X112678571Y-84464286D01*
X112773810Y-84511905D01*
X113011905Y-84511905D01*
X113107143Y-84464286D01*
X113154762Y-84416667D01*
X113202381Y-84321429D01*
X113202381Y-84083333D01*
X113154762Y-83988095D01*
X113107143Y-83940476D01*
X111702381Y-119107143D02*
X111226190Y-118773809D01*
X111702381Y-118535714D02*
X110702381Y-118535714D01*
X110702381Y-118916667D01*
X110750000Y-119011905D01*
X110797619Y-119059524D01*
X110892857Y-119107143D01*
X111035714Y-119107143D01*
X111130952Y-119059524D01*
X111178571Y-119011905D01*
X111226190Y-118916667D01*
X111226190Y-118535714D01*
X110797619Y-119488095D02*
X110750000Y-119535714D01*
X110702381Y-119630952D01*
X110702381Y-119869048D01*
X110750000Y-119964286D01*
X110797619Y-120011905D01*
X110892857Y-120059524D01*
X110988095Y-120059524D01*
X111130952Y-120011905D01*
X111702381Y-119440476D01*
X111702381Y-120059524D01*
X110702381Y-120916667D02*
X110702381Y-120726190D01*
X110750000Y-120630952D01*
X110797619Y-120583333D01*
X110940476Y-120488095D01*
X111130952Y-120440476D01*
X111511905Y-120440476D01*
X111607143Y-120488095D01*
X111654762Y-120535714D01*
X111702381Y-120630952D01*
X111702381Y-120821429D01*
X111654762Y-120916667D01*
X111607143Y-120964286D01*
X111511905Y-121011905D01*
X111273810Y-121011905D01*
X111178571Y-120964286D01*
X111130952Y-120916667D01*
X111083333Y-120821429D01*
X111083333Y-120630952D01*
X111130952Y-120535714D01*
X111178571Y-120488095D01*
X111273810Y-120440476D01*
X109452381Y-119107143D02*
X108976190Y-118773809D01*
X109452381Y-118535714D02*
X108452381Y-118535714D01*
X108452381Y-118916667D01*
X108500000Y-119011905D01*
X108547619Y-119059524D01*
X108642857Y-119107143D01*
X108785714Y-119107143D01*
X108880952Y-119059524D01*
X108928571Y-119011905D01*
X108976190Y-118916667D01*
X108976190Y-118535714D01*
X108547619Y-119488095D02*
X108500000Y-119535714D01*
X108452381Y-119630952D01*
X108452381Y-119869048D01*
X108500000Y-119964286D01*
X108547619Y-120011905D01*
X108642857Y-120059524D01*
X108738095Y-120059524D01*
X108880952Y-120011905D01*
X109452381Y-119440476D01*
X109452381Y-120059524D01*
X108452381Y-120392857D02*
X108452381Y-121059524D01*
X109452381Y-120630952D01*
X185642857Y-41202381D02*
X185976191Y-40726190D01*
X186214286Y-41202381D02*
X186214286Y-40202381D01*
X185833333Y-40202381D01*
X185738095Y-40250000D01*
X185690476Y-40297619D01*
X185642857Y-40392857D01*
X185642857Y-40535714D01*
X185690476Y-40630952D01*
X185738095Y-40678571D01*
X185833333Y-40726190D01*
X186214286Y-40726190D01*
X185261905Y-40297619D02*
X185214286Y-40250000D01*
X185119048Y-40202381D01*
X184880952Y-40202381D01*
X184785714Y-40250000D01*
X184738095Y-40297619D01*
X184690476Y-40392857D01*
X184690476Y-40488095D01*
X184738095Y-40630952D01*
X185309524Y-41202381D01*
X184690476Y-41202381D01*
X184214286Y-41202381D02*
X184023810Y-41202381D01*
X183928571Y-41154762D01*
X183880952Y-41107143D01*
X183785714Y-40964286D01*
X183738095Y-40773810D01*
X183738095Y-40392857D01*
X183785714Y-40297619D01*
X183833333Y-40250000D01*
X183928571Y-40202381D01*
X184119048Y-40202381D01*
X184214286Y-40250000D01*
X184261905Y-40297619D01*
X184309524Y-40392857D01*
X184309524Y-40630952D01*
X184261905Y-40726190D01*
X184214286Y-40773810D01*
X184119048Y-40821429D01*
X183928571Y-40821429D01*
X183833333Y-40773810D01*
X183785714Y-40726190D01*
X183738095Y-40630952D01*
X125642857Y-41202381D02*
X125976191Y-40726190D01*
X126214286Y-41202381D02*
X126214286Y-40202381D01*
X125833333Y-40202381D01*
X125738095Y-40250000D01*
X125690476Y-40297619D01*
X125642857Y-40392857D01*
X125642857Y-40535714D01*
X125690476Y-40630952D01*
X125738095Y-40678571D01*
X125833333Y-40726190D01*
X126214286Y-40726190D01*
X125309524Y-40202381D02*
X124690476Y-40202381D01*
X125023810Y-40583333D01*
X124880952Y-40583333D01*
X124785714Y-40630952D01*
X124738095Y-40678571D01*
X124690476Y-40773810D01*
X124690476Y-41011905D01*
X124738095Y-41107143D01*
X124785714Y-41154762D01*
X124880952Y-41202381D01*
X125166667Y-41202381D01*
X125261905Y-41154762D01*
X125309524Y-41107143D01*
X124309524Y-40297619D02*
X124261905Y-40250000D01*
X124166667Y-40202381D01*
X123928571Y-40202381D01*
X123833333Y-40250000D01*
X123785714Y-40297619D01*
X123738095Y-40392857D01*
X123738095Y-40488095D01*
X123785714Y-40630952D01*
X124357143Y-41202381D01*
X123738095Y-41202381D01*
X159452381Y-94607143D02*
X158976190Y-94273809D01*
X159452381Y-94035714D02*
X158452381Y-94035714D01*
X158452381Y-94416667D01*
X158500000Y-94511905D01*
X158547619Y-94559524D01*
X158642857Y-94607143D01*
X158785714Y-94607143D01*
X158880952Y-94559524D01*
X158928571Y-94511905D01*
X158976190Y-94416667D01*
X158976190Y-94035714D01*
X158452381Y-94940476D02*
X158452381Y-95559524D01*
X158833333Y-95226190D01*
X158833333Y-95369048D01*
X158880952Y-95464286D01*
X158928571Y-95511905D01*
X159023810Y-95559524D01*
X159261905Y-95559524D01*
X159357143Y-95511905D01*
X159404762Y-95464286D01*
X159452381Y-95369048D01*
X159452381Y-95083333D01*
X159404762Y-94988095D01*
X159357143Y-94940476D01*
X158452381Y-96464286D02*
X158452381Y-95988095D01*
X158928571Y-95940476D01*
X158880952Y-95988095D01*
X158833333Y-96083333D01*
X158833333Y-96321429D01*
X158880952Y-96416667D01*
X158928571Y-96464286D01*
X159023810Y-96511905D01*
X159261905Y-96511905D01*
X159357143Y-96464286D01*
X159404762Y-96416667D01*
X159452381Y-96321429D01*
X159452381Y-96083333D01*
X159404762Y-95988095D01*
X159357143Y-95940476D01*
X121511905Y-81952381D02*
X121511905Y-82761905D01*
X121464286Y-82857143D01*
X121416667Y-82904762D01*
X121321429Y-82952381D01*
X121130952Y-82952381D01*
X121035714Y-82904762D01*
X120988095Y-82857143D01*
X120940476Y-82761905D01*
X120940476Y-81952381D01*
X120559524Y-81952381D02*
X119940476Y-81952381D01*
X120273810Y-82333333D01*
X120130952Y-82333333D01*
X120035714Y-82380952D01*
X119988095Y-82428571D01*
X119940476Y-82523810D01*
X119940476Y-82761905D01*
X119988095Y-82857143D01*
X120035714Y-82904762D01*
X120130952Y-82952381D01*
X120416667Y-82952381D01*
X120511905Y-82904762D01*
X120559524Y-82857143D01*
%LPC*%
D13*
X111500000Y-94450000D03*
X111500000Y-92550000D03*
X156750000Y-97550000D03*
X156750000Y-99450000D03*
X126000000Y-85800000D03*
X126000000Y-87700000D03*
X115500000Y-85800000D03*
X115500000Y-87700000D03*
X175000000Y-43950000D03*
X175000000Y-42050000D03*
D14*
X178950000Y-42000000D03*
X177050000Y-42000000D03*
D13*
X185000000Y-43950000D03*
X185000000Y-42050000D03*
X115000000Y-43950000D03*
X115000000Y-42050000D03*
D14*
X118950000Y-42000000D03*
X117050000Y-42000000D03*
D13*
X125000000Y-43950000D03*
X125000000Y-42050000D03*
D14*
X120050000Y-90500000D03*
X121950000Y-90500000D03*
D15*
X161250000Y-99555000D03*
X161250000Y-97445000D03*
D16*
X176250000Y-105000000D03*
D17*
X176250000Y-102460000D03*
D16*
X180750000Y-105000000D03*
D17*
X180750000Y-102460000D03*
D16*
X124250000Y-127500000D03*
D17*
X124250000Y-130040000D03*
D18*
X103000000Y-137000000D03*
X103000000Y-43000000D03*
X197000000Y-137000000D03*
X197000000Y-43000000D03*
D19*
X194000000Y-124981200D03*
X194000000Y-121018800D03*
X194000000Y-115981200D03*
X194000000Y-112018800D03*
D20*
X175750000Y-110500000D03*
D21*
X178290000Y-110500000D03*
X180830000Y-110500000D03*
D20*
X175750000Y-114500000D03*
D21*
X178290000Y-114500000D03*
X180830000Y-114500000D03*
D22*
X102750000Y-102000000D03*
D23*
X102750000Y-104540000D03*
X102750000Y-107080000D03*
X102750000Y-109620000D03*
X102750000Y-112160000D03*
D19*
X194000000Y-106981200D03*
X194000000Y-103018800D03*
D20*
X124000000Y-102000000D03*
D21*
X121460000Y-102000000D03*
X118920000Y-102000000D03*
X116380000Y-102000000D03*
X113840000Y-102000000D03*
X111300000Y-102000000D03*
D24*
X154730000Y-136000000D03*
X157270000Y-136000000D03*
X161730000Y-136000000D03*
X164270000Y-136000000D03*
D25*
X163500000Y-123330000D03*
X163500000Y-120790000D03*
X163500000Y-118250000D03*
X163500000Y-115710000D03*
X163500000Y-113170000D03*
D24*
X133920000Y-103000000D03*
X136460000Y-103000000D03*
X139000000Y-103000000D03*
X141540000Y-103000000D03*
X144080000Y-103000000D03*
D26*
X181981200Y-46000000D03*
X178018800Y-46000000D03*
X121981200Y-46000000D03*
X118018800Y-46000000D03*
D24*
X110940000Y-136000000D03*
X113480000Y-136000000D03*
X116020000Y-136000000D03*
X118560000Y-136000000D03*
D25*
X104000000Y-78190000D03*
X104000000Y-80730000D03*
X104000000Y-83270000D03*
X104000000Y-85810000D03*
D24*
X168810000Y-44000000D03*
X166270000Y-44000000D03*
X163730000Y-44000000D03*
X161190000Y-44000000D03*
D25*
X196000000Y-85810000D03*
X196000000Y-83270000D03*
X196000000Y-80730000D03*
X196000000Y-78190000D03*
D24*
X138810000Y-44000000D03*
X136270000Y-44000000D03*
X133730000Y-44000000D03*
X131190000Y-44000000D03*
D22*
X116750000Y-120500000D03*
D23*
X116750000Y-117960000D03*
X116750000Y-115420000D03*
X116750000Y-112880000D03*
X116750000Y-110340000D03*
X116750000Y-107800000D03*
D25*
X104000000Y-116650000D03*
X104000000Y-119190000D03*
X104000000Y-121730000D03*
X104000000Y-124270000D03*
X104000000Y-126810000D03*
X104000000Y-129350000D03*
D24*
X147730000Y-136000000D03*
X150270000Y-136000000D03*
D27*
X146000000Y-109000000D03*
X150000000Y-109000000D03*
X155750000Y-118250000D03*
D28*
X168800000Y-109499240D03*
X170700000Y-109499240D03*
X169750000Y-111498220D03*
X168800000Y-113499240D03*
X170700000Y-113499240D03*
X169750000Y-115498220D03*
X168800000Y-119499240D03*
X170700000Y-119499240D03*
X169750000Y-121498220D03*
D14*
X135700000Y-97500000D03*
X133800000Y-97500000D03*
X175300000Y-96250000D03*
X177200000Y-96250000D03*
D13*
X172750000Y-111450000D03*
X172750000Y-109550000D03*
X172750000Y-115450000D03*
X172750000Y-113550000D03*
D14*
X168800000Y-123500000D03*
X170700000Y-123500000D03*
X117950000Y-97500000D03*
X116050000Y-97500000D03*
D13*
X144000000Y-133050000D03*
X144000000Y-134950000D03*
X141000000Y-133050000D03*
X141000000Y-134950000D03*
X138000000Y-133050000D03*
X138000000Y-134950000D03*
D14*
X108200000Y-89000000D03*
X106300000Y-89000000D03*
X185200000Y-96250000D03*
X183300000Y-96250000D03*
X108200000Y-95000000D03*
X106300000Y-95000000D03*
D13*
X112750000Y-85800000D03*
X112750000Y-87700000D03*
X111250000Y-123950000D03*
X111250000Y-122050000D03*
X108750000Y-122050000D03*
X108750000Y-123950000D03*
D14*
X181050000Y-42000000D03*
X182950000Y-42000000D03*
X121050000Y-42000000D03*
X122950000Y-42000000D03*
D13*
X159000000Y-99450000D03*
X159000000Y-97550000D03*
D29*
X123450000Y-84095000D03*
X123450000Y-85365000D03*
X123450000Y-86635000D03*
X123450000Y-87905000D03*
X118050000Y-87905000D03*
X118050000Y-86635000D03*
X118050000Y-85365000D03*
X118050000Y-84095000D03*
D30*
X177750000Y-119500000D03*
X175250000Y-119500000D03*
X180250000Y-119500000D03*
X177750000Y-125500000D03*
X175250000Y-125500000D03*
X180250000Y-125500000D03*
D31*
X111535000Y-78475000D03*
X111535000Y-97525000D03*
X124225000Y-97525000D03*
X127415000Y-97525000D03*
X130585000Y-97525000D03*
X146465000Y-97525000D03*
X146465000Y-78475000D03*
X153535000Y-78475000D03*
X153535000Y-97525000D03*
X166225000Y-97525000D03*
X169415000Y-97525000D03*
X172585000Y-97525000D03*
X188465000Y-97525000D03*
X188465000Y-78475000D03*
M02*
